NotoSansGujarati-CondensedBold.ufo
<glyph name="quotesingle.gujr" format="2">
  <advance width="332"/>
  <unicode hex="0027"/>
  <outline>
    <contour>
      <point x="109" y="471" type="line"/>
      <point x="239" y="471" type="line"/>
      <point x="259" y="729" type="line"/>
      <point x="89" y="729" type="line"/>
    </contour>
  </outline>
</glyph>
<glyph name="comma.gujr" format="2">
  <advance width="278"/>
  <unicode hex="002C"/>
  <outline>
    <contour>
      <point x="43" y="-139" type="curve"/>
      <point x="177" y="-139" type="line"/>
      <point x="206" y="-66"/>
      <point x="227" y="25"/>
      <point x="242" y="135" type="curve"/>
      <point x="237" y="146" type="line"/>
      <point x="79" y="146" type="line"/>
      <point x="75" y="71"/>
      <point x="57" y="-62"/>
    </contour>
  </outline>
</glyph>
<glyph name="hyphen.gujr" format="2">
  <advance width="323"/>
  <unicode hex="002D"/>
  <outline>
    <contour>
      <point x="50" y="224" type="line"/>
      <point x="273" y="224" type="line"/>
      <point x="273" y="370" type="line"/>
      <point x="50" y="370" type="line"/>
    </contour>
  </outline>
</glyph>
<glyph name="period.gujr" format="2">
  <advance width="278"/>
  <unicode hex="002E"/>
  <outline>
    <contour>
      <point x="151" y="-12" type="curve" smooth="yes"/>
      <point x="208" y="-12"/>
      <point x="241" y="22"/>
      <point x="241" y="81" type="curve" smooth="yes"/>
      <point x="241" y="141"/>
      <point x="209" y="175"/>
      <point x="151" y="175" type="curve" smooth="yes"/>
      <point x="91" y="175"/>
      <point x="58" y="141"/>
      <point x="58" y="81" type="curve" smooth="yes"/>
      <point x="58" y="22"/>
      <point x="94" y="-12"/>
    </contour>
  </outline>
</glyph>
<glyph name="backslash.gujr" format="2">
  <advance width="439"/>
  <unicode hex="005C"/>
  <outline>
    <contour>
      <point x="261" y="-165" type="line"/>
      <point x="408" y="-165" type="line"/>
      <point x="178" y="832" type="line"/>
      <point x="31" y="832" type="line"/>
    </contour>
  </outline>
</glyph>
<glyph name="underscore.gujr" format="2">
  <advance width="303"/>
  <unicode hex="005F"/>
  <outline>
    <contour>
      <point x="0" y="-158" type="line"/>
      <point x="303" y="-158" type="line"/>
      <point x="303" y="-90" type="line"/>
      <point x="0" y="-90" type="line"/>
    </contour>
  </outline>
</glyph>
<glyph name="bar.gujr" format="2">
  <advance width="424"/>
  <unicode hex="007C"/>
  <outline>
    <contour>
      <point x="148" y="832" type="line"/>
      <point x="148" y="-165" type="line"/>
      <point x="276" y="-165" type="line"/>
      <point x="276" y="832" type="line"/>
    </contour>
  </outline>
</glyph>
<glyph name="braceright.gujr" format="2">
  <advance width="394"/>
  <unicode hex="007D"/>
  <outline>
    <contour>
      <point x="48" y="-166" type="line"/>
      <point x="214" y="-166"/>
      <point x="265" y="-115"/>
      <point x="265" y="5" type="curve" smooth="yes"/>
      <point x="265" y="185" type="line" smooth="yes"/>
      <point x="265" y="248"/>
      <point x="305" y="269"/>
      <point x="357" y="269" type="curve"/>
      <point x="357" y="397" type="line"/>
      <point x="303" y="397"/>
      <point x="265" y="420"/>
      <point x="265" y="475" type="curve" smooth="yes"/>
      <point x="265" y="661" type="line" smooth="yes"/>
      <point x="265" y="781"/>
      <point x="214" y="832"/>
      <point x="48" y="832" type="curve"/>
      <point x="48" y="703" type="line"/>
      <point x="107" y="703"/>
      <point x="123" y="688"/>
      <point x="123" y="633" type="curve" smooth="yes"/>
      <point x="123" y="460" type="line" smooth="yes"/>
      <point x="123" y="381"/>
      <point x="163" y="347"/>
      <point x="217" y="336" type="curve"/>
      <point x="217" y="330" type="line"/>
      <point x="161" y="318"/>
      <point x="123" y="284"/>
      <point x="123" y="208" type="curve" smooth="yes"/>
      <point x="123" y="33" type="line" smooth="yes"/>
      <point x="123" y="-22"/>
      <point x="107" y="-37"/>
      <point x="48" y="-37" type="curve"/>
    </contour>
  </outline>
</glyph>
<glyph name="multiply.gujr" format="2">
  <advance width="490"/>
  <unicode hex="00D7"/>
  <outline>
    <contour>
      <point x="122" y="110" type="line"/>
      <point x="245" y="236" type="line"/>
      <point x="367" y="110" type="line"/>
      <point x="457" y="200" type="line"/>
      <point x="331" y="323" type="line"/>
      <point x="457" y="446" type="line"/>
      <point x="367" y="536" type="line"/>
      <point x="245" y="408" type="line"/>
      <point x="122" y="536" type="line"/>
      <point x="32" y="446" type="line"/>
      <point x="158" y="323" type="line"/>
      <point x="32" y="200" type="line"/>
    </contour>
  </outline>
</glyph>
<glyph name="uni0951" format="2">
  <unicode hex="0951"/>
  <outline>
    <contour>
      <point x="-207" y="656" type="line"/>
      <point x="-207" y="896" type="line"/>
      <point x="-302" y="896" type="line"/>
      <point x="-302" y="656" type="line"/>
    </contour>
  </outline>
</glyph>
<glyph name="uni0952" format="2">
  <unicode hex="0952"/>
  <outline>
    <contour>
      <point x="-417" y="-69" type="line"/>
      <point x="-417" y="-172" type="line"/>
      <point x="-93" y="-172" type="line"/>
      <point x="-93" y="-69" type="line"/>
    </contour>
  </outline>
</glyph>
<glyph name="danda.gujr" format="2">
  <advance width="387"/>
  <unicode hex="0964"/>
  <outline>
    <contour>
      <point x="153" y="0" type="line"/>
      <point x="312" y="0" type="line"/>
      <point x="312" y="597" type="line"/>
      <point x="153" y="597" type="line"/>
    </contour>
  </outline>
</glyph>
<glyph name="dbldanda.gujr" format="2">
  <advance width="605"/>
  <unicode hex="0965"/>
  <outline>
    <contour>
      <point x="375" y="0" type="line"/>
      <point x="531" y="0" type="line"/>
      <point x="531" y="597" type="line"/>
      <point x="375" y="597" type="line"/>
    </contour>
    <contour>
      <point x="153" y="0" type="line"/>
      <point x="308" y="0" type="line"/>
      <point x="308" y="597" type="line"/>
      <point x="153" y="597" type="line"/>
    </contour>
  </outline>
</glyph>
<glyph name="candrabindugujr" format="2">
  <unicode hex="0A81"/>
  <outline>
    <contour>
      <point x="-131" y="620" type="curve" smooth="yes"/>
      <point x="-9" y="620"/>
      <point x="63" y="696"/>
      <point x="80" y="798" type="curve"/>
      <point x="-32" y="831" type="line"/>
      <point x="-42" y="767"/>
      <point x="-75" y="730"/>
      <point x="-131" y="730" type="curve" smooth="yes"/>
      <point x="-187" y="730"/>
      <point x="-220" y="767"/>
      <point x="-230" y="831" type="curve"/>
      <point x="-342" y="798" type="line"/>
      <point x="-326" y="696"/>
      <point x="-253" y="620"/>
    </contour>
    <contour>
      <point x="-131" y="756" type="curve" smooth="yes"/>
      <point x="-96" y="756"/>
      <point x="-71" y="784"/>
      <point x="-71" y="826" type="curve" smooth="yes"/>
      <point x="-71" y="868"/>
      <point x="-96" y="896"/>
      <point x="-131" y="896" type="curve" smooth="yes"/>
      <point x="-166" y="896"/>
      <point x="-191" y="868"/>
      <point x="-191" y="826" type="curve" smooth="yes"/>
      <point x="-191" y="784"/>
      <point x="-166" y="756"/>
    </contour>
  </outline>
</glyph>
<glyph name="anusvaragujr" format="2">
  <unicode hex="0A82"/>
  <outline>
    <contour>
      <point x="-129" y="691" type="curve" smooth="yes"/>
      <point x="-77" y="691"/>
      <point x="-48" y="724"/>
      <point x="-48" y="773" type="curve" smooth="yes"/>
      <point x="-48" y="821"/>
      <point x="-77" y="855"/>
      <point x="-129" y="855" type="curve" smooth="yes"/>
      <point x="-182" y="855"/>
      <point x="-211" y="821"/>
      <point x="-211" y="773" type="curve" smooth="yes"/>
      <point x="-211" y="724"/>
      <point x="-182" y="691"/>
    </contour>
  </outline>
</glyph>
<glyph name="visargagujr" format="2">
  <advance width="240"/>
  <unicode hex="0A83"/>
  <outline>
    <contour>
      <point x="120" y="342" type="curve" smooth="yes"/>
      <point x="167" y="342"/>
      <point x="200" y="377"/>
      <point x="200" y="430" type="curve" smooth="yes"/>
      <point x="200" y="483"/>
      <point x="167" y="518"/>
      <point x="120" y="518" type="curve" smooth="yes"/>
      <point x="72" y="518"/>
      <point x="40" y="484"/>
      <point x="40" y="430" type="curve" smooth="yes"/>
      <point x="40" y="376"/>
      <point x="72" y="342"/>
    </contour>
    <contour>
      <point x="120" y="40" type="curve" smooth="yes"/>
      <point x="168" y="40"/>
      <point x="200" y="75"/>
      <point x="200" y="128" type="curve" smooth="yes"/>
      <point x="200" y="181"/>
      <point x="168" y="216"/>
      <point x="120" y="216" type="curve" smooth="yes"/>
      <point x="72" y="216"/>
      <point x="40" y="181"/>
      <point x="40" y="128" type="curve" smooth="yes"/>
      <point x="40" y="75"/>
      <point x="72" y="40"/>
    </contour>
  </outline>
</glyph>
<glyph name="agujr" format="2">
  <advance width="779"/>
  <unicode hex="0A85"/>
  <guideline x="476" y="74" angle="0"/>
  <guideline x="64" y="400" angle="90"/>
  <outline>
    <contour>
      <point x="314" y="90" type="curve" smooth="yes"/>
      <point x="448" y="90"/>
      <point x="522" y="171"/>
      <point x="522" y="319" type="curve" smooth="yes"/>
      <point x="522" y="432" type="line"/>
      <point x="367" y="442" type="line"/>
      <point x="367" y="333" type="line" smooth="yes"/>
      <point x="367" y="292"/>
      <point x="363" y="268"/>
      <point x="353" y="251" type="curve" smooth="yes"/>
      <point x="343" y="234"/>
      <point x="327" y="226"/>
      <point x="300" y="226" type="curve" smooth="yes"/>
      <point x="257" y="226"/>
      <point x="238" y="245"/>
      <point x="216" y="281" type="curve"/>
      <point x="208" y="304" type="line"/>
      <point x="170" y="343"/>
      <point x="138" y="373"/>
      <point x="94" y="373" type="curve" smooth="yes"/>
      <point x="37" y="373"/>
      <point x="15" y="334"/>
      <point x="15" y="293" type="curve" smooth="yes"/>
      <point x="15" y="232"/>
      <point x="68" y="202"/>
      <point x="120" y="202" type="curve" smooth="yes"/>
      <point x="236" y="202"/>
      <point x="331" y="286"/>
      <point x="331" y="414" type="curve" smooth="yes"/>
      <point x="331" y="522"/>
      <point x="262" y="602"/>
      <point x="150" y="602" type="curve" smooth="yes"/>
      <point x="98" y="602"/>
      <point x="59" y="593"/>
      <point x="18" y="576" type="curve"/>
      <point x="60" y="453" type="line"/>
      <point x="78" y="460"/>
      <point x="101" y="464"/>
      <point x="116" y="464" type="curve" smooth="yes"/>
      <point x="152" y="464"/>
      <point x="174" y="440"/>
      <point x="174" y="407" type="curve" smooth="yes"/>
      <point x="174" y="362"/>
      <point x="147" y="345"/>
      <point x="108" y="327" type="curve"/>
      <point x="78" y="237" type="line"/>
      <point x="125" y="161"/>
      <point x="186" y="90"/>
    </contour>
    <contour>
      <point x="541" y="202" type="curve" smooth="yes"/>
      <point x="564" y="202"/>
      <point x="584" y="211"/>
      <point x="603" y="231" type="curve"/>
      <point x="586" y="364" type="line"/>
      <point x="578" y="343"/>
      <point x="563" y="327"/>
      <point x="544" y="327" type="curve" smooth="yes"/>
      <point x="533" y="327"/>
      <point x="527" y="331"/>
      <point x="519" y="338" type="curve"/>
      <point x="453" y="248" type="line"/>
      <point x="475" y="221"/>
      <point x="510" y="202"/>
    </contour>
    <contour>
      <point x="722" y="0" type="curve" smooth="yes"/>
      <point x="763" y="0" type="line"/>
      <point x="769" y="138" type="line"/>
      <point x="755" y="138"/>
      <point x="745" y="140"/>
      <point x="738" y="146" type="curve" smooth="yes"/>
      <point x="730" y="152"/>
      <point x="727" y="163"/>
      <point x="727" y="180" type="curve" smooth="yes"/>
      <point x="727" y="592" type="line"/>
      <point x="568" y="602" type="line"/>
      <point x="568" y="150" type="line" smooth="yes"/>
      <point x="568" y="98"/>
      <point x="582" y="59"/>
      <point x="611" y="34" type="curve" smooth="yes"/>
      <point x="637" y="11"/>
      <point x="674" y="0"/>
    </contour>
  </outline>
</glyph>
<glyph name="aagujr" format="2">
  <advance width="1042"/>
  <unicode hex="0A86"/>
  <outline>
    <contour>
      <point x="314" y="90" type="curve" smooth="yes"/>
      <point x="448" y="90"/>
      <point x="522" y="171"/>
      <point x="522" y="319" type="curve" smooth="yes"/>
      <point x="522" y="432" type="line"/>
      <point x="367" y="442" type="line"/>
      <point x="367" y="333" type="line" smooth="yes"/>
      <point x="367" y="292"/>
      <point x="363" y="268"/>
      <point x="353" y="251" type="curve" smooth="yes"/>
      <point x="343" y="234"/>
      <point x="327" y="226"/>
      <point x="300" y="226" type="curve" smooth="yes"/>
      <point x="257" y="226"/>
      <point x="238" y="245"/>
      <point x="216" y="281" type="curve"/>
      <point x="208" y="304" type="line"/>
      <point x="170" y="343"/>
      <point x="138" y="373"/>
      <point x="94" y="373" type="curve" smooth="yes"/>
      <point x="37" y="373"/>
      <point x="15" y="334"/>
      <point x="15" y="293" type="curve" smooth="yes"/>
      <point x="15" y="232"/>
      <point x="68" y="202"/>
      <point x="120" y="202" type="curve" smooth="yes"/>
      <point x="236" y="202"/>
      <point x="331" y="286"/>
      <point x="331" y="414" type="curve" smooth="yes"/>
      <point x="331" y="521"/>
      <point x="262" y="602"/>
      <point x="150" y="602" type="curve" smooth="yes"/>
      <point x="98" y="602"/>
      <point x="59" y="593"/>
      <point x="18" y="576" type="curve"/>
      <point x="60" y="453" type="line"/>
      <point x="78" y="460"/>
      <point x="101" y="464"/>
      <point x="116" y="464" type="curve" smooth="yes"/>
      <point x="152" y="464"/>
      <point x="174" y="440"/>
      <point x="174" y="407" type="curve" smooth="yes"/>
      <point x="174" y="362"/>
      <point x="147" y="345"/>
      <point x="108" y="327" type="curve"/>
      <point x="78" y="237" type="line"/>
      <point x="125" y="161"/>
      <point x="186" y="90"/>
    </contour>
    <contour>
      <point x="541" y="202" type="curve" smooth="yes"/>
      <point x="564" y="202"/>
      <point x="584" y="211"/>
      <point x="603" y="231" type="curve"/>
      <point x="586" y="364" type="line"/>
      <point x="578" y="343"/>
      <point x="563" y="327"/>
      <point x="544" y="327" type="curve" smooth="yes"/>
      <point x="533" y="327"/>
      <point x="527" y="331"/>
      <point x="519" y="338" type="curve"/>
      <point x="453" y="248" type="line"/>
      <point x="475" y="221"/>
      <point x="510" y="202"/>
    </contour>
    <contour>
      <point x="722" y="0" type="curve" smooth="yes"/>
      <point x="763" y="0" type="line"/>
      <point x="769" y="138" type="line"/>
      <point x="755" y="138"/>
      <point x="745" y="140"/>
      <point x="738" y="146" type="curve" smooth="yes"/>
      <point x="730" y="152"/>
      <point x="727" y="163"/>
      <point x="727" y="180" type="curve" smooth="yes"/>
      <point x="727" y="592" type="line"/>
      <point x="568" y="602" type="line"/>
      <point x="568" y="150" type="line" smooth="yes"/>
      <point x="568" y="98"/>
      <point x="582" y="59"/>
      <point x="611" y="34" type="curve" smooth="yes"/>
      <point x="637" y="11"/>
      <point x="674" y="0"/>
    </contour>
    <contour>
      <point x="985" y="0" type="curve" smooth="yes"/>
      <point x="1026" y="0" type="line"/>
      <point x="1032" y="138" type="line"/>
      <point x="1018" y="138"/>
      <point x="1008" y="140"/>
      <point x="1001" y="146" type="curve" smooth="yes"/>
      <point x="993" y="153"/>
      <point x="990" y="163"/>
      <point x="990" y="180" type="curve" smooth="yes"/>
      <point x="990" y="592" type="line"/>
      <point x="831" y="602" type="line"/>
      <point x="831" y="150" type="line" smooth="yes"/>
      <point x="831" y="98"/>
      <point x="845" y="59"/>
      <point x="874" y="34" type="curve" smooth="yes"/>
      <point x="900" y="11"/>
      <point x="937" y="0"/>
    </contour>
  </outline>
</glyph>
<glyph name="igujr" format="2">
  <advance width="575"/>
  <unicode hex="0A87"/>
  <outline>
    <contour>
      <point x="292" y="-10" type="curve" smooth="yes"/>
      <point x="457" y="-10"/>
      <point x="557" y="85"/>
      <point x="557" y="242" type="curve" smooth="yes"/>
      <point x="557" y="294"/>
      <point x="545" y="348"/>
      <point x="519" y="412" type="curve" smooth="yes"/>
      <point x="491" y="481"/>
      <point x="480" y="513"/>
      <point x="480" y="545" type="curve" smooth="yes"/>
      <point x="480" y="584"/>
      <point x="496" y="608"/>
      <point x="536" y="637" type="curve"/>
      <point x="429" y="757" type="line"/>
      <point x="354" y="708"/>
      <point x="319" y="649"/>
      <point x="319" y="567" type="curve" smooth="yes"/>
      <point x="319" y="518"/>
      <point x="331" y="469"/>
      <point x="359" y="402" type="curve" smooth="yes"/>
      <point x="385" y="340"/>
      <point x="399" y="290"/>
      <point x="399" y="242" type="curve" smooth="yes"/>
      <point x="399" y="170"/>
      <point x="356" y="128"/>
      <point x="285" y="128" type="curve" smooth="yes"/>
      <point x="230" y="128"/>
      <point x="203" y="148"/>
      <point x="203" y="180" type="curve" smooth="yes"/>
      <point x="203" y="212"/>
      <point x="230" y="230"/>
      <point x="267" y="230" type="curve" smooth="yes"/>
      <point x="275" y="230"/>
      <point x="284" y="229"/>
      <point x="290" y="228" type="curve"/>
      <point x="306" y="365" type="line"/>
      <point x="290" y="367"/>
      <point x="274" y="368"/>
      <point x="261" y="368" type="curve" smooth="yes"/>
      <point x="144" y="368"/>
      <point x="47" y="302"/>
      <point x="47" y="194" type="curve" smooth="yes"/>
      <point x="47" y="71"/>
      <point x="145" y="-10"/>
    </contour>
    <contour>
      <point x="102" y="268" type="curve"/>
      <point x="213" y="345" type="line"/>
      <point x="188" y="366"/>
      <point x="174" y="388"/>
      <point x="174" y="415" type="curve" smooth="yes"/>
      <point x="174" y="445"/>
      <point x="194" y="464"/>
      <point x="224" y="464" type="curve" smooth="yes"/>
      <point x="234" y="464"/>
      <point x="242" y="463"/>
      <point x="253" y="461" type="curve"/>
      <point x="274" y="593" type="line"/>
      <point x="247" y="599"/>
      <point x="225" y="602"/>
      <point x="198" y="602" type="curve" smooth="yes"/>
      <point x="90" y="602"/>
      <point x="18" y="545"/>
      <point x="18" y="442" type="curve" smooth="yes"/>
      <point x="18" y="372"/>
      <point x="53" y="313"/>
    </contour>
  </outline>
</glyph>
<glyph name="iigujr" format="2">
  <advance width="575"/>
  <unicode hex="0A88"/>
  <outline>
    <contour>
      <point x="292" y="-10" type="curve" smooth="yes"/>
      <point x="452" y="-10"/>
      <point x="557" y="86"/>
      <point x="557" y="249" type="curve" smooth="yes"/>
      <point x="557" y="344"/>
      <point x="537" y="422"/>
      <point x="493" y="524" type="curve" smooth="yes"/>
      <point x="451" y="622"/>
      <point x="430" y="672"/>
      <point x="430" y="717" type="curve" smooth="yes"/>
      <point x="430" y="744"/>
      <point x="442" y="762"/>
      <point x="464" y="762" type="curve" smooth="yes"/>
      <point x="485" y="762"/>
      <point x="498" y="750"/>
      <point x="517" y="700" type="curve"/>
      <point x="649" y="754" type="line"/>
      <point x="609" y="844"/>
      <point x="546" y="896"/>
      <point x="452" y="896" type="curve" smooth="yes"/>
      <point x="341" y="896"/>
      <point x="269" y="828"/>
      <point x="269" y="719" type="curve" smooth="yes"/>
      <point x="269" y="664"/>
      <point x="292" y="601"/>
      <point x="333" y="500" type="curve" smooth="yes"/>
      <point x="382" y="379"/>
      <point x="399" y="329"/>
      <point x="399" y="255" type="curve" smooth="yes"/>
      <point x="399" y="170"/>
      <point x="350" y="128"/>
      <point x="285" y="128" type="curve" smooth="yes"/>
      <point x="228" y="128"/>
      <point x="203" y="148"/>
      <point x="203" y="180" type="curve" smooth="yes"/>
      <point x="203" y="212"/>
      <point x="230" y="230"/>
      <point x="267" y="230" type="curve" smooth="yes"/>
      <point x="275" y="230"/>
      <point x="284" y="229"/>
      <point x="290" y="228" type="curve"/>
      <point x="306" y="365" type="line"/>
      <point x="290" y="367"/>
      <point x="274" y="368"/>
      <point x="261" y="368" type="curve" smooth="yes"/>
      <point x="144" y="368"/>
      <point x="47" y="302"/>
      <point x="47" y="194" type="curve" smooth="yes"/>
      <point x="47" y="71"/>
      <point x="139" y="-10"/>
    </contour>
    <contour>
      <point x="102" y="268" type="curve"/>
      <point x="213" y="345" type="line"/>
      <point x="188" y="366"/>
      <point x="174" y="388"/>
      <point x="174" y="415" type="curve" smooth="yes"/>
      <point x="174" y="445"/>
      <point x="194" y="464"/>
      <point x="224" y="464" type="curve" smooth="yes"/>
      <point x="234" y="464"/>
      <point x="242" y="463"/>
      <point x="253" y="461" type="curve"/>
      <point x="274" y="593" type="line"/>
      <point x="247" y="599"/>
      <point x="225" y="602"/>
      <point x="198" y="602" type="curve" smooth="yes"/>
      <point x="90" y="602"/>
      <point x="18" y="545"/>
      <point x="18" y="442" type="curve" smooth="yes"/>
      <point x="18" y="372"/>
      <point x="53" y="313"/>
    </contour>
  </outline>
</glyph>
<glyph name="ugujr" format="2">
  <advance width="571"/>
  <unicode hex="0A89"/>
  <outline>
    <contour>
      <point x="328" y="-10" type="curve" smooth="yes"/>
      <point x="469" y="-10"/>
      <point x="551" y="57"/>
      <point x="551" y="168" type="curve" smooth="yes"/>
      <point x="551" y="257"/>
      <point x="508" y="324"/>
      <point x="425" y="373" type="curve"/>
      <point x="353" y="317" type="line"/>
      <point x="353" y="257" type="line"/>
      <point x="378" y="240"/>
      <point x="391" y="213"/>
      <point x="391" y="185" type="curve" smooth="yes"/>
      <point x="391" y="150"/>
      <point x="368" y="128"/>
      <point x="324" y="128" type="curve" smooth="yes"/>
      <point x="243" y="128"/>
      <point x="193" y="203"/>
      <point x="193" y="386" type="curve" smooth="yes"/>
      <point x="193" y="623"/>
      <point x="255" y="705"/>
      <point x="391" y="705" type="curve" smooth="yes"/>
      <point x="417" y="705"/>
      <point x="431" y="704"/>
      <point x="450" y="699" type="curve"/>
      <point x="476" y="839" type="line"/>
      <point x="448" y="845"/>
      <point x="422" y="847"/>
      <point x="388" y="847" type="curve" smooth="yes"/>
      <point x="175" y="847"/>
      <point x="34" y="714"/>
      <point x="34" y="383" type="curve" smooth="yes"/>
      <point x="34" y="142"/>
      <point x="126" y="-10"/>
    </contour>
    <contour>
      <point x="323" y="236" type="line"/>
      <point x="475" y="260"/>
      <point x="549" y="323"/>
      <point x="549" y="433" type="curve" smooth="yes"/>
      <point x="549" y="527"/>
      <point x="482" y="602"/>
      <point x="359" y="602" type="curve" smooth="yes"/>
      <point x="309" y="602"/>
      <point x="276" y="593"/>
      <point x="236" y="580" type="curve"/>
      <point x="277" y="452" type="line"/>
      <point x="299" y="459"/>
      <point x="321" y="464"/>
      <point x="345" y="464" type="curve" smooth="yes"/>
      <point x="375" y="464"/>
      <point x="393" y="450"/>
      <point x="393" y="427" type="curve" smooth="yes"/>
      <point x="393" y="396"/>
      <point x="359" y="383"/>
      <point x="289" y="369" type="curve"/>
    </contour>
  </outline>
</glyph>
<glyph name="uugujr" format="2">
  <advance width="821"/>
  <unicode hex="0A8A"/>
  <outline>
    <contour>
      <point x="333" y="-10" type="curve" smooth="yes"/>
      <point x="469" y="-10"/>
      <point x="551" y="57"/>
      <point x="551" y="168" type="curve" smooth="yes"/>
      <point x="551" y="257"/>
      <point x="508" y="324"/>
      <point x="425" y="373" type="curve"/>
      <point x="353" y="317" type="line"/>
      <point x="353" y="257" type="line"/>
      <point x="378" y="240"/>
      <point x="391" y="213"/>
      <point x="391" y="185" type="curve" smooth="yes"/>
      <point x="391" y="150"/>
      <point x="368" y="128"/>
      <point x="324" y="128" type="curve" smooth="yes"/>
      <point x="241" y="128"/>
      <point x="193" y="213"/>
      <point x="193" y="391" type="curve" smooth="yes"/>
      <point x="193" y="596"/>
      <point x="261" y="705"/>
      <point x="410" y="705" type="curve" smooth="yes"/>
      <point x="515" y="705"/>
      <point x="579" y="623"/>
      <point x="610" y="516" type="curve"/>
      <point x="610" y="150" type="line" smooth="yes"/>
      <point x="610" y="98"/>
      <point x="624" y="59"/>
      <point x="653" y="34" type="curve" smooth="yes"/>
      <point x="679" y="11"/>
      <point x="716" y="0"/>
      <point x="764" y="0" type="curve" smooth="yes"/>
      <point x="805" y="0" type="line"/>
      <point x="811" y="138" type="line"/>
      <point x="797" y="138"/>
      <point x="787" y="140"/>
      <point x="780" y="146" type="curve" smooth="yes"/>
      <point x="772" y="153"/>
      <point x="769" y="163"/>
      <point x="769" y="180" type="curve" smooth="yes"/>
      <point x="769" y="565" type="line"/>
      <point x="718" y="721"/>
      <point x="602" y="847"/>
      <point x="412" y="847" type="curve" smooth="yes"/>
      <point x="183" y="847"/>
      <point x="34" y="696"/>
      <point x="34" y="396" type="curve" smooth="yes"/>
      <point x="34" y="144"/>
      <point x="129" y="-10"/>
    </contour>
    <contour>
      <point x="323" y="236" type="line"/>
      <point x="475" y="260"/>
      <point x="549" y="323"/>
      <point x="549" y="433" type="curve" smooth="yes"/>
      <point x="549" y="527"/>
      <point x="482" y="602"/>
      <point x="359" y="602" type="curve" smooth="yes"/>
      <point x="309" y="602"/>
      <point x="276" y="593"/>
      <point x="236" y="580" type="curve"/>
      <point x="277" y="452" type="line"/>
      <point x="299" y="459"/>
      <point x="321" y="464"/>
      <point x="345" y="464" type="curve" smooth="yes"/>
      <point x="375" y="464"/>
      <point x="393" y="450"/>
      <point x="393" y="427" type="curve" smooth="yes"/>
      <point x="393" y="396"/>
      <point x="359" y="383"/>
      <point x="289" y="369" type="curve"/>
    </contour>
  </outline>
</glyph>
<glyph name="rvocalicgujr" format="2">
  <advance width="800"/>
  <unicode hex="0A8B"/>
  <outline>
    <contour>
      <point x="681" y="46" type="line"/>
      <point x="741" y="88"/>
      <point x="781" y="130"/>
      <point x="781" y="215" type="curve" smooth="yes"/>
      <point x="781" y="288"/>
      <point x="754" y="351"/>
      <point x="702" y="422" type="curve"/>
      <point x="645" y="439" type="line"/>
      <point x="619" y="420"/>
      <point x="598" y="414"/>
      <point x="574" y="414" type="curve" smooth="yes"/>
      <point x="532" y="414"/>
      <point x="496" y="432"/>
      <point x="462" y="471" type="curve"/>
      <point x="448" y="333" type="line"/>
      <point x="485" y="303"/>
      <point x="540" y="283"/>
      <point x="595" y="283" type="curve" smooth="yes"/>
      <point x="684" y="283"/>
      <point x="762" y="335"/>
      <point x="762" y="422" type="curve" smooth="yes"/>
      <point x="762" y="485"/>
      <point x="726" y="528"/>
      <point x="668" y="528" type="curve" smooth="yes"/>
      <point x="613" y="528"/>
      <point x="579" y="493"/>
      <point x="579" y="445" type="curve" smooth="yes"/>
      <point x="579" y="420"/>
      <point x="589" y="392"/>
      <point x="608" y="370" type="curve"/>
      <point x="608" y="335" type="line"/>
      <point x="626" y="303"/>
      <point x="637" y="268"/>
      <point x="637" y="237" type="curve" smooth="yes"/>
      <point x="637" y="204"/>
      <point x="622" y="182"/>
      <point x="592" y="163" type="curve"/>
    </contour>
    <contour>
      <point x="159" y="86" type="line"/>
      <point x="430" y="308" type="line"/>
      <point x="368" y="416" type="line"/>
      <point x="65" y="205" type="line"/>
    </contour>
    <contour>
      <point x="246" y="326" type="curve"/>
      <point x="348" y="396" type="line"/>
      <point x="276" y="509"/>
      <point x="224" y="556"/>
      <point x="125" y="556" type="curve" smooth="yes"/>
      <point x="73" y="556"/>
      <point x="34" y="545"/>
      <point x="2" y="530" type="curve"/>
      <point x="51" y="400" type="line"/>
      <point x="75" y="411"/>
      <point x="97" y="417"/>
      <point x="121" y="417" type="curve" smooth="yes"/>
      <point x="170" y="417"/>
      <point x="202" y="390"/>
    </contour>
    <contour>
      <point x="500" y="0" type="curve" smooth="yes"/>
      <point x="541" y="0" type="line"/>
      <point x="547" y="138" type="line"/>
      <point x="533" y="138"/>
      <point x="523" y="140"/>
      <point x="516" y="146" type="curve" smooth="yes"/>
      <point x="508" y="152"/>
      <point x="505" y="163"/>
      <point x="505" y="180" type="curve" smooth="yes"/>
      <point x="505" y="592" type="line"/>
      <point x="346" y="602" type="line"/>
      <point x="346" y="150" type="line" smooth="yes"/>
      <point x="346" y="98"/>
      <point x="360" y="59"/>
      <point x="389" y="34" type="curve" smooth="yes"/>
      <point x="415" y="11"/>
      <point x="452" y="0"/>
    </contour>
  </outline>
</glyph>
<glyph name="lvocalicgujr" format="2">
  <advance width="662"/>
  <unicode hex="0A8C"/>
  <outline>
    <contour>
      <point x="159" y="10" type="curve"/>
      <point x="269" y="103" type="line"/>
      <point x="194" y="183"/>
      <point x="178" y="226"/>
      <point x="178" y="273" type="curve" smooth="yes"/>
      <point x="178" y="311"/>
      <point x="198" y="334"/>
      <point x="231" y="334" type="curve" smooth="yes"/>
      <point x="260" y="334"/>
      <point x="282" y="320"/>
      <point x="307" y="298" type="curve"/>
      <point x="373" y="403" type="line"/>
      <point x="325" y="446"/>
      <point x="273" y="471"/>
      <point x="206" y="471" type="curve" smooth="yes"/>
      <point x="92" y="471"/>
      <point x="19" y="400"/>
      <point x="19" y="285" type="curve" smooth="yes"/>
      <point x="19" y="198"/>
      <point x="64" y="112"/>
    </contour>
    <contour>
      <point x="576" y="-103" type="curve" smooth="yes"/>
      <point x="627" y="-103"/>
      <point x="667" y="-91"/>
      <point x="698" y="-76" type="curve"/>
      <point x="650" y="48" type="line"/>
      <point x="637" y="40"/>
      <point x="617" y="30"/>
      <point x="581" y="30" type="curve" smooth="yes"/>
      <point x="555" y="30"/>
      <point x="530" y="44"/>
      <point x="530" y="69" type="curve" smooth="yes"/>
      <point x="530" y="100"/>
      <point x="562" y="114"/>
      <point x="601" y="124" type="curve"/>
      <point x="542" y="235" type="line"/>
      <point x="433" y="204"/>
      <point x="373" y="148"/>
      <point x="373" y="62" type="curve" smooth="yes"/>
      <point x="373" y="-35"/>
      <point x="453" y="-103"/>
    </contour>
    <contour>
      <point x="601" y="124" type="line"/>
      <point x="630" y="176"/>
      <point x="643" y="230"/>
      <point x="643" y="282" type="curve" smooth="yes"/>
      <point x="643" y="379"/>
      <point x="575" y="465"/>
      <point x="461" y="465" type="curve" smooth="yes"/>
      <point x="333" y="465"/>
      <point x="264" y="374"/>
      <point x="242" y="240" type="curve"/>
      <point x="383" y="205" type="line"/>
      <point x="398" y="294"/>
      <point x="418" y="334"/>
      <point x="453" y="334" type="curve" smooth="yes"/>
      <point x="476" y="334"/>
      <point x="485" y="315"/>
      <point x="485" y="287" type="curve" smooth="yes"/>
      <point x="485" y="240"/>
      <point x="465" y="195"/>
      <point x="440" y="158" type="curve"/>
    </contour>
    <contour>
      <point x="404" y="408" type="line"/>
      <point x="563" y="408" type="line"/>
      <point x="563" y="592" type="line"/>
      <point x="404" y="602" type="line"/>
    </contour>
  </outline>
</glyph>
<glyph name="kagujr" format="2">
  <advance width="472"/>
  <unicode hex="0A95"/>
  <outline>
    <contour>
      <point x="226" y="-10" type="curve" smooth="yes"/>
      <point x="349" y="-10"/>
      <point x="426" y="49"/>
      <point x="426" y="142" type="curve" smooth="yes"/>
      <point x="426" y="214"/>
      <point x="385" y="267"/>
      <point x="310" y="320" type="curve"/>
      <point x="282" y="375" type="line"/>
      <point x="255" y="390"/>
      <point x="238" y="403"/>
      <point x="238" y="426" type="curve" smooth="yes"/>
      <point x="238" y="449"/>
      <point x="258" y="464"/>
      <point x="294" y="464" type="curve" smooth="yes"/>
      <point x="318" y="464"/>
      <point x="340" y="461"/>
      <point x="360" y="456" type="curve"/>
      <point x="386" y="589" type="line"/>
      <point x="347" y="597"/>
      <point x="311" y="602"/>
      <point x="264" y="602" type="curve" smooth="yes"/>
      <point x="154" y="602"/>
      <point x="79" y="543"/>
      <point x="79" y="453" type="curve" smooth="yes"/>
      <point x="79" y="394"/>
      <point x="110" y="353"/>
      <point x="151" y="320" type="curve"/>
      <point x="184" y="250" type="line"/>
      <point x="244" y="224"/>
      <point x="266" y="197"/>
      <point x="266" y="167" type="curve" smooth="yes"/>
      <point x="266" y="143"/>
      <point x="246" y="128"/>
      <point x="205" y="128" type="curve" smooth="yes"/>
      <point x="154" y="128"/>
      <point x="114" y="145"/>
      <point x="77" y="169" type="curve"/>
      <point x="12" y="50" type="line"/>
      <point x="78" y="9"/>
      <point x="163" y="-10"/>
    </contour>
    <contour>
      <point x="69" y="191" type="line"/>
      <point x="320" y="268" type="line"/>
      <point x="463" y="307" type="line"/>
      <point x="420" y="440" type="line"/>
      <point x="150" y="358" type="line"/>
      <point x="23" y="324" type="line"/>
    </contour>
  </outline>
</glyph>
<glyph name="khagujr" format="2">
  <advance width="669"/>
  <unicode hex="0A96"/>
  <outline>
    <contour>
      <point x="233" y="142" type="curve" smooth="yes"/>
      <point x="354" y="142"/>
      <point x="412" y="209"/>
      <point x="412" y="321" type="curve" smooth="yes"/>
      <point x="412" y="450" type="line"/>
      <point x="257" y="460" type="line"/>
      <point x="257" y="321" type="line" smooth="yes"/>
      <point x="257" y="303"/>
      <point x="255" y="290"/>
      <point x="250" y="283" type="curve" smooth="yes"/>
      <point x="246" y="278"/>
      <point x="241" y="276"/>
      <point x="234" y="276" type="curve" smooth="yes"/>
      <point x="226" y="276"/>
      <point x="221" y="279"/>
      <point x="217" y="284" type="curve" smooth="yes"/>
      <point x="212" y="291"/>
      <point x="210" y="303"/>
      <point x="210" y="321" type="curve" smooth="yes"/>
      <point x="210" y="442" type="line" smooth="yes"/>
      <point x="210" y="494"/>
      <point x="196" y="533"/>
      <point x="167" y="558" type="curve" smooth="yes"/>
      <point x="141" y="581"/>
      <point x="104" y="592"/>
      <point x="56" y="592" type="curve" smooth="yes"/>
      <point x="13" y="592" type="line"/>
      <point x="7" y="454" type="line"/>
      <point x="24" y="454"/>
      <point x="35" y="451"/>
      <point x="42" y="444" type="curve" smooth="yes"/>
      <point x="49" y="437"/>
      <point x="51" y="427"/>
      <point x="51" y="412" type="curve" smooth="yes"/>
      <point x="51" y="325" type="line" smooth="yes"/>
      <point x="51" y="264"/>
      <point x="69" y="217"/>
      <point x="103" y="186" type="curve" smooth="yes"/>
      <point x="134" y="157"/>
      <point x="178" y="142"/>
    </contour>
    <contour>
      <point x="422" y="250" type="curve" smooth="yes"/>
      <point x="453" y="250"/>
      <point x="475" y="261"/>
      <point x="505" y="281" type="curve"/>
      <point x="489" y="422" type="line"/>
      <point x="469" y="391"/>
      <point x="455" y="375"/>
      <point x="436" y="375" type="curve" smooth="yes"/>
      <point x="421" y="375"/>
      <point x="412" y="383"/>
      <point x="401" y="397" type="curve"/>
      <point x="322" y="323" type="line"/>
      <point x="341" y="283"/>
      <point x="377" y="250"/>
    </contour>
    <contour>
      <point x="612" y="0" type="curve" smooth="yes"/>
      <point x="653" y="0" type="line"/>
      <point x="659" y="138" type="line"/>
      <point x="645" y="138"/>
      <point x="635" y="140"/>
      <point x="628" y="146" type="curve" smooth="yes"/>
      <point x="620" y="153"/>
      <point x="617" y="163"/>
      <point x="617" y="180" type="curve" smooth="yes"/>
      <point x="617" y="592" type="line"/>
      <point x="458" y="602" type="line"/>
      <point x="458" y="150" type="line" smooth="yes"/>
      <point x="458" y="98"/>
      <point x="472" y="59"/>
      <point x="501" y="34" type="curve" smooth="yes"/>
      <point x="527" y="11"/>
      <point x="564" y="0"/>
    </contour>
  </outline>
</glyph>
<glyph name="cagujr" format="2">
  <advance width="593"/>
  <unicode hex="0A9A"/>
  <outline>
    <contour>
      <point x="292" y="101" type="curve" smooth="yes"/>
      <point x="331" y="101"/>
      <point x="365" y="111"/>
      <point x="392" y="128" type="curve"/>
      <point x="392" y="305" type="line"/>
      <point x="368" y="263"/>
      <point x="339" y="239"/>
      <point x="294" y="239" type="curve" smooth="yes"/>
      <point x="269" y="239"/>
      <point x="260" y="243"/>
      <point x="244" y="251" type="curve"/>
      <point x="208" y="304" type="line"/>
      <point x="170" y="343"/>
      <point x="138" y="373"/>
      <point x="96" y="373" type="curve" smooth="yes"/>
      <point x="37" y="373"/>
      <point x="15" y="334"/>
      <point x="15" y="293" type="curve" smooth="yes"/>
      <point x="15" y="232"/>
      <point x="68" y="202"/>
      <point x="120" y="202" type="curve" smooth="yes"/>
      <point x="237" y="202"/>
      <point x="333" y="285"/>
      <point x="333" y="414" type="curve" smooth="yes"/>
      <point x="333" y="522"/>
      <point x="262" y="602"/>
      <point x="150" y="602" type="curve" smooth="yes"/>
      <point x="98" y="602"/>
      <point x="59" y="593"/>
      <point x="18" y="576" type="curve"/>
      <point x="60" y="453" type="line"/>
      <point x="78" y="460"/>
      <point x="101" y="464"/>
      <point x="116" y="464" type="curve" smooth="yes"/>
      <point x="152" y="464"/>
      <point x="174" y="440"/>
      <point x="174" y="407" type="curve" smooth="yes"/>
      <point x="174" y="362"/>
      <point x="147" y="345"/>
      <point x="108" y="327" type="curve"/>
      <point x="64" y="274" type="line"/>
      <point x="91" y="224" type="line"/>
      <point x="123" y="170"/>
      <point x="179" y="101"/>
    </contour>
    <contour>
      <point x="536" y="0" type="curve" smooth="yes"/>
      <point x="577" y="0" type="line"/>
      <point x="583" y="138" type="line"/>
      <point x="569" y="138"/>
      <point x="559" y="140"/>
      <point x="552" y="146" type="curve" smooth="yes"/>
      <point x="544" y="153"/>
      <point x="541" y="163"/>
      <point x="541" y="180" type="curve" smooth="yes"/>
      <point x="541" y="592" type="line"/>
      <point x="382" y="602" type="line"/>
      <point x="382" y="150" type="line" smooth="yes"/>
      <point x="382" y="98"/>
      <point x="396" y="59"/>
      <point x="425" y="34" type="curve" smooth="yes"/>
      <point x="451" y="11"/>
      <point x="488" y="0"/>
    </contour>
  </outline>
</glyph>
<glyph name="chagujr" format="2">
  <advance width="659"/>
  <unicode hex="0A9B"/>
  <outline>
    <contour>
      <point x="280" y="-10" type="curve" smooth="yes"/>
      <point x="508" y="-10"/>
      <point x="638" y="168"/>
      <point x="638" y="380" type="curve" smooth="yes"/>
      <point x="638" y="505"/>
      <point x="574" y="602"/>
      <point x="444" y="602" type="curve" smooth="yes"/>
      <point x="342" y="602"/>
      <point x="278" y="543"/>
      <point x="278" y="453" type="curve" smooth="yes"/>
      <point x="278" y="366"/>
      <point x="336" y="289"/>
      <point x="427" y="257" type="curve"/>
      <point x="469" y="377" type="line"/>
      <point x="445" y="390"/>
      <point x="420" y="411"/>
      <point x="420" y="445" type="curve" smooth="yes"/>
      <point x="420" y="460"/>
      <point x="429" y="474"/>
      <point x="444" y="474" type="curve" smooth="yes"/>
      <point x="466" y="474"/>
      <point x="479" y="447"/>
      <point x="479" y="387" type="curve" smooth="yes"/>
      <point x="479" y="250"/>
      <point x="406" y="128"/>
      <point x="284" y="128" type="curve" smooth="yes"/>
      <point x="231" y="128"/>
      <point x="203" y="151"/>
      <point x="203" y="187" type="curve" smooth="yes"/>
      <point x="203" y="218"/>
      <point x="223" y="237"/>
      <point x="255" y="237" type="curve" smooth="yes"/>
      <point x="262" y="237"/>
      <point x="272" y="236"/>
      <point x="278" y="235" type="curve"/>
      <point x="291" y="373" type="line"/>
      <point x="283" y="374"/>
      <point x="271" y="375"/>
      <point x="260" y="375" type="curve" smooth="yes"/>
      <point x="142" y="375"/>
      <point x="44" y="302"/>
      <point x="44" y="187" type="curve" smooth="yes"/>
      <point x="44" y="78"/>
      <point x="118" y="-10"/>
    </contour>
    <contour>
      <point x="120" y="275" type="curve"/>
      <point x="222" y="361" type="line"/>
      <point x="195" y="372"/>
      <point x="176" y="393"/>
      <point x="176" y="419" type="curve" smooth="yes"/>
      <point x="176" y="447"/>
      <point x="197" y="464"/>
      <point x="224" y="464" type="curve" smooth="yes"/>
      <point x="239" y="464"/>
      <point x="251" y="463"/>
      <point x="258" y="461" type="curve"/>
      <point x="277" y="596" type="line"/>
      <point x="260" y="599"/>
      <point x="229" y="602"/>
      <point x="208" y="602" type="curve" smooth="yes"/>
      <point x="95" y="602"/>
      <point x="20" y="536"/>
      <point x="20" y="443" type="curve" smooth="yes"/>
      <point x="20" y="379"/>
      <point x="52" y="326"/>
    </contour>
  </outline>
</glyph>
<glyph name="jagujr" format="2">
  <advance width="748"/>
  <unicode hex="0A9C"/>
  <outline>
    <contour>
      <point x="504" y="-10" type="curve" smooth="yes"/>
      <point x="625" y="-10"/>
      <point x="682" y="64"/>
      <point x="682" y="179" type="curve" smooth="yes"/>
      <point x="682" y="272"/>
      <point x="644" y="355"/>
      <point x="571" y="437" type="curve"/>
      <point x="496" y="539"/>
      <point x="387" y="602"/>
      <point x="247" y="602" type="curve" smooth="yes"/>
      <point x="108" y="602"/>
      <point x="20" y="524"/>
      <point x="20" y="399" type="curve" smooth="yes"/>
      <point x="20" y="294"/>
      <point x="87" y="228"/>
      <point x="186" y="228" type="curve" smooth="yes"/>
      <point x="290" y="228"/>
      <point x="346" y="289"/>
      <point x="346" y="389" type="curve" smooth="yes"/>
      <point x="346" y="438"/>
      <point x="331" y="480"/>
      <point x="310" y="515" type="curve"/>
      <point x="204" y="484" type="line"/>
      <point x="219" y="456"/>
      <point x="225" y="435"/>
      <point x="225" y="403" type="curve" smooth="yes"/>
      <point x="225" y="365"/>
      <point x="213" y="356"/>
      <point x="194" y="356" type="curve" smooth="yes"/>
      <point x="174" y="356"/>
      <point x="163" y="372"/>
      <point x="163" y="403" type="curve" smooth="yes"/>
      <point x="163" y="455"/>
      <point x="202" y="473"/>
      <point x="245" y="473" type="curve" smooth="yes"/>
      <point x="349" y="473"/>
      <point x="410" y="433"/>
      <point x="476" y="348" type="curve"/>
      <point x="516" y="300"/>
      <point x="537" y="240"/>
      <point x="537" y="175" type="curve" smooth="yes"/>
      <point x="537" y="139"/>
      <point x="523" y="122"/>
      <point x="503" y="122" type="curve" smooth="yes"/>
      <point x="483" y="122"/>
      <point x="469" y="138"/>
      <point x="469" y="169" type="curve" smooth="yes"/>
      <point x="469" y="231"/>
      <point x="499" y="273"/>
      <point x="568" y="335" type="curve"/>
      <point x="613" y="379"/>
      <point x="680" y="437"/>
      <point x="751" y="495" type="curve"/>
      <point x="645" y="606" type="line"/>
      <point x="574" y="546"/>
      <point x="520" y="493"/>
      <point x="472" y="442" type="curve"/>
      <point x="359" y="330"/>
      <point x="326" y="251"/>
      <point x="326" y="167" type="curve" smooth="yes"/>
      <point x="326" y="65"/>
      <point x="387" y="-10"/>
    </contour>
  </outline>
</glyph>
<glyph name="jhagujr" format="2">
  <advance width="644"/>
  <unicode hex="0A9D"/>
  <outline>
    <contour>
      <point x="202" y="-10" type="curve" smooth="yes"/>
      <point x="323" y="-10"/>
      <point x="393" y="78"/>
      <point x="393" y="235" type="curve" smooth="yes"/>
      <point x="393" y="394"/>
      <point x="317" y="505"/>
      <point x="176" y="505" type="curve" smooth="yes"/>
      <point x="124" y="505"/>
      <point x="85" y="496"/>
      <point x="49" y="480" type="curve"/>
      <point x="97" y="355" type="line"/>
      <point x="116" y="363"/>
      <point x="134" y="367"/>
      <point x="152" y="367" type="curve" smooth="yes"/>
      <point x="205" y="367"/>
      <point x="233" y="324"/>
      <point x="233" y="238" type="curve" smooth="yes"/>
      <point x="233" y="169"/>
      <point x="216" y="134"/>
      <point x="188" y="134" type="curve" smooth="yes"/>
      <point x="158" y="134"/>
      <point x="145" y="155"/>
      <point x="129" y="195" type="curve"/>
      <point x="9" y="148" type="line"/>
      <point x="40" y="49"/>
      <point x="95" y="-10"/>
    </contour>
    <contour>
      <point x="531" y="-15" type="line"/>
      <point x="588" y="45"/>
      <point x="627" y="126"/>
      <point x="627" y="216" type="curve" smooth="yes"/>
      <point x="627" y="339"/>
      <point x="554" y="426"/>
      <point x="435" y="426" type="curve" smooth="yes"/>
      <point x="383" y="426"/>
      <point x="336" y="411"/>
      <point x="298" y="382" type="curve"/>
      <point x="353" y="265" type="line"/>
      <point x="377" y="288"/>
      <point x="399" y="298"/>
      <point x="420" y="298" type="curve" smooth="yes"/>
      <point x="457" y="298"/>
      <point x="470" y="270"/>
      <point x="470" y="226" type="curve" smooth="yes"/>
      <point x="470" y="175"/>
      <point x="452" y="133"/>
      <point x="414" y="88" type="curve"/>
    </contour>
    <contour>
      <point x="382" y="355" type="line"/>
      <point x="541" y="355" type="line"/>
      <point x="541" y="592" type="line"/>
      <point x="382" y="602" type="line"/>
    </contour>
  </outline>
</glyph>
<glyph name="nyagujr" format="2">
  <advance width="640"/>
  <unicode hex="0A9E"/>
  <outline>
    <contour>
      <point x="194" y="142" type="curve" smooth="yes"/>
      <point x="311" y="142"/>
      <point x="369" y="234"/>
      <point x="369" y="370" type="curve" smooth="yes"/>
      <point x="369" y="506"/>
      <point x="312" y="602"/>
      <point x="175" y="602" type="curve" smooth="yes"/>
      <point x="130" y="602"/>
      <point x="90" y="592"/>
      <point x="57" y="578" type="curve"/>
      <point x="101" y="453" type="line"/>
      <point x="117" y="459"/>
      <point x="133" y="464"/>
      <point x="152" y="464" type="curve" smooth="yes"/>
      <point x="197" y="464"/>
      <point x="214" y="434"/>
      <point x="214" y="370" type="curve" smooth="yes"/>
      <point x="214" y="318"/>
      <point x="204" y="286"/>
      <point x="174" y="286" type="curve" smooth="yes"/>
      <point x="150" y="286"/>
      <point x="138" y="305"/>
      <point x="123" y="353" type="curve"/>
      <point x="3" y="311" type="line"/>
      <point x="31" y="212"/>
      <point x="82" y="142"/>
    </contour>
    <contour>
      <point x="387" y="300" type="curve" smooth="yes"/>
      <point x="423" y="300"/>
      <point x="460" y="318"/>
      <point x="483" y="349" type="curve"/>
      <point x="453" y="474" type="line"/>
      <point x="435" y="448"/>
      <point x="412" y="431"/>
      <point x="379" y="431" type="curve" smooth="yes"/>
      <point x="368" y="431"/>
      <point x="351" y="435"/>
      <point x="333" y="446" type="curve"/>
      <point x="328" y="315" type="line"/>
      <point x="346" y="307"/>
      <point x="367" y="300"/>
    </contour>
    <contour>
      <point x="583" y="0" type="curve" smooth="yes"/>
      <point x="624" y="0" type="line"/>
      <point x="630" y="138" type="line"/>
      <point x="616" y="138"/>
      <point x="606" y="140"/>
      <point x="599" y="146" type="curve" smooth="yes"/>
      <point x="591" y="153"/>
      <point x="588" y="163"/>
      <point x="588" y="180" type="curve" smooth="yes"/>
      <point x="588" y="592" type="line"/>
      <point x="429" y="602" type="line"/>
      <point x="429" y="150" type="line" smooth="yes"/>
      <point x="429" y="98"/>
      <point x="443" y="59"/>
      <point x="472" y="34" type="curve" smooth="yes"/>
      <point x="498" y="11"/>
      <point x="535" y="0"/>
    </contour>
  </outline>
</glyph>
<glyph name="ttagujr" format="2">
  <advance width="431"/>
  <unicode hex="0A9F"/>
  <outline>
    <contour>
      <point x="237" y="-10" type="curve" smooth="yes"/>
      <point x="316" y="-10"/>
      <point x="382" y="9"/>
      <point x="443" y="47" type="curve"/>
      <point x="380" y="178" type="line"/>
      <point x="328" y="145"/>
      <point x="283" y="128"/>
      <point x="238" y="128" type="curve" smooth="yes"/>
      <point x="204" y="128"/>
      <point x="190" y="142"/>
      <point x="190" y="166" type="curve" smooth="yes"/>
      <point x="190" y="192"/>
      <point x="207" y="211"/>
      <point x="268" y="256" type="curve" smooth="yes"/>
      <point x="380" y="339"/>
      <point x="403" y="387"/>
      <point x="403" y="450" type="curve" smooth="yes"/>
      <point x="403" y="537"/>
      <point x="342" y="602"/>
      <point x="222" y="602" type="curve" smooth="yes"/>
      <point x="162" y="602"/>
      <point x="107" y="591"/>
      <point x="57" y="574" type="curve"/>
      <point x="102" y="444" type="line"/>
      <point x="136" y="457"/>
      <point x="170" y="464"/>
      <point x="202" y="464" type="curve" smooth="yes"/>
      <point x="235" y="464"/>
      <point x="246" y="455"/>
      <point x="246" y="438" type="curve" smooth="yes"/>
      <point x="246" y="419"/>
      <point x="232" y="406"/>
      <point x="150" y="349" type="curve" smooth="yes"/>
      <point x="61" y="287"/>
      <point x="25" y="230"/>
      <point x="25" y="160" type="curve" smooth="yes"/>
      <point x="25" y="52"/>
      <point x="104" y="-10"/>
    </contour>
  </outline>
</glyph>
<glyph name="tthagujr" format="2">
  <advance width="459"/>
  <unicode hex="0AA0"/>
  <outline>
    <contour>
      <point x="238" y="-10" type="curve" smooth="yes"/>
      <point x="384" y="-10"/>
      <point x="448" y="62"/>
      <point x="448" y="160" type="curve" smooth="yes"/>
      <point x="448" y="250"/>
      <point x="409" y="296"/>
      <point x="320" y="374" type="curve" smooth="yes"/>
      <point x="273" y="415"/>
      <point x="263" y="424"/>
      <point x="263" y="442" type="curve" smooth="yes"/>
      <point x="263" y="453"/>
      <point x="272" y="464"/>
      <point x="300" y="464" type="curve" smooth="yes"/>
      <point x="324" y="464"/>
      <point x="342" y="461"/>
      <point x="358" y="456" type="curve"/>
      <point x="387" y="592" type="line"/>
      <point x="360" y="598"/>
      <point x="327" y="602"/>
      <point x="291" y="602" type="curve" smooth="yes"/>
      <point x="176" y="602"/>
      <point x="104" y="547"/>
      <point x="104" y="464" type="curve" smooth="yes"/>
      <point x="104" y="402"/>
      <point x="130" y="370"/>
      <point x="169" y="329" type="curve"/>
      <point x="217" y="281" type="line"/>
      <point x="271" y="242"/>
      <point x="290" y="209"/>
      <point x="290" y="177" type="curve" smooth="yes"/>
      <point x="290" y="145"/>
      <point x="269" y="128"/>
      <point x="236" y="128" type="curve" smooth="yes"/>
      <point x="204" y="128"/>
      <point x="183" y="147"/>
      <point x="183" y="186" type="curve" smooth="yes"/>
      <point x="183" y="235"/>
      <point x="217" y="269"/>
      <point x="267" y="269" type="curve" smooth="yes"/>
      <point x="290" y="269"/>
      <point x="307" y="268"/>
      <point x="316" y="266" type="curve"/>
      <point x="318" y="306" type="line"/>
      <point x="223" y="386" type="line"/>
      <point x="96" y="366"/>
      <point x="24" y="289"/>
      <point x="24" y="186" type="curve" smooth="yes"/>
      <point x="24" y="78"/>
      <point x="94" y="-10"/>
    </contour>
  </outline>
</glyph>
<glyph name="ddagujr" format="2">
  <advance width="449"/>
  <unicode hex="0AA1"/>
  <outline>
    <contour>
      <point x="253" y="-10" type="curve" smooth="yes"/>
      <point x="368" y="-10"/>
      <point x="438" y="48"/>
      <point x="438" y="153" type="curve" smooth="yes"/>
      <point x="438" y="233"/>
      <point x="396" y="289"/>
      <point x="307" y="365" type="curve" smooth="yes"/>
      <point x="259" y="406"/>
      <point x="248" y="416"/>
      <point x="248" y="435" type="curve" smooth="yes"/>
      <point x="248" y="453"/>
      <point x="264" y="464"/>
      <point x="294" y="464" type="curve" smooth="yes"/>
      <point x="315" y="464"/>
      <point x="332" y="460"/>
      <point x="347" y="456" type="curve"/>
      <point x="376" y="592" type="line"/>
      <point x="349" y="599"/>
      <point x="319" y="602"/>
      <point x="285" y="602" type="curve" smooth="yes"/>
      <point x="164" y="602"/>
      <point x="89" y="538"/>
      <point x="89" y="447" type="curve" smooth="yes"/>
      <point x="89" y="376"/>
      <point x="126" y="331"/>
      <point x="197" y="270" type="curve" smooth="yes"/>
      <point x="263" y="213"/>
      <point x="276" y="195"/>
      <point x="276" y="166" type="curve" smooth="yes"/>
      <point x="276" y="140"/>
      <point x="261" y="128"/>
      <point x="238" y="128" type="curve" smooth="yes"/>
      <point x="202" y="128"/>
      <point x="170" y="156"/>
      <point x="135" y="224" type="curve"/>
      <point x="10" y="161" type="line"/>
      <point x="55" y="58"/>
      <point x="133" y="-10"/>
    </contour>
  </outline>
</glyph>
<glyph name="ddhagujr" format="2">
  <advance width="471"/>
  <unicode hex="0AA2"/>
  <outline>
    <contour>
      <point x="258" y="-10" type="curve" smooth="yes"/>
      <point x="394" y="-10"/>
      <point x="471" y="50"/>
      <point x="471" y="147" type="curve" smooth="yes"/>
      <point x="471" y="231"/>
      <point x="418" y="279"/>
      <point x="334" y="279" type="curve" smooth="yes"/>
      <point x="256" y="279"/>
      <point x="199" y="233"/>
      <point x="199" y="151" type="curve" smooth="yes"/>
      <point x="199" y="113"/>
      <point x="214" y="68"/>
      <point x="243" y="32" type="curve"/>
      <point x="335" y="56" type="line"/>
      <point x="312" y="86"/>
      <point x="300" y="109"/>
      <point x="300" y="140" type="curve" smooth="yes"/>
      <point x="300" y="168"/>
      <point x="312" y="184"/>
      <point x="330" y="184" type="curve" smooth="yes"/>
      <point x="348" y="184"/>
      <point x="354" y="170"/>
      <point x="354" y="150" type="curve" smooth="yes"/>
      <point x="354" y="116"/>
      <point x="323" y="104"/>
      <point x="274" y="104" type="curve" smooth="yes"/>
      <point x="243" y="104" type="line" smooth="yes"/>
      <point x="202" y="104"/>
      <point x="165" y="124"/>
      <point x="165" y="168" type="curve" smooth="yes"/>
      <point x="165" y="210"/>
      <point x="191" y="234"/>
      <point x="256" y="279" type="curve" smooth="yes"/>
      <point x="304" y="312" type="line" smooth="yes"/>
      <point x="366" y="355"/>
      <point x="398" y="399"/>
      <point x="398" y="461" type="curve" smooth="yes"/>
      <point x="398" y="548"/>
      <point x="337" y="602"/>
      <point x="224" y="602" type="curve" smooth="yes"/>
      <point x="165" y="602"/>
      <point x="118" y="593"/>
      <point x="72" y="578" type="curve"/>
      <point x="116" y="450" type="line"/>
      <point x="151" y="463"/>
      <point x="179" y="469"/>
      <point x="207" y="469" type="curve" smooth="yes"/>
      <point x="231" y="469"/>
      <point x="241" y="463"/>
      <point x="241" y="449" type="curve" smooth="yes"/>
      <point x="241" y="435"/>
      <point x="231" y="428"/>
      <point x="200" y="407" type="curve" smooth="yes"/>
      <point x="144" y="369" type="line" smooth="yes"/>
      <point x="64" y="314"/>
      <point x="24" y="254"/>
      <point x="24" y="177" type="curve" smooth="yes"/>
      <point x="24" y="52"/>
      <point x="113" y="-10"/>
    </contour>
  </outline>
</glyph>
<glyph name="nnagujr" format="2">
  <advance width="798"/>
  <unicode hex="0AA3"/>
  <outline>
    <contour>
      <point x="420" y="-172" type="line"/>
      <point x="457" y="-131"/>
      <point x="489" y="-85"/>
      <point x="489" y="-26" type="curve" smooth="yes"/>
      <point x="489" y="29"/>
      <point x="461" y="68"/>
      <point x="398" y="107" type="curve" smooth="yes"/>
      <point x="254" y="196" type="line" smooth="yes"/>
      <point x="222" y="216"/>
      <point x="204" y="233"/>
      <point x="204" y="277" type="curve" smooth="yes"/>
      <point x="204" y="592" type="line"/>
      <point x="45" y="602" type="line"/>
      <point x="45" y="265" type="line" smooth="yes"/>
      <point x="45" y="179"/>
      <point x="78" y="140"/>
      <point x="142" y="100" type="curve" smooth="yes"/>
      <point x="290" y="8" type="line" smooth="yes"/>
      <point x="316" y="-8"/>
      <point x="323" y="-24"/>
      <point x="323" y="-43" type="curve" smooth="yes"/>
      <point x="323" y="-63"/>
      <point x="311" y="-81"/>
      <point x="300" y="-96" type="curve"/>
    </contour>
    <contour>
      <point x="399" y="184" type="curve" smooth="yes"/>
      <point x="503" y="184"/>
      <point x="553" y="266"/>
      <point x="553" y="391" type="curve" smooth="yes"/>
      <point x="553" y="508"/>
      <point x="494" y="602"/>
      <point x="374" y="602" type="curve" smooth="yes"/>
      <point x="338" y="602"/>
      <point x="299" y="593"/>
      <point x="267" y="578" type="curve"/>
      <point x="309" y="462" type="line"/>
      <point x="323" y="468"/>
      <point x="337" y="472"/>
      <point x="353" y="472" type="curve" smooth="yes"/>
      <point x="390" y="472"/>
      <point x="404" y="442"/>
      <point x="404" y="391" type="curve" smooth="yes"/>
      <point x="404" y="350"/>
      <point x="398" y="322"/>
      <point x="378" y="322" type="curve" smooth="yes"/>
      <point x="359" y="322"/>
      <point x="347" y="343"/>
      <point x="334" y="384" type="curve"/>
      <point x="222" y="342" type="line"/>
      <point x="247" y="256"/>
      <point x="297" y="184"/>
    </contour>
    <contour>
      <point x="741" y="0" type="curve" smooth="yes"/>
      <point x="782" y="0" type="line"/>
      <point x="788" y="138" type="line"/>
      <point x="774" y="138"/>
      <point x="764" y="140"/>
      <point x="757" y="146" type="curve" smooth="yes"/>
      <point x="749" y="153"/>
      <point x="746" y="163"/>
      <point x="746" y="180" type="curve" smooth="yes"/>
      <point x="746" y="592" type="line"/>
      <point x="587" y="602" type="line"/>
      <point x="587" y="150" type="line" smooth="yes"/>
      <point x="587" y="98"/>
      <point x="601" y="59"/>
      <point x="630" y="34" type="curve" smooth="yes"/>
      <point x="656" y="11"/>
      <point x="693" y="0"/>
    </contour>
  </outline>
</glyph>
<glyph name="tagujr" format="2">
  <advance width="512"/>
  <unicode hex="0AA4"/>
  <outline>
    <contour>
      <point x="161" y="-3" type="curve"/>
      <point x="271" y="90" type="line"/>
      <point x="206" y="153"/>
      <point x="178" y="205"/>
      <point x="178" y="255" type="curve" smooth="yes"/>
      <point x="178" y="276"/>
      <point x="185" y="292"/>
      <point x="197" y="304" type="curve" smooth="yes"/>
      <point x="211" y="317"/>
      <point x="230" y="326"/>
      <point x="269" y="326" type="curve" smooth="yes"/>
      <point x="332" y="326" type="line"/>
      <point x="332" y="464" type="line"/>
      <point x="258" y="464" type="line" smooth="yes"/>
      <point x="174" y="464"/>
      <point x="113" y="441"/>
      <point x="77" y="408" type="curve" smooth="yes"/>
      <point x="40" y="375"/>
      <point x="19" y="333"/>
      <point x="19" y="278" type="curve" smooth="yes"/>
      <point x="19" y="180"/>
      <point x="65" y="93"/>
    </contour>
    <contour>
      <point x="455" y="0" type="curve" smooth="yes"/>
      <point x="496" y="0" type="line"/>
      <point x="502" y="138" type="line"/>
      <point x="488" y="138"/>
      <point x="478" y="140"/>
      <point x="471" y="146" type="curve" smooth="yes"/>
      <point x="463" y="153"/>
      <point x="460" y="163"/>
      <point x="460" y="180" type="curve" smooth="yes"/>
      <point x="460" y="592" type="line"/>
      <point x="301" y="602" type="line"/>
      <point x="301" y="150" type="line" smooth="yes"/>
      <point x="301" y="98"/>
      <point x="315" y="59"/>
      <point x="344" y="34" type="curve" smooth="yes"/>
      <point x="370" y="11"/>
      <point x="407" y="0"/>
    </contour>
  </outline>
</glyph>
<glyph name="thagujr" format="2">
  <advance width="595"/>
  <unicode hex="0AA5"/>
  <outline>
    <contour>
      <point x="278" y="115" type="curve" smooth="yes"/>
      <point x="336" y="115"/>
      <point x="383" y="129"/>
      <point x="421" y="156" type="curve"/>
      <point x="421" y="316" type="line"/>
      <point x="384" y="273"/>
      <point x="337" y="249"/>
      <point x="286" y="249" type="curve" smooth="yes"/>
      <point x="243" y="249"/>
      <point x="211" y="265"/>
      <point x="187" y="302" type="curve"/>
      <point x="178" y="251" type="line"/>
      <point x="287" y="289"/>
      <point x="348" y="352"/>
      <point x="348" y="448" type="curve" smooth="yes"/>
      <point x="348" y="535"/>
      <point x="292" y="602"/>
      <point x="185" y="602" type="curve" smooth="yes"/>
      <point x="89" y="602"/>
      <point x="26" y="547"/>
      <point x="26" y="464" type="curve" smooth="yes"/>
      <point x="26" y="423"/>
      <point x="43" y="388"/>
      <point x="65" y="361" type="curve"/>
      <point x="174" y="418" type="line"/>
      <point x="164" y="433"/>
      <point x="159" y="447"/>
      <point x="159" y="461" type="curve" smooth="yes"/>
      <point x="159" y="480"/>
      <point x="169" y="494"/>
      <point x="186" y="494" type="curve" smooth="yes"/>
      <point x="203" y="494"/>
      <point x="211" y="478"/>
      <point x="211" y="457" type="curve" smooth="yes"/>
      <point x="211" y="394"/>
      <point x="145" y="352"/>
      <point x="38" y="317" type="curve"/>
      <point x="68" y="183"/>
      <point x="163" y="115"/>
    </contour>
    <contour>
      <point x="538" y="0" type="curve" smooth="yes"/>
      <point x="579" y="0" type="line"/>
      <point x="585" y="138" type="line"/>
      <point x="571" y="138"/>
      <point x="561" y="140"/>
      <point x="554" y="146" type="curve" smooth="yes"/>
      <point x="546" y="152"/>
      <point x="543" y="163"/>
      <point x="543" y="180" type="curve" smooth="yes"/>
      <point x="543" y="592" type="line"/>
      <point x="384" y="602" type="line"/>
      <point x="384" y="150" type="line" smooth="yes"/>
      <point x="384" y="98"/>
      <point x="398" y="59"/>
      <point x="427" y="34" type="curve" smooth="yes"/>
      <point x="453" y="11"/>
      <point x="490" y="0"/>
    </contour>
  </outline>
</glyph>
<glyph name="dagujr" format="2">
  <advance width="415"/>
  <unicode hex="0AA6"/>
  <outline>
    <contour>
      <point x="257" y="-10" type="curve" smooth="yes"/>
      <point x="361" y="-10"/>
      <point x="417" y="45"/>
      <point x="417" y="119" type="curve" smooth="yes"/>
      <point x="417" y="168"/>
      <point x="389" y="209"/>
      <point x="336" y="209" type="curve" smooth="yes"/>
      <point x="286" y="209"/>
      <point x="255" y="174"/>
      <point x="255" y="129" type="curve" smooth="yes"/>
      <point x="255" y="100"/>
      <point x="265" y="77"/>
      <point x="284" y="55" type="curve"/>
      <point x="284" y="126" type="line"/>
      <point x="276" y="123"/>
      <point x="271" y="122"/>
      <point x="263" y="122" type="curve" smooth="yes"/>
      <point x="231" y="122"/>
      <point x="205" y="145"/>
      <point x="205" y="189" type="curve" smooth="yes"/>
      <point x="205" y="230"/>
      <point x="230" y="255"/>
      <point x="269" y="255" type="curve" smooth="yes"/>
      <point x="278" y="255"/>
      <point x="287" y="254"/>
      <point x="296" y="252" type="curve"/>
      <point x="317" y="387" type="line"/>
      <point x="299" y="391"/>
      <point x="280" y="393"/>
      <point x="261" y="393" type="curve" smooth="yes"/>
      <point x="138" y="393"/>
      <point x="46" y="310"/>
      <point x="46" y="191" type="curve" smooth="yes"/>
      <point x="46" y="74"/>
      <point x="130" y="-10"/>
    </contour>
    <contour>
      <point x="113" y="271" type="curve"/>
      <point x="237" y="353" type="line"/>
      <point x="195" y="375"/>
      <point x="176" y="397"/>
      <point x="176" y="421" type="curve" smooth="yes"/>
      <point x="176" y="448"/>
      <point x="196" y="464"/>
      <point x="231" y="464" type="curve" smooth="yes"/>
      <point x="247" y="464"/>
      <point x="258" y="463"/>
      <point x="273" y="460" type="curve"/>
      <point x="296" y="592" type="line"/>
      <point x="273" y="598"/>
      <point x="242" y="602"/>
      <point x="210" y="602" type="curve" smooth="yes"/>
      <point x="94" y="602"/>
      <point x="20" y="540"/>
      <point x="20" y="442" type="curve" smooth="yes"/>
      <point x="20" y="380"/>
      <point x="51" y="323"/>
    </contour>
  </outline>
</glyph>
<glyph name="nagujr" format="2">
  <advance width="509"/>
  <unicode hex="0AA8"/>
  <outline>
    <contour>
      <point x="452" y="0" type="curve" smooth="yes"/>
      <point x="493" y="0" type="line"/>
      <point x="499" y="138" type="line"/>
      <point x="485" y="138"/>
      <point x="475" y="140"/>
      <point x="468" y="146" type="curve" smooth="yes"/>
      <point x="460" y="153"/>
      <point x="457" y="163"/>
      <point x="457" y="180" type="curve" smooth="yes"/>
      <point x="457" y="592" type="line"/>
      <point x="298" y="602" type="line"/>
      <point x="298" y="150" type="line" smooth="yes"/>
      <point x="298" y="98"/>
      <point x="312" y="59"/>
      <point x="341" y="34" type="curve" smooth="yes"/>
      <point x="367" y="11"/>
      <point x="404" y="0"/>
    </contour>
    <contour>
      <point x="163" y="166" type="curve" smooth="yes"/>
      <point x="205" y="166"/>
      <point x="226" y="188"/>
      <point x="226" y="235" type="curve" smooth="yes"/>
      <point x="226" y="286" type="line"/>
      <point x="340" y="286" type="line"/>
      <point x="340" y="424" type="line"/>
      <point x="105" y="424" type="line" smooth="yes"/>
      <point x="39" y="424"/>
      <point x="13" y="391"/>
      <point x="13" y="344" type="curve" smooth="yes"/>
      <point x="13" y="247"/>
      <point x="103" y="166"/>
    </contour>
  </outline>
</glyph>
<glyph name="phagujr" format="2">
  <advance width="472"/>
  <unicode hex="0AAB"/>
  <outline>
    <contour>
      <point x="337" y="-189" type="curve" smooth="yes"/>
      <point x="354" y="-189" type="line"/>
      <point x="371" y="-55" type="line"/>
      <point x="353" y="-55" type="line" smooth="yes"/>
      <point x="274" y="-55"/>
      <point x="243" y="-32"/>
      <point x="207" y="62" type="curve"/>
      <point x="217" y="69" type="line"/>
      <point x="198" y="123"/>
      <point x="156" y="170"/>
      <point x="99" y="170" type="curve" smooth="yes"/>
      <point x="55" y="170"/>
      <point x="26" y="142"/>
      <point x="26" y="100" type="curve" smooth="yes"/>
      <point x="26" y="50"/>
      <point x="66" y="15"/>
      <point x="115" y="2" type="curve" smooth="yes"/>
      <point x="145" y="-6"/>
      <point x="186" y="-10"/>
      <point x="226" y="-10" type="curve" smooth="yes"/>
      <point x="349" y="-10"/>
      <point x="426" y="49"/>
      <point x="426" y="142" type="curve" smooth="yes"/>
      <point x="426" y="215"/>
      <point x="385" y="267"/>
      <point x="310" y="320" type="curve"/>
      <point x="282" y="375" type="line"/>
      <point x="255" y="390"/>
      <point x="238" y="403"/>
      <point x="238" y="426" type="curve" smooth="yes"/>
      <point x="238" y="449"/>
      <point x="255" y="464"/>
      <point x="292" y="464" type="curve" smooth="yes"/>
      <point x="318" y="464"/>
      <point x="340" y="461"/>
      <point x="360" y="456" type="curve"/>
      <point x="386" y="589" type="line"/>
      <point x="347" y="597"/>
      <point x="311" y="602"/>
      <point x="264" y="602" type="curve" smooth="yes"/>
      <point x="154" y="602"/>
      <point x="79" y="543"/>
      <point x="79" y="453" type="curve" smooth="yes"/>
      <point x="79" y="394"/>
      <point x="110" y="353"/>
      <point x="151" y="320" type="curve"/>
      <point x="184" y="250" type="line"/>
      <point x="244" y="224"/>
      <point x="266" y="197"/>
      <point x="266" y="167" type="curve" smooth="yes"/>
      <point x="266" y="138"/>
      <point x="240" y="120"/>
      <point x="197" y="120" type="curve" smooth="yes"/>
      <point x="173" y="120"/>
      <point x="145" y="127"/>
      <point x="116" y="141" type="curve"/>
      <point x="72" y="54" type="line"/>
      <point x="126" y="-132"/>
      <point x="214" y="-189"/>
    </contour>
    <contour>
      <point x="70" y="193" type="line"/>
      <point x="255" y="252" type="line"/>
      <point x="464" y="309" type="line"/>
      <point x="421" y="443" type="line"/>
      <point x="220" y="380" type="line"/>
      <point x="23" y="327" type="line"/>
    </contour>
  </outline>
</glyph>
<glyph name="bagujr" format="2">
  <advance width="663"/>
  <unicode hex="0AAC"/>
  <outline>
    <contour>
      <point x="217" y="128" type="curve" smooth="yes"/>
      <point x="336" y="128"/>
      <point x="407" y="212"/>
      <point x="407" y="341" type="curve" smooth="yes"/>
      <point x="407" y="414" type="line"/>
      <point x="251" y="424" type="line"/>
      <point x="251" y="337" type="line" smooth="yes"/>
      <point x="251" y="305"/>
      <point x="247" y="285"/>
      <point x="238" y="275" type="curve" smooth="yes"/>
      <point x="233" y="269"/>
      <point x="226" y="266"/>
      <point x="217" y="266" type="curve" smooth="yes"/>
      <point x="195" y="266"/>
      <point x="182" y="291"/>
      <point x="182" y="334" type="curve" smooth="yes"/>
      <point x="182" y="396"/>
      <point x="204" y="452"/>
      <point x="258" y="515" type="curve"/>
      <point x="133" y="602" type="line"/>
      <point x="59" y="526"/>
      <point x="23" y="440"/>
      <point x="23" y="345" type="curve" smooth="yes"/>
      <point x="23" y="212"/>
      <point x="99" y="128"/>
    </contour>
    <contour>
      <point x="420" y="212" type="curve" smooth="yes"/>
      <point x="443" y="212"/>
      <point x="463" y="221"/>
      <point x="482" y="241" type="curve"/>
      <point x="465" y="376" type="line"/>
      <point x="459" y="355"/>
      <point x="446" y="345"/>
      <point x="429" y="345" type="curve" smooth="yes"/>
      <point x="419" y="345"/>
      <point x="413" y="348"/>
      <point x="404" y="355" type="curve"/>
      <point x="332" y="258" type="line"/>
      <point x="354" y="231"/>
      <point x="389" y="212"/>
    </contour>
    <contour>
      <point x="606" y="0" type="curve" smooth="yes"/>
      <point x="647" y="0" type="line"/>
      <point x="653" y="138" type="line"/>
      <point x="639" y="138"/>
      <point x="629" y="140"/>
      <point x="622" y="146" type="curve" smooth="yes"/>
      <point x="614" y="152"/>
      <point x="611" y="163"/>
      <point x="611" y="180" type="curve" smooth="yes"/>
      <point x="611" y="592" type="line"/>
      <point x="452" y="602" type="line"/>
      <point x="452" y="150" type="line" smooth="yes"/>
      <point x="452" y="98"/>
      <point x="466" y="59"/>
      <point x="495" y="34" type="curve" smooth="yes"/>
      <point x="521" y="11"/>
      <point x="558" y="0"/>
    </contour>
  </outline>
</glyph>
<glyph name="bhagujr" format="2">
  <advance width="728"/>
  <unicode hex="0AAD"/>
  <outline>
    <contour>
      <point x="168" y="29" type="curve"/>
      <point x="291" y="114" type="line"/>
      <point x="216" y="201"/>
      <point x="183" y="285"/>
      <point x="183" y="366" type="curve" smooth="yes"/>
      <point x="183" y="430"/>
      <point x="205" y="464"/>
      <point x="245" y="464" type="curve" smooth="yes"/>
      <point x="260" y="464"/>
      <point x="272" y="458"/>
      <point x="280" y="446" type="curve" smooth="yes"/>
      <point x="290" y="431"/>
      <point x="294" y="407"/>
      <point x="294" y="373" type="curve" smooth="yes"/>
      <point x="294" y="338" type="line"/>
      <point x="452" y="338" type="line"/>
      <point x="452" y="378" type="line" smooth="yes"/>
      <point x="452" y="446"/>
      <point x="433" y="500"/>
      <point x="399" y="539" type="curve" smooth="yes"/>
      <point x="363" y="580"/>
      <point x="309" y="602"/>
      <point x="242" y="602" type="curve" smooth="yes"/>
      <point x="112" y="602"/>
      <point x="24" y="511"/>
      <point x="24" y="370" type="curve" smooth="yes"/>
      <point x="24" y="246"/>
      <point x="82" y="132"/>
    </contour>
    <contour>
      <point x="393" y="155" type="curve" smooth="yes"/>
      <point x="433" y="155"/>
      <point x="452" y="176"/>
      <point x="452" y="221" type="curve" smooth="yes"/>
      <point x="452" y="250" type="line"/>
      <point x="558" y="250" type="line"/>
      <point x="558" y="388" type="line"/>
      <point x="317" y="388" type="line" smooth="yes"/>
      <point x="268" y="388"/>
      <point x="234" y="360"/>
      <point x="234" y="319" type="curve" smooth="yes"/>
      <point x="234" y="243"/>
      <point x="319" y="155"/>
    </contour>
    <contour>
      <point x="671" y="0" type="curve" smooth="yes"/>
      <point x="712" y="0" type="line"/>
      <point x="718" y="138" type="line"/>
      <point x="704" y="138"/>
      <point x="694" y="140"/>
      <point x="687" y="146" type="curve" smooth="yes"/>
      <point x="679" y="153"/>
      <point x="676" y="163"/>
      <point x="676" y="180" type="curve" smooth="yes"/>
      <point x="676" y="592" type="line"/>
      <point x="517" y="602" type="line"/>
      <point x="517" y="150" type="line" smooth="yes"/>
      <point x="517" y="98"/>
      <point x="531" y="59"/>
      <point x="560" y="34" type="curve" smooth="yes"/>
      <point x="586" y="11"/>
      <point x="623" y="0"/>
    </contour>
  </outline>
</glyph>
<glyph name="magujr" format="2">
  <advance width="524"/>
  <unicode hex="0AAE"/>
  <outline>
    <contour>
      <point x="467" y="0" type="curve" smooth="yes"/>
      <point x="508" y="0" type="line"/>
      <point x="514" y="138" type="line"/>
      <point x="500" y="138"/>
      <point x="490" y="140"/>
      <point x="483" y="146" type="curve" smooth="yes"/>
      <point x="475" y="153"/>
      <point x="472" y="163"/>
      <point x="472" y="180" type="curve" smooth="yes"/>
      <point x="472" y="592" type="line"/>
      <point x="313" y="602" type="line"/>
      <point x="313" y="150" type="line" smooth="yes"/>
      <point x="313" y="98"/>
      <point x="327" y="59"/>
      <point x="356" y="34" type="curve" smooth="yes"/>
      <point x="382" y="11"/>
      <point x="419" y="0"/>
    </contour>
    <contour>
      <point x="181" y="114" type="curve" smooth="yes"/>
      <point x="221" y="114"/>
      <point x="241" y="135"/>
      <point x="241" y="180" type="curve" smooth="yes"/>
      <point x="241" y="209" type="line"/>
      <point x="348" y="209" type="line"/>
      <point x="348" y="347" type="line"/>
      <point x="107" y="347" type="line" smooth="yes"/>
      <point x="54" y="347"/>
      <point x="22" y="319"/>
      <point x="22" y="278" type="curve" smooth="yes"/>
      <point x="22" y="204"/>
      <point x="105" y="114"/>
    </contour>
    <contour>
      <point x="80" y="279" type="line"/>
      <point x="239" y="279" type="line"/>
      <point x="239" y="442" type="line" smooth="yes"/>
      <point x="239" y="494"/>
      <point x="225" y="533"/>
      <point x="196" y="558" type="curve" smooth="yes"/>
      <point x="170" y="581"/>
      <point x="133" y="592"/>
      <point x="85" y="592" type="curve" smooth="yes"/>
      <point x="42" y="592" type="line"/>
      <point x="36" y="454" type="line"/>
      <point x="53" y="454"/>
      <point x="64" y="451"/>
      <point x="71" y="444" type="curve" smooth="yes"/>
      <point x="78" y="437"/>
      <point x="80" y="427"/>
      <point x="80" y="412" type="curve" smooth="yes"/>
    </contour>
  </outline>
</glyph>
<glyph name="ragujr" format="2">
  <advance width="393"/>
  <unicode hex="0AB0"/>
  <guideline x="56" y="378" angle="90"/>
  <outline>
    <contour>
      <point x="343" y="0" type="curve" smooth="yes"/>
      <point x="378" y="0" type="line"/>
      <point x="388" y="140" type="line"/>
      <point x="371" y="140" type="line" smooth="yes"/>
      <point x="308" y="140"/>
      <point x="272" y="162"/>
      <point x="217" y="248" type="curve"/>
      <point x="213" y="264" type="line"/>
      <point x="169" y="317"/>
      <point x="142" y="335"/>
      <point x="106" y="335" type="curve" smooth="yes"/>
      <point x="54" y="335"/>
      <point x="20" y="303"/>
      <point x="20" y="254" type="curve" smooth="yes"/>
      <point x="20" y="184"/>
      <point x="72" y="153"/>
      <point x="129" y="153" type="curve" smooth="yes"/>
      <point x="270" y="153"/>
      <point x="358" y="271"/>
      <point x="358" y="400" type="curve" smooth="yes"/>
      <point x="358" y="522"/>
      <point x="280" y="602"/>
      <point x="160" y="602" type="curve" smooth="yes"/>
      <point x="114" y="602"/>
      <point x="63" y="590"/>
      <point x="21" y="572" type="curve"/>
      <point x="63" y="449" type="line"/>
      <point x="87" y="459"/>
      <point x="108" y="464"/>
      <point x="128" y="464" type="curve" smooth="yes"/>
      <point x="173" y="464"/>
      <point x="199" y="438"/>
      <point x="199" y="393" type="curve" smooth="yes"/>
      <point x="199" y="347"/>
      <point x="171" y="313"/>
      <point x="117" y="295" type="curve"/>
      <point x="93" y="208" type="line"/>
      <point x="162" y="50"/>
      <point x="247" y="0"/>
    </contour>
  </outline>
</glyph>
<glyph name="lagujr" format="2">
  <advance width="584"/>
  <unicode hex="0AB2"/>
  <outline>
    <contour>
      <point x="265" y="74" type="curve" smooth="yes"/>
      <point x="299" y="74"/>
      <point x="329" y="78"/>
      <point x="359" y="87" type="curve"/>
      <point x="317" y="221" type="line"/>
      <point x="305" y="216"/>
      <point x="289" y="212"/>
      <point x="272" y="212" type="curve" smooth="yes"/>
      <point x="218" y="212"/>
      <point x="181" y="252"/>
      <point x="181" y="313" type="curve" smooth="yes"/>
      <point x="181" y="389"/>
      <point x="231" y="430"/>
      <point x="308" y="452" type="curve"/>
      <point x="264" y="602" type="line"/>
      <point x="113" y="567"/>
      <point x="22" y="464"/>
      <point x="22" y="322" type="curve" smooth="yes"/>
      <point x="22" y="171"/>
      <point x="123" y="74"/>
    </contour>
    <contour>
      <point x="256" y="250" type="line"/>
      <point x="413" y="296" type="line"/>
      <point x="413" y="433" type="line"/>
      <point x="223" y="382" type="line"/>
    </contour>
    <contour>
      <point x="527" y="0" type="curve" smooth="yes"/>
      <point x="568" y="0" type="line"/>
      <point x="574" y="138" type="line"/>
      <point x="560" y="138"/>
      <point x="550" y="140"/>
      <point x="543" y="146" type="curve" smooth="yes"/>
      <point x="535" y="152"/>
      <point x="532" y="163"/>
      <point x="532" y="180" type="curve" smooth="yes"/>
      <point x="532" y="592" type="line"/>
      <point x="373" y="602" type="line"/>
      <point x="373" y="150" type="line" smooth="yes"/>
      <point x="373" y="98"/>
      <point x="387" y="59"/>
      <point x="416" y="34" type="curve" smooth="yes"/>
      <point x="442" y="11"/>
      <point x="479" y="0"/>
    </contour>
  </outline>
</glyph>
<glyph name="llagujr" format="2">
  <advance width="663"/>
  <unicode hex="0AB3"/>
  <outline>
    <contour>
      <point x="606" y="0" type="curve" smooth="yes"/>
      <point x="647" y="0" type="line"/>
      <point x="653" y="138" type="line"/>
      <point x="639" y="138"/>
      <point x="629" y="140"/>
      <point x="622" y="146" type="curve" smooth="yes"/>
      <point x="614" y="153"/>
      <point x="611" y="163"/>
      <point x="611" y="180" type="curve" smooth="yes"/>
      <point x="611" y="375" type="line" smooth="yes"/>
      <point x="611" y="447"/>
      <point x="596" y="501"/>
      <point x="566" y="537" type="curve" smooth="yes"/>
      <point x="536" y="574"/>
      <point x="491" y="592"/>
      <point x="431" y="592" type="curve" smooth="yes"/>
      <point x="373" y="592"/>
      <point x="328" y="574"/>
      <point x="298" y="540" type="curve" smooth="yes"/>
      <point x="266" y="504"/>
      <point x="250" y="448"/>
      <point x="250" y="375" type="curve" smooth="yes"/>
      <point x="250" y="332" type="line" smooth="yes"/>
      <point x="250" y="306"/>
      <point x="247" y="289"/>
      <point x="241" y="279" type="curve" smooth="yes"/>
      <point x="236" y="271"/>
      <point x="229" y="268"/>
      <point x="218" y="268" type="curve" smooth="yes"/>
      <point x="194" y="268"/>
      <point x="181" y="294"/>
      <point x="181" y="340" type="curve" smooth="yes"/>
      <point x="181" y="399"/>
      <point x="207" y="466"/>
      <point x="250" y="522" type="curve"/>
      <point x="121" y="602" type="line"/>
      <point x="60" y="534"/>
      <point x="23" y="440"/>
      <point x="23" y="351" type="curve" smooth="yes"/>
      <point x="23" y="212"/>
      <point x="97" y="130"/>
      <point x="222" y="130" type="curve" smooth="yes"/>
      <point x="280" y="130"/>
      <point x="326" y="148"/>
      <point x="357" y="182" type="curve" smooth="yes"/>
      <point x="389" y="217"/>
      <point x="406" y="269"/>
      <point x="406" y="335" type="curve" smooth="yes"/>
      <point x="406" y="374" type="line" smooth="yes"/>
      <point x="406" y="405"/>
      <point x="407" y="425"/>
      <point x="410" y="437" type="curve" smooth="yes"/>
      <point x="413" y="450"/>
      <point x="419" y="454"/>
      <point x="429" y="454" type="curve" smooth="yes"/>
      <point x="439" y="454"/>
      <point x="445" y="450"/>
      <point x="448" y="437" type="curve" smooth="yes"/>
      <point x="451" y="425"/>
      <point x="452" y="405"/>
      <point x="452" y="374" type="curve" smooth="yes"/>
      <point x="452" y="150" type="line" smooth="yes"/>
      <point x="452" y="98"/>
      <point x="466" y="59"/>
      <point x="495" y="34" type="curve" smooth="yes"/>
      <point x="521" y="11"/>
      <point x="558" y="0"/>
    </contour>
  </outline>
</glyph>
<glyph name="vagujr" format="2">
  <advance width="509"/>
  <unicode hex="0AB5"/>
  <outline>
    <contour>
      <point x="225" y="146" type="curve" smooth="yes"/>
      <point x="260" y="146"/>
      <point x="294" y="153"/>
      <point x="326" y="169" type="curve"/>
      <point x="326" y="333" type="line"/>
      <point x="305" y="301"/>
      <point x="275" y="284"/>
      <point x="244" y="284" type="curve" smooth="yes"/>
      <point x="204" y="284"/>
      <point x="181" y="308"/>
      <point x="181" y="351" type="curve" smooth="yes"/>
      <point x="181" y="393"/>
      <point x="202" y="418"/>
      <point x="237" y="418" type="curve" smooth="yes"/>
      <point x="244" y="418"/>
      <point x="250" y="417"/>
      <point x="254" y="416" type="curve"/>
      <point x="263" y="552" type="line"/>
      <point x="252" y="554"/>
      <point x="231" y="556"/>
      <point x="217" y="556" type="curve" smooth="yes"/>
      <point x="97" y="556"/>
      <point x="23" y="478"/>
      <point x="23" y="356" type="curve" smooth="yes"/>
      <point x="23" y="228"/>
      <point x="103" y="146"/>
    </contour>
    <contour>
      <point x="452" y="0" type="curve" smooth="yes"/>
      <point x="493" y="0" type="line"/>
      <point x="499" y="138" type="line"/>
      <point x="485" y="138"/>
      <point x="475" y="140"/>
      <point x="468" y="146" type="curve" smooth="yes"/>
      <point x="460" y="152"/>
      <point x="457" y="163"/>
      <point x="457" y="180" type="curve" smooth="yes"/>
      <point x="457" y="592" type="line"/>
      <point x="298" y="602" type="line"/>
      <point x="298" y="150" type="line" smooth="yes"/>
      <point x="298" y="98"/>
      <point x="312" y="59"/>
      <point x="341" y="34" type="curve" smooth="yes"/>
      <point x="367" y="11"/>
      <point x="404" y="0"/>
    </contour>
  </outline>
</glyph>
<glyph name="ssagujr" format="2">
  <advance width="500"/>
  <unicode hex="0AB7"/>
  <outline>
    <contour>
      <point x="223" y="149" type="curve" smooth="yes"/>
      <point x="251" y="149"/>
      <point x="275" y="154"/>
      <point x="298" y="165" type="curve"/>
      <point x="298" y="312" type="line"/>
      <point x="276" y="286"/>
      <point x="260" y="279"/>
      <point x="238" y="279" type="curve" smooth="yes"/>
      <point x="229" y="279"/>
      <point x="221" y="281"/>
      <point x="215" y="285" type="curve" smooth="yes"/>
      <point x="207" y="291"/>
      <point x="202" y="300"/>
      <point x="202" y="323" type="curve" smooth="yes"/>
      <point x="202" y="355" type="line" smooth="yes"/>
      <point x="202" y="381"/>
      <point x="200" y="406"/>
      <point x="197" y="423" type="curve"/>
      <point x="167" y="464" type="line"/>
      <point x="185" y="429"/>
      <point x="208" y="389"/>
      <point x="238" y="355" type="curve" smooth="yes"/>
      <point x="301" y="285" type="line"/>
      <point x="343" y="344" type="line"/>
      <point x="319" y="389"/>
      <point x="287" y="432"/>
      <point x="251" y="472" type="curve" smooth="yes"/>
      <point x="209" y="518" type="line" smooth="yes"/>
      <point x="153" y="579"/>
      <point x="113" y="592"/>
      <point x="42" y="592" type="curve" smooth="yes"/>
      <point x="13" y="592" type="line"/>
      <point x="7" y="454" type="line"/>
      <point x="24" y="454"/>
      <point x="35" y="451"/>
      <point x="42" y="444" type="curve" smooth="yes"/>
      <point x="49" y="437"/>
      <point x="51" y="427"/>
      <point x="51" y="412" type="curve" smooth="yes"/>
      <point x="51" y="312" type="line" smooth="yes"/>
      <point x="51" y="261"/>
      <point x="68" y="219"/>
      <point x="99" y="191" type="curve" smooth="yes"/>
      <point x="129" y="164"/>
      <point x="171" y="149"/>
    </contour>
    <contour>
      <point x="443" y="0" type="curve" smooth="yes"/>
      <point x="484" y="0" type="line"/>
      <point x="490" y="138" type="line"/>
      <point x="476" y="138"/>
      <point x="466" y="140"/>
      <point x="459" y="146" type="curve" smooth="yes"/>
      <point x="451" y="153"/>
      <point x="448" y="163"/>
      <point x="448" y="180" type="curve" smooth="yes"/>
      <point x="448" y="592" type="line"/>
      <point x="289" y="602" type="line"/>
      <point x="289" y="150" type="line" smooth="yes"/>
      <point x="289" y="98"/>
      <point x="303" y="59"/>
      <point x="332" y="34" type="curve" smooth="yes"/>
      <point x="358" y="11"/>
      <point x="395" y="0"/>
    </contour>
  </outline>
</glyph>
<glyph name="sagujr" format="2">
  <advance width="636"/>
  <unicode hex="0AB8"/>
  <guideline x="46" y="348" angle="90"/>
  <outline>
    <contour>
      <point x="343" y="0" type="curve" smooth="yes"/>
      <point x="378" y="0" type="line"/>
      <point x="388" y="140" type="line"/>
      <point x="371" y="140" type="line" smooth="yes"/>
      <point x="308" y="140"/>
      <point x="272" y="162"/>
      <point x="217" y="248" type="curve"/>
      <point x="213" y="264" type="line"/>
      <point x="169" y="317"/>
      <point x="142" y="335"/>
      <point x="106" y="335" type="curve" smooth="yes"/>
      <point x="54" y="335"/>
      <point x="20" y="303"/>
      <point x="20" y="254" type="curve" smooth="yes"/>
      <point x="20" y="184"/>
      <point x="72" y="153"/>
      <point x="129" y="153" type="curve" smooth="yes"/>
      <point x="270" y="153"/>
      <point x="355" y="271"/>
      <point x="355" y="400" type="curve" smooth="yes"/>
      <point x="355" y="524"/>
      <point x="280" y="602"/>
      <point x="160" y="602" type="curve" smooth="yes"/>
      <point x="114" y="602"/>
      <point x="63" y="590"/>
      <point x="21" y="572" type="curve"/>
      <point x="63" y="449" type="line"/>
      <point x="87" y="459"/>
      <point x="108" y="464"/>
      <point x="128" y="464" type="curve" smooth="yes"/>
      <point x="174" y="464"/>
      <point x="199" y="438"/>
      <point x="199" y="393" type="curve" smooth="yes"/>
      <point x="199" y="347"/>
      <point x="171" y="314"/>
      <point x="117" y="296" type="curve"/>
      <point x="93" y="208" type="line"/>
      <point x="162" y="50"/>
      <point x="247" y="0"/>
    </contour>
    <contour>
      <point x="371" y="251" type="curve" smooth="yes"/>
      <point x="413" y="251"/>
      <point x="452" y="263"/>
      <point x="485" y="291" type="curve"/>
      <point x="461" y="415" type="line"/>
      <point x="439" y="399"/>
      <point x="409" y="383"/>
      <point x="376" y="383" type="curve" smooth="yes"/>
      <point x="348" y="383"/>
      <point x="327" y="390"/>
      <point x="308" y="405" type="curve"/>
      <point x="275" y="276" type="line"/>
      <point x="302" y="255"/>
      <point x="334" y="251"/>
    </contour>
    <contour>
      <point x="579" y="0" type="curve" smooth="yes"/>
      <point x="620" y="0" type="line"/>
      <point x="626" y="138" type="line"/>
      <point x="612" y="138"/>
      <point x="602" y="140"/>
      <point x="595" y="146" type="curve" smooth="yes"/>
      <point x="587" y="153"/>
      <point x="584" y="163"/>
      <point x="584" y="180" type="curve" smooth="yes"/>
      <point x="584" y="592" type="line"/>
      <point x="425" y="602" type="line"/>
      <point x="425" y="150" type="line" smooth="yes"/>
      <point x="425" y="98"/>
      <point x="439" y="59"/>
      <point x="468" y="34" type="curve" smooth="yes"/>
      <point x="494" y="11"/>
      <point x="531" y="0"/>
    </contour>
  </outline>
</glyph>
<glyph name="hagujr" format="2">
  <advance width="538"/>
  <unicode hex="0AB9"/>
  <outline>
    <contour>
      <point x="361" y="-10" type="curve" smooth="yes"/>
      <point x="430" y="-10"/>
      <point x="493" y="2"/>
      <point x="541" y="23" type="curve"/>
      <point x="491" y="157" type="line"/>
      <point x="451" y="138"/>
      <point x="418" y="130"/>
      <point x="370" y="130" type="curve" smooth="yes"/>
      <point x="256" y="130"/>
      <point x="187" y="186"/>
      <point x="187" y="292" type="curve" smooth="yes"/>
      <point x="187" y="333"/>
      <point x="194" y="376"/>
      <point x="210" y="415" type="curve"/>
      <point x="55" y="461" type="line"/>
      <point x="35" y="409"/>
      <point x="25" y="358"/>
      <point x="25" y="304" type="curve" smooth="yes"/>
      <point x="25" y="112"/>
      <point x="157" y="-10"/>
    </contour>
    <contour>
      <point x="373" y="159" type="curve" smooth="yes"/>
      <point x="461" y="159"/>
      <point x="515" y="207"/>
      <point x="515" y="283" type="curve" smooth="yes"/>
      <point x="515" y="332"/>
      <point x="491" y="378"/>
      <point x="413" y="441" type="curve" smooth="yes"/>
      <point x="394" y="456"/>
      <point x="388" y="462"/>
      <point x="388" y="471" type="curve" smooth="yes"/>
      <point x="388" y="480"/>
      <point x="396" y="484"/>
      <point x="413" y="484" type="curve" smooth="yes"/>
      <point x="429" y="484"/>
      <point x="444" y="480"/>
      <point x="453" y="477" type="curve"/>
      <point x="470" y="592" type="line"/>
      <point x="451" y="598"/>
      <point x="428" y="602"/>
      <point x="398" y="602" type="curve" smooth="yes"/>
      <point x="299" y="602"/>
      <point x="242" y="554"/>
      <point x="242" y="482" type="curve" smooth="yes"/>
      <point x="242" y="434"/>
      <point x="269" y="400"/>
      <point x="330" y="345" type="curve" smooth="yes"/>
      <point x="361" y="317"/>
      <point x="369" y="306"/>
      <point x="369" y="293" type="curve" smooth="yes"/>
      <point x="369" y="283"/>
      <point x="364" y="278"/>
      <point x="354" y="278" type="curve" smooth="yes"/>
      <point x="339" y="278"/>
      <point x="317" y="292"/>
      <point x="292" y="330" type="curve"/>
      <point x="201" y="273" type="line"/>
      <point x="233" y="205"/>
      <point x="300" y="159"/>
    </contour>
  </outline>
</glyph>
<glyph name="nuktagujr" format="2">
  <unicode hex="0ABC"/>
  <outline>
    <contour>
      <point x="-219" y="-215" type="curve" smooth="yes"/>
      <point x="-171" y="-215"/>
      <point x="-144" y="-183"/>
      <point x="-144" y="-134" type="curve" smooth="yes"/>
      <point x="-144" y="-85"/>
      <point x="-171" y="-52"/>
      <point x="-219" y="-52" type="curve" smooth="yes"/>
      <point x="-268" y="-52"/>
      <point x="-295" y="-85"/>
      <point x="-295" y="-134" type="curve" smooth="yes"/>
      <point x="-295" y="-183"/>
      <point x="-268" y="-215"/>
    </contour>
  </outline>
</glyph>
<glyph name="avagrahagujr" format="2">
  <advance width="426"/>
  <unicode hex="0ABD"/>
  <outline>
    <contour>
      <point x="234" y="26" type="curve" smooth="yes"/>
      <point x="337" y="26"/>
      <point x="406" y="84"/>
      <point x="406" y="177" type="curve" smooth="yes"/>
      <point x="406" y="243"/>
      <point x="376" y="294"/>
      <point x="306" y="362" type="curve" smooth="yes"/>
      <point x="263" y="403"/>
      <point x="253" y="416"/>
      <point x="253" y="432" type="curve" smooth="yes"/>
      <point x="253" y="439"/>
      <point x="255" y="444"/>
      <point x="259" y="448" type="curve" smooth="yes"/>
      <point x="263" y="452"/>
      <point x="269" y="454"/>
      <point x="280" y="454" type="curve" smooth="yes"/>
      <point x="391" y="454" type="line"/>
      <point x="391" y="592" type="line"/>
      <point x="290" y="592" type="line" smooth="yes"/>
      <point x="235" y="592"/>
      <point x="200" y="587"/>
      <point x="164" y="567" type="curve" smooth="yes"/>
      <point x="124" y="545"/>
      <point x="97" y="507"/>
      <point x="97" y="453" type="curve" smooth="yes"/>
      <point x="97" y="403"/>
      <point x="118" y="360"/>
      <point x="175" y="305" type="curve" smooth="yes"/>
      <point x="241" y="242"/>
      <point x="250" y="222"/>
      <point x="250" y="198" type="curve" smooth="yes"/>
      <point x="250" y="178"/>
      <point x="235" y="164"/>
      <point x="215" y="164" type="curve" smooth="yes"/>
      <point x="177" y="164"/>
      <point x="155" y="192"/>
      <point x="125" y="253" type="curve"/>
      <point x="2" y="191" type="line"/>
      <point x="51" y="76"/>
      <point x="133" y="26"/>
    </contour>
  </outline>
</glyph>
<glyph name="aavowelsigngujr" format="2">
  <advance width="263"/>
  <unicode hex="0ABE"/>
  <outline>
    <contour>
      <point x="206" y="0" type="curve" smooth="yes"/>
      <point x="247" y="0" type="line"/>
      <point x="253" y="138" type="line"/>
      <point x="239" y="138"/>
      <point x="229" y="140"/>
      <point x="222" y="146" type="curve" smooth="yes"/>
      <point x="214" y="152"/>
      <point x="211" y="163"/>
      <point x="211" y="180" type="curve" smooth="yes"/>
      <point x="211" y="593" type="line"/>
      <point x="52" y="603" type="line"/>
      <point x="52" y="150" type="line" smooth="yes"/>
      <point x="52" y="98"/>
      <point x="66" y="59"/>
      <point x="95" y="34" type="curve" smooth="yes"/>
      <point x="121" y="11"/>
      <point x="158" y="0"/>
    </contour>
  </outline>
</glyph>
<glyph name="iivowelsigngujr" format="2">
  <advance width="263"/>
  <unicode hex="0AC0"/>
  <outline>
    <contour>
      <point x="206" y="0" type="curve" smooth="yes"/>
      <point x="247" y="0" type="line"/>
      <point x="253" y="138" type="line"/>
      <point x="239" y="138"/>
      <point x="229" y="140"/>
      <point x="222" y="146" type="curve" smooth="yes"/>
      <point x="214" y="153"/>
      <point x="211" y="163"/>
      <point x="211" y="180" type="curve" smooth="yes"/>
      <point x="211" y="593" type="line"/>
      <point x="198" y="765"/>
      <point x="115" y="896"/>
      <point x="-29" y="896" type="curve" smooth="yes"/>
      <point x="-146" y="896"/>
      <point x="-217" y="828"/>
      <point x="-217" y="726" type="curve" smooth="yes"/>
      <point x="-217" y="703"/>
      <point x="-216" y="679"/>
      <point x="-212" y="654" type="curve"/>
      <point x="-58" y="650" type="line"/>
      <point x="-60" y="664"/>
      <point x="-61" y="690"/>
      <point x="-61" y="703" type="curve" smooth="yes"/>
      <point x="-61" y="737"/>
      <point x="-51" y="760"/>
      <point x="-24" y="760" type="curve" smooth="yes"/>
      <point x="17" y="760"/>
      <point x="41" y="703"/>
      <point x="52" y="581" type="curve"/>
      <point x="52" y="150" type="line" smooth="yes"/>
      <point x="52" y="98"/>
      <point x="66" y="59"/>
      <point x="95" y="34" type="curve" smooth="yes"/>
      <point x="121" y="11"/>
      <point x="158" y="0"/>
    </contour>
  </outline>
</glyph>
<glyph name="uvowelsigngujr" format="2">
  <unicode hex="0AC1"/>
  <outline>
    <contour>
      <point x="-165" y="-270" type="curve" smooth="yes"/>
      <point x="-45" y="-270"/>
      <point x="17" y="-207"/>
      <point x="17" y="-116" type="curve" smooth="yes"/>
      <point x="17" y="-18"/>
      <point x="-49" y="39"/>
      <point x="-151" y="39" type="curve" smooth="yes"/>
      <point x="-193" y="39"/>
      <point x="-232" y="30"/>
      <point x="-258" y="21" type="curve"/>
      <point x="-225" y="-87" type="line"/>
      <point x="-211" y="-82"/>
      <point x="-190" y="-76"/>
      <point x="-166" y="-76" type="curve" smooth="yes"/>
      <point x="-129" y="-76"/>
      <point x="-119" y="-92"/>
      <point x="-119" y="-111" type="curve" smooth="yes"/>
      <point x="-119" y="-135"/>
      <point x="-140" y="-148"/>
      <point x="-169" y="-148" type="curve" smooth="yes"/>
      <point x="-220" y="-148"/>
      <point x="-261" y="-123"/>
      <point x="-308" y="-32" type="curve"/>
      <point x="-427" y="-82" type="line"/>
      <point x="-375" y="-191"/>
      <point x="-293" y="-270"/>
    </contour>
  </outline>
</glyph>
<glyph name="uuvowelsigngujr" format="2">
  <unicode hex="0AC2"/>
  <outline>
    <contour>
      <point x="-152" y="-270" type="curve" smooth="yes"/>
      <point x="-117" y="-270"/>
      <point x="-77" y="-264"/>
      <point x="-54" y="-254" type="curve"/>
      <point x="-91" y="-138" type="line"/>
      <point x="-105" y="-144"/>
      <point x="-127" y="-148"/>
      <point x="-144" y="-148" type="curve" smooth="yes"/>
      <point x="-172" y="-148"/>
      <point x="-189" y="-137"/>
      <point x="-189" y="-112" type="curve" smooth="yes"/>
      <point x="-189" y="-93"/>
      <point x="-177" y="-77"/>
      <point x="-139" y="-77" type="curve" smooth="yes"/>
      <point x="-76" y="-77"/>
      <point x="-35" y="-126"/>
      <point x="7" y="-215" type="curve"/>
      <point x="125" y="-174" type="line"/>
      <point x="57" y="-19"/>
      <point x="-33" y="39"/>
      <point x="-137" y="39" type="curve" smooth="yes"/>
      <point x="-246" y="39"/>
      <point x="-325" y="-15"/>
      <point x="-325" y="-112" type="curve" smooth="yes"/>
      <point x="-325" y="-219"/>
      <point x="-251" y="-270"/>
    </contour>
  </outline>
</glyph>
<glyph name="rvocalicvowelsigngujr" format="2">
  <unicode hex="0AC3"/>
  <outline>
    <contour>
      <point x="53" y="-239" type="curve"/>
      <point x="8" y="-124" type="line"/>
      <point x="-16" y="-137"/>
      <point x="-38" y="-144"/>
      <point x="-63" y="-144" type="curve" smooth="yes"/>
      <point x="-92" y="-144"/>
      <point x="-110" y="-131"/>
      <point x="-110" y="-108" type="curve" smooth="yes"/>
      <point x="-110" y="-85"/>
      <point x="-90" y="-70"/>
      <point x="-52" y="-65" type="curve"/>
      <point x="-52" y="49" type="line"/>
      <point x="-177" y="46"/>
      <point x="-256" y="-17"/>
      <point x="-256" y="-110" type="curve" smooth="yes"/>
      <point x="-256" y="-207"/>
      <point x="-178" y="-270"/>
      <point x="-70" y="-270" type="curve" smooth="yes"/>
      <point x="-22" y="-270"/>
      <point x="17" y="-258"/>
    </contour>
  </outline>
</glyph>
<glyph name="rrvocalicvowelsigngujr" format="2">
  <unicode hex="0AC4"/>
  <outline>
    <contour>
      <point x="-20" y="-408" type="curve" smooth="yes"/>
      <point x="29" y="-408"/>
      <point x="68" y="-398"/>
      <point x="105" y="-381" type="curve"/>
      <point x="60" y="-266" type="line"/>
      <point x="35" y="-280"/>
      <point x="12" y="-288"/>
      <point x="-15" y="-288" type="curve" smooth="yes"/>
      <point x="-43" y="-288"/>
      <point x="-60" y="-278"/>
      <point x="-60" y="-257" type="curve" smooth="yes"/>
      <point x="-60" y="-248"/>
      <point x="-57" y="-239"/>
      <point x="-50" y="-234" type="curve"/>
      <point x="-98" y="-241" type="line"/>
      <point x="-86" y="-245"/>
      <point x="-76" y="-246"/>
      <point x="-65" y="-246" type="curve" smooth="yes"/>
      <point x="-16" y="-246"/>
      <point x="23" y="-236"/>
      <point x="60" y="-221" type="curve"/>
      <point x="15" y="-108" type="line"/>
      <point x="-9" y="-121"/>
      <point x="-34" y="-128"/>
      <point x="-60" y="-128" type="curve" smooth="yes"/>
      <point x="-88" y="-128"/>
      <point x="-105" y="-118"/>
      <point x="-105" y="-99" type="curve" smooth="yes"/>
      <point x="-105" y="-79"/>
      <point x="-86" y="-68"/>
      <point x="-52" y="-65" type="curve"/>
      <point x="-52" y="49" type="line"/>
      <point x="-178" y="46"/>
      <point x="-251" y="-12"/>
      <point x="-251" y="-99" type="curve" smooth="yes"/>
      <point x="-251" y="-153"/>
      <point x="-222" y="-193"/>
      <point x="-174" y="-217" type="curve"/>
      <point x="-174" y="-176" type="line"/>
      <point x="-195" y="-199"/>
      <point x="-206" y="-226"/>
      <point x="-206" y="-257" type="curve" smooth="yes"/>
      <point x="-206" y="-349"/>
      <point x="-128" y="-408"/>
    </contour>
  </outline>
</glyph>
<glyph name="ecandravowelsigngujr" format="2">
  <unicode hex="0AC5"/>
  <outline>
    <contour>
      <point x="-106" y="631" type="curve" smooth="yes"/>
      <point x="-75" y="631"/>
      <point x="-48" y="636"/>
      <point x="-24" y="647" type="curve"/>
      <point x="-63" y="774" type="line"/>
      <point x="-78" y="768"/>
      <point x="-93" y="765"/>
      <point x="-111" y="765" type="curve" smooth="yes"/>
      <point x="-168" y="765"/>
      <point x="-209" y="799"/>
      <point x="-268" y="896" type="curve"/>
      <point x="-377" y="835" type="line"/>
      <point x="-299" y="701"/>
      <point x="-213" y="631"/>
    </contour>
  </outline>
</glyph>
<glyph name="evowelsigngujr" format="2">
  <unicode hex="0AC7"/>
  <outline>
    <contour>
      <point x="-206" y="628" type="curve"/>
      <point x="-63" y="628" type="line"/>
      <point x="-95" y="835"/>
      <point x="-165" y="896"/>
      <point x="-281" y="896" type="curve" smooth="yes"/>
      <point x="-309" y="896"/>
      <point x="-341" y="891"/>
      <point x="-364" y="884" type="curve"/>
      <point x="-335" y="757" type="line"/>
      <point x="-323" y="760"/>
      <point x="-309" y="762"/>
      <point x="-296" y="762" type="curve" smooth="yes"/>
      <point x="-250" y="762"/>
      <point x="-215" y="730"/>
    </contour>
  </outline>
</glyph>
<glyph name="aivowelsigngujr" format="2">
  <unicode hex="0AC8"/>
  <outline>
    <contour>
      <point x="-179" y="631" type="curve"/>
      <point x="-55" y="631" type="line"/>
      <point x="-86" y="829"/>
      <point x="-132" y="896"/>
      <point x="-258" y="896" type="curve" smooth="yes"/>
      <point x="-283" y="896"/>
      <point x="-312" y="892"/>
      <point x="-336" y="885" type="curve"/>
      <point x="-307" y="774" type="line"/>
      <point x="-297" y="777"/>
      <point x="-283" y="779"/>
      <point x="-271" y="779" type="curve" smooth="yes"/>
      <point x="-222" y="779"/>
      <point x="-196" y="749"/>
    </contour>
    <contour>
      <point x="-235" y="607" type="curve"/>
      <point x="-177" y="671" type="line"/>
      <point x="-254" y="744"/>
      <point x="-295" y="777"/>
      <point x="-366" y="777" type="curve" smooth="yes"/>
      <point x="-397" y="777"/>
      <point x="-422" y="772"/>
      <point x="-442" y="766" type="curve"/>
      <point x="-407" y="658" type="line"/>
      <point x="-390" y="663"/>
      <point x="-370" y="666"/>
      <point x="-351" y="666" type="curve" smooth="yes"/>
      <point x="-312" y="666"/>
      <point x="-287" y="651"/>
    </contour>
  </outline>
</glyph>
<glyph name="viramagujr" format="2">
  <unicode hex="0ACD"/>
  <outline>
    <contour>
      <point x="-6" y="-270" type="curve"/>
      <point x="104" y="-214" type="line"/>
      <point x="36" y="-90"/>
      <point x="-24" y="-39"/>
      <point x="-134" y="-39" type="curve" smooth="yes"/>
      <point x="-164" y="-39"/>
      <point x="-189" y="-43"/>
      <point x="-208" y="-49" type="curve"/>
      <point x="-182" y="-174" type="line"/>
      <point x="-169" y="-171"/>
      <point x="-154" y="-169"/>
      <point x="-137" y="-169" type="curve" smooth="yes"/>
      <point x="-81" y="-169"/>
      <point x="-50" y="-195"/>
    </contour>
  </outline>
</glyph>
<glyph name="omgujr" format="2">
  <advance width="807"/>
  <unicode hex="0AD0"/>
  <outline>
    <contour>
      <point x="231" y="-10" type="curve" smooth="yes"/>
      <point x="337" y="-10"/>
      <point x="406" y="58"/>
      <point x="406" y="158" type="curve" smooth="yes"/>
      <point x="406" y="186"/>
      <point x="400" y="214"/>
      <point x="389" y="240" type="curve"/>
      <point x="354" y="217" type="line"/>
      <point x="373" y="207"/>
      <point x="398" y="200"/>
      <point x="425" y="200" type="curve" smooth="yes"/>
      <point x="472" y="200"/>
      <point x="509" y="232"/>
      <point x="535" y="284" type="curve" smooth="yes"/>
      <point x="568" y="349" type="line" smooth="yes"/>
      <point x="580" y="373"/>
      <point x="590" y="390"/>
      <point x="607" y="390" type="curve" smooth="yes"/>
      <point x="624" y="390"/>
      <point x="633" y="368"/>
      <point x="633" y="328" type="curve" smooth="yes"/>
      <point x="633" y="281"/>
      <point x="614" y="262"/>
      <point x="593" y="262" type="curve" smooth="yes"/>
      <point x="580" y="262"/>
      <point x="570" y="266"/>
      <point x="559" y="275" type="curve"/>
      <point x="486" y="174" type="line"/>
      <point x="520" y="144"/>
      <point x="566" y="126"/>
      <point x="616" y="126" type="curve" smooth="yes"/>
      <point x="719" y="126"/>
      <point x="789" y="203"/>
      <point x="789" y="323" type="curve" smooth="yes"/>
      <point x="789" y="443"/>
      <point x="735" y="528"/>
      <point x="610" y="528" type="curve" smooth="yes"/>
      <point x="540" y="528"/>
      <point x="486" y="498"/>
      <point x="438" y="408" type="curve" smooth="yes"/>
      <point x="417" y="368" type="line" smooth="yes"/>
      <point x="396" y="329"/>
      <point x="380" y="313"/>
      <point x="365" y="313" type="curve" smooth="yes"/>
      <point x="361" y="313"/>
      <point x="355" y="313"/>
      <point x="351" y="314" type="curve"/>
      <point x="350" y="315"/>
      <point x="348" y="317"/>
      <point x="347" y="318" type="curve"/>
      <point x="377" y="348"/>
      <point x="397" y="390"/>
      <point x="397" y="436" type="curve" smooth="yes"/>
      <point x="397" y="530"/>
      <point x="329" y="602"/>
      <point x="210" y="602" type="curve" smooth="yes"/>
      <point x="165" y="602"/>
      <point x="115" y="592"/>
      <point x="74" y="577" type="curve"/>
      <point x="115" y="448" type="line"/>
      <point x="142" y="457"/>
      <point x="169" y="464"/>
      <point x="195" y="464" type="curve" smooth="yes"/>
      <point x="225" y="464"/>
      <point x="241" y="451"/>
      <point x="241" y="431" type="curve" smooth="yes"/>
      <point x="241" y="401"/>
      <point x="206" y="385"/>
      <point x="142" y="377" type="curve"/>
      <point x="171" y="239" type="line"/>
      <point x="187" y="242"/>
      <point x="202" y="245"/>
      <point x="216" y="248" type="curve"/>
      <point x="237" y="222"/>
      <point x="248" y="195"/>
      <point x="248" y="168" type="curve" smooth="yes"/>
      <point x="248" y="142"/>
      <point x="233" y="128"/>
      <point x="209" y="128" type="curve" smooth="yes"/>
      <point x="178" y="128"/>
      <point x="153" y="167"/>
      <point x="134" y="224" type="curve"/>
      <point x="4" y="169" type="line"/>
      <point x="44" y="56"/>
      <point x="114" y="-10"/>
    </contour>
    <contour>
      <point x="413" y="620" type="curve" smooth="yes"/>
      <point x="535" y="620"/>
      <point x="607" y="696"/>
      <point x="624" y="798" type="curve"/>
      <point x="512" y="831" type="line"/>
      <point x="502" y="767"/>
      <point x="469" y="730"/>
      <point x="413" y="730" type="curve" smooth="yes"/>
      <point x="357" y="730"/>
      <point x="324" y="767"/>
      <point x="314" y="831" type="curve"/>
      <point x="202" y="798" type="line"/>
      <point x="218" y="696"/>
      <point x="291" y="620"/>
    </contour>
    <contour>
      <point x="413" y="756" type="curve" smooth="yes"/>
      <point x="448" y="756"/>
      <point x="473" y="784"/>
      <point x="473" y="826" type="curve" smooth="yes"/>
      <point x="473" y="868"/>
      <point x="448" y="896"/>
      <point x="413" y="896" type="curve" smooth="yes"/>
      <point x="378" y="896"/>
      <point x="353" y="868"/>
      <point x="353" y="826" type="curve" smooth="yes"/>
      <point x="353" y="784"/>
      <point x="378" y="756"/>
    </contour>
  </outline>
</glyph>
<glyph name="rrvocalicgujr" format="2">
  <advance width="856"/>
  <unicode hex="0AE0"/>
  <outline>
    <contour>
      <point x="500" y="0" type="curve" smooth="yes"/>
      <point x="541" y="0" type="line"/>
      <point x="547" y="138" type="line"/>
      <point x="533" y="138"/>
      <point x="523" y="140"/>
      <point x="516" y="146" type="curve" smooth="yes"/>
      <point x="508" y="152"/>
      <point x="505" y="163"/>
      <point x="505" y="180" type="curve" smooth="yes"/>
      <point x="505" y="592" type="line"/>
      <point x="346" y="602" type="line"/>
      <point x="346" y="150" type="line" smooth="yes"/>
      <point x="346" y="98"/>
      <point x="360" y="59"/>
      <point x="389" y="34" type="curve" smooth="yes"/>
      <point x="415" y="11"/>
      <point x="452" y="0"/>
    </contour>
    <contour>
      <point x="159" y="86" type="line"/>
      <point x="430" y="308" type="line"/>
      <point x="368" y="416" type="line"/>
      <point x="65" y="205" type="line"/>
    </contour>
    <contour>
      <point x="246" y="326" type="curve"/>
      <point x="348" y="396" type="line"/>
      <point x="276" y="509"/>
      <point x="224" y="556"/>
      <point x="125" y="556" type="curve" smooth="yes"/>
      <point x="73" y="556"/>
      <point x="34" y="545"/>
      <point x="2" y="530" type="curve"/>
      <point x="51" y="400" type="line"/>
      <point x="75" y="411"/>
      <point x="97" y="417"/>
      <point x="121" y="417" type="curve" smooth="yes"/>
      <point x="170" y="417"/>
      <point x="202" y="390"/>
    </contour>
    <contour>
      <point x="771" y="-3" type="curve" smooth="yes"/>
      <point x="815" y="-3"/>
      <point x="852" y="9"/>
      <point x="884" y="23" type="curve"/>
      <point x="841" y="139" type="line"/>
      <point x="825" y="130"/>
      <point x="805" y="123"/>
      <point x="780" y="123" type="curve" smooth="yes"/>
      <point x="755" y="123"/>
      <point x="733" y="133"/>
      <point x="733" y="159" type="curve" smooth="yes"/>
      <point x="733" y="182"/>
      <point x="753" y="197"/>
      <point x="791" y="202" type="curve"/>
      <point x="717" y="298" type="line"/>
      <point x="625" y="265"/>
      <point x="588" y="221"/>
      <point x="588" y="149" type="curve" smooth="yes"/>
      <point x="588" y="59"/>
      <point x="667" y="-3"/>
    </contour>
    <contour>
      <point x="791" y="202" type="line"/>
      <point x="779" y="253"/>
      <point x="765" y="304"/>
      <point x="744" y="354" type="curve"/>
      <point x="761" y="374"/>
      <point x="771" y="399"/>
      <point x="771" y="428" type="curve" smooth="yes"/>
      <point x="771" y="485"/>
      <point x="735" y="528"/>
      <point x="677" y="528" type="curve" smooth="yes"/>
      <point x="622" y="528"/>
      <point x="589" y="493"/>
      <point x="589" y="445" type="curve" smooth="yes"/>
      <point x="589" y="419"/>
      <point x="594" y="395"/>
      <point x="617" y="356" type="curve"/>
      <point x="649" y="426" type="line"/>
      <point x="627" y="416"/>
      <point x="607" y="414"/>
      <point x="588" y="414" type="curve" smooth="yes"/>
      <point x="542" y="414"/>
      <point x="506" y="432"/>
      <point x="472" y="471" type="curve"/>
      <point x="458" y="333" type="line"/>
      <point x="495" y="303"/>
      <point x="550" y="283"/>
      <point x="605" y="283" type="curve" smooth="yes"/>
      <point x="631" y="283"/>
      <point x="669" y="293"/>
      <point x="686" y="304" type="curve"/>
      <point x="628" y="327" type="line"/>
      <point x="641" y="296"/>
      <point x="649" y="270"/>
      <point x="654" y="246" type="curve"/>
    </contour>
  </outline>
</glyph>
<glyph name="llvocalicgujr" format="2">
  <advance width="662"/>
  <unicode hex="0AE1"/>
  <guideline x="728" y="145" angle="0"/>
  <outline>
    <contour>
      <point x="582" y="-62" type="curve" smooth="yes"/>
      <point x="633" y="-62"/>
      <point x="673" y="-52"/>
      <point x="704" y="-37" type="curve"/>
      <point x="661" y="77" type="line"/>
      <point x="640" y="66"/>
      <point x="611" y="60"/>
      <point x="585" y="60" type="curve" smooth="yes"/>
      <point x="551" y="60"/>
      <point x="530" y="72"/>
      <point x="530" y="94" type="curve" smooth="yes"/>
      <point x="530" y="121"/>
      <point x="557" y="135"/>
      <point x="607" y="145" type="curve"/>
      <point x="632" y="190"/>
      <point x="643" y="237"/>
      <point x="643" y="282" type="curve" smooth="yes"/>
      <point x="643" y="379"/>
      <point x="575" y="465"/>
      <point x="461" y="465" type="curve" smooth="yes"/>
      <point x="333" y="465"/>
      <point x="264" y="374"/>
      <point x="242" y="240" type="curve"/>
      <point x="383" y="205" type="line"/>
      <point x="398" y="294"/>
      <point x="418" y="334"/>
      <point x="453" y="334" type="curve" smooth="yes"/>
      <point x="476" y="334"/>
      <point x="485" y="315"/>
      <point x="485" y="287" type="curve" smooth="yes"/>
      <point x="485" y="268"/>
      <point x="483" y="249"/>
      <point x="476" y="231" type="curve"/>
      <point x="415" y="199"/>
      <point x="379" y="152"/>
      <point x="379" y="90" type="curve" smooth="yes"/>
      <point x="379" y="0"/>
      <point x="462" y="-62"/>
    </contour>
    <contour>
      <point x="159" y="10" type="curve"/>
      <point x="269" y="103" type="line"/>
      <point x="194" y="183"/>
      <point x="178" y="226"/>
      <point x="178" y="273" type="curve" smooth="yes"/>
      <point x="178" y="311"/>
      <point x="198" y="334"/>
      <point x="231" y="334" type="curve" smooth="yes"/>
      <point x="260" y="334"/>
      <point x="282" y="320"/>
      <point x="307" y="298" type="curve"/>
      <point x="373" y="403" type="line"/>
      <point x="325" y="446"/>
      <point x="273" y="471"/>
      <point x="206" y="471" type="curve" smooth="yes"/>
      <point x="92" y="471"/>
      <point x="19" y="400"/>
      <point x="19" y="285" type="curve" smooth="yes"/>
      <point x="19" y="198"/>
      <point x="64" y="112"/>
    </contour>
    <contour>
      <point x="629" y="-234" type="curve" smooth="yes"/>
      <point x="680" y="-234"/>
      <point x="720" y="-224"/>
      <point x="751" y="-209" type="curve"/>
      <point x="711" y="-92" type="line"/>
      <point x="687" y="-104"/>
      <point x="659" y="-112"/>
      <point x="625" y="-112" type="curve" smooth="yes"/>
      <point x="593" y="-112"/>
      <point x="569" y="-100"/>
      <point x="569" y="-79" type="curve" smooth="yes"/>
      <point x="569" y="-67"/>
      <point x="574" y="-57"/>
      <point x="584" y="-49" type="curve"/>
      <point x="452" y="-2" type="line"/>
      <point x="435" y="-26"/>
      <point x="426" y="-51"/>
      <point x="426" y="-82" type="curve" smooth="yes"/>
      <point x="426" y="-172"/>
      <point x="509" y="-234"/>
    </contour>
    <contour>
      <point x="404" y="408" type="line"/>
      <point x="563" y="408" type="line"/>
      <point x="563" y="592" type="line"/>
      <point x="404" y="602" type="line"/>
    </contour>
  </outline>
</glyph>
<glyph name="zerogujr" format="2">
  <advance width="490"/>
  <unicode hex="0AE6"/>
  <outline>
    <contour>
      <point x="245" y="78" type="curve" smooth="yes"/>
      <point x="377" y="78"/>
      <point x="445" y="181"/>
      <point x="445" y="305" type="curve" smooth="yes"/>
      <point x="445" y="429"/>
      <point x="377" y="533"/>
      <point x="245" y="533" type="curve" smooth="yes"/>
      <point x="113" y="533"/>
      <point x="45" y="429"/>
      <point x="45" y="305" type="curve" smooth="yes"/>
      <point x="45" y="181"/>
      <point x="113" y="78"/>
    </contour>
    <contour>
      <point x="245" y="216" type="curve" smooth="yes"/>
      <point x="216" y="216"/>
      <point x="204" y="242"/>
      <point x="204" y="305" type="curve" smooth="yes"/>
      <point x="204" y="368"/>
      <point x="216" y="395"/>
      <point x="245" y="395" type="curve" smooth="yes"/>
      <point x="274" y="395"/>
      <point x="286" y="368"/>
      <point x="286" y="305" type="curve" smooth="yes"/>
      <point x="286" y="242"/>
      <point x="274" y="216"/>
    </contour>
  </outline>
</glyph>
<glyph name="onegujr" format="2">
  <advance width="490"/>
  <unicode hex="0AE7"/>
  <outline>
    <contour>
      <point x="423" y="0" type="curve" smooth="yes"/>
      <point x="451" y="0" type="line"/>
      <point x="457" y="138" type="line"/>
      <point x="435" y="138"/>
      <point x="422" y="141"/>
      <point x="415" y="151" type="curve" smooth="yes"/>
      <point x="408" y="162"/>
      <point x="406" y="180"/>
      <point x="406" y="209" type="curve" smooth="yes"/>
      <point x="406" y="398" type="line" smooth="yes"/>
      <point x="406" y="462"/>
      <point x="390" y="512"/>
      <point x="360" y="547" type="curve" smooth="yes"/>
      <point x="329" y="583"/>
      <point x="283" y="602"/>
      <point x="222" y="602" type="curve" smooth="yes"/>
      <point x="110" y="602"/>
      <point x="40" y="530"/>
      <point x="40" y="421" type="curve" smooth="yes"/>
      <point x="40" y="312"/>
      <point x="107" y="238"/>
      <point x="213" y="238" type="curve" smooth="yes"/>
      <point x="240" y="238"/>
      <point x="270" y="244"/>
      <point x="293" y="254" type="curve"/>
      <point x="271" y="395" type="line"/>
      <point x="255" y="375"/>
      <point x="240" y="368"/>
      <point x="223" y="368" type="curve" smooth="yes"/>
      <point x="201" y="368"/>
      <point x="192" y="383"/>
      <point x="192" y="421" type="curve" smooth="yes"/>
      <point x="192" y="456"/>
      <point x="203" y="472"/>
      <point x="222" y="472" type="curve" smooth="yes"/>
      <point x="231" y="472"/>
      <point x="238" y="469"/>
      <point x="242" y="461" type="curve" smooth="yes"/>
      <point x="246" y="453"/>
      <point x="247" y="440"/>
      <point x="247" y="421" type="curve" smooth="yes"/>
      <point x="247" y="194" type="line" smooth="yes"/>
      <point x="247" y="124"/>
      <point x="256" y="75"/>
      <point x="283" y="44" type="curve" smooth="yes"/>
      <point x="310" y="13"/>
      <point x="354" y="0"/>
    </contour>
  </outline>
</glyph>
<glyph name="twogujr" format="2">
  <advance width="490"/>
  <unicode hex="0AE8"/>
  <outline>
    <contour>
      <point x="371" y="0" type="curve" smooth="yes"/>
      <point x="410" y="0"/>
      <point x="438" y="6"/>
      <point x="461" y="18" type="curve"/>
      <point x="423" y="154" type="line"/>
      <point x="407" y="146"/>
      <point x="393" y="142"/>
      <point x="370" y="142" type="curve" smooth="yes"/>
      <point x="333" y="142"/>
      <point x="304" y="165"/>
      <point x="274" y="243" type="curve"/>
      <point x="257" y="264" type="line"/>
      <point x="213" y="317"/>
      <point x="186" y="335"/>
      <point x="150" y="335" type="curve" smooth="yes"/>
      <point x="98" y="335"/>
      <point x="64" y="303"/>
      <point x="64" y="254" type="curve" smooth="yes"/>
      <point x="64" y="185"/>
      <point x="116" y="153"/>
      <point x="174" y="153" type="curve" smooth="yes"/>
      <point x="314" y="153"/>
      <point x="402" y="271"/>
      <point x="402" y="400" type="curve" smooth="yes"/>
      <point x="402" y="522"/>
      <point x="324" y="602"/>
      <point x="204" y="602" type="curve" smooth="yes"/>
      <point x="158" y="602"/>
      <point x="107" y="590"/>
      <point x="65" y="572" type="curve"/>
      <point x="107" y="449" type="line"/>
      <point x="130" y="460"/>
      <point x="152" y="464"/>
      <point x="172" y="464" type="curve" smooth="yes"/>
      <point x="217" y="464"/>
      <point x="243" y="436"/>
      <point x="243" y="396" type="curve" smooth="yes"/>
      <point x="243" y="347"/>
      <point x="215" y="314"/>
      <point x="161" y="296" type="curve"/>
      <point x="134" y="207" type="line"/>
      <point x="195" y="52"/>
      <point x="272" y="0"/>
    </contour>
  </outline>
</glyph>
<glyph name="threegujr" format="2">
  <advance width="490"/>
  <unicode hex="0AE9"/>
  <outline>
    <contour>
      <point x="250" y="-10" type="curve" smooth="yes"/>
      <point x="374" y="-10"/>
      <point x="437" y="58"/>
      <point x="437" y="158" type="curve" smooth="yes"/>
      <point x="437" y="227"/>
      <point x="403" y="297"/>
      <point x="338" y="353" type="curve"/>
      <point x="231" y="313" type="line"/>
      <point x="231" y="266" type="line"/>
      <point x="263" y="234"/>
      <point x="279" y="201"/>
      <point x="279" y="168" type="curve" smooth="yes"/>
      <point x="279" y="142"/>
      <point x="264" y="128"/>
      <point x="240" y="128" type="curve" smooth="yes"/>
      <point x="209" y="128"/>
      <point x="184" y="154"/>
      <point x="157" y="216" type="curve"/>
      <point x="29" y="161" type="line"/>
      <point x="70" y="59"/>
      <point x="135" y="-10"/>
    </contour>
    <contour>
      <point x="195" y="239" type="line"/>
      <point x="344" y="262"/>
      <point x="428" y="331"/>
      <point x="428" y="435" type="curve" smooth="yes"/>
      <point x="428" y="530"/>
      <point x="360" y="602"/>
      <point x="241" y="602" type="curve" smooth="yes"/>
      <point x="196" y="602"/>
      <point x="146" y="592"/>
      <point x="105" y="577" type="curve"/>
      <point x="146" y="448" type="line"/>
      <point x="173" y="457"/>
      <point x="200" y="464"/>
      <point x="226" y="464" type="curve" smooth="yes"/>
      <point x="256" y="464"/>
      <point x="272" y="451"/>
      <point x="272" y="431" type="curve" smooth="yes"/>
      <point x="272" y="401"/>
      <point x="237" y="385"/>
      <point x="166" y="377" type="curve"/>
    </contour>
  </outline>
</glyph>
<glyph name="fourgujr" format="2">
  <advance width="490"/>
  <unicode hex="0AEA"/>
  <outline>
    <contour>
      <point x="238" y="-9" type="curve" smooth="yes"/>
      <point x="351" y="-9"/>
      <point x="415" y="58"/>
      <point x="415" y="153" type="curve" smooth="yes"/>
      <point x="415" y="231"/>
      <point x="383" y="285"/>
      <point x="333" y="351" type="curve"/>
      <point x="378" y="399"/>
      <point x="423" y="443"/>
      <point x="488" y="501" type="curve"/>
      <point x="382" y="603" type="line"/>
      <point x="334" y="552"/>
      <point x="292" y="505"/>
      <point x="245" y="450" type="curve"/>
      <point x="202" y="502"/>
      <point x="162" y="546"/>
      <point x="108" y="603" type="curve"/>
      <point x="-1" y="501" type="line"/>
      <point x="57" y="448"/>
      <point x="104" y="400"/>
      <point x="149" y="351" type="curve"/>
      <point x="93" y="286"/>
      <point x="59" y="232"/>
      <point x="59" y="153" type="curve" smooth="yes"/>
      <point x="59" y="57"/>
      <point x="126" y="-9"/>
    </contour>
    <contour>
      <point x="237" y="124" type="curve" smooth="yes"/>
      <point x="216" y="124"/>
      <point x="204" y="138"/>
      <point x="204" y="167" type="curve" smooth="yes"/>
      <point x="204" y="191"/>
      <point x="215" y="219"/>
      <point x="239" y="249" type="curve"/>
      <point x="259" y="219"/>
      <point x="267" y="191"/>
      <point x="267" y="167" type="curve" smooth="yes"/>
      <point x="267" y="138"/>
      <point x="256" y="124"/>
    </contour>
  </outline>
</glyph>
<glyph name="fivegujr" format="2">
  <advance width="490"/>
  <unicode hex="0AEB"/>
  <outline>
    <contour>
      <point x="209" y="149" type="curve" smooth="yes"/>
      <point x="244" y="149"/>
      <point x="272" y="156"/>
      <point x="295" y="167" type="curve"/>
      <point x="295" y="333" type="line"/>
      <point x="277" y="306"/>
      <point x="260" y="287"/>
      <point x="238" y="287" type="curve" smooth="yes"/>
      <point x="233" y="287"/>
      <point x="228" y="288"/>
      <point x="224" y="291" type="curve" smooth="yes"/>
      <point x="217" y="296"/>
      <point x="212" y="306"/>
      <point x="212" y="321" type="curve" smooth="yes"/>
      <point x="212" y="442" type="line" smooth="yes"/>
      <point x="212" y="494"/>
      <point x="198" y="533"/>
      <point x="169" y="558" type="curve" smooth="yes"/>
      <point x="143" y="581"/>
      <point x="106" y="592"/>
      <point x="58" y="592" type="curve" smooth="yes"/>
      <point x="25" y="592" type="line"/>
      <point x="19" y="454" type="line"/>
      <point x="31" y="454"/>
      <point x="39" y="451"/>
      <point x="45" y="444" type="curve" smooth="yes"/>
      <point x="50" y="438"/>
      <point x="53" y="429"/>
      <point x="53" y="415" type="curve" smooth="yes"/>
      <point x="53" y="329" type="line" smooth="yes"/>
      <point x="53" y="268"/>
      <point x="72" y="216"/>
      <point x="109" y="184" type="curve" smooth="yes"/>
      <point x="134" y="162"/>
      <point x="168" y="149"/>
    </contour>
    <contour>
      <point x="422" y="0" type="curve" smooth="yes"/>
      <point x="463" y="0" type="line"/>
      <point x="469" y="138" type="line"/>
      <point x="455" y="138"/>
      <point x="445" y="140"/>
      <point x="438" y="146" type="curve" smooth="yes"/>
      <point x="430" y="153"/>
      <point x="427" y="163"/>
      <point x="427" y="180" type="curve" smooth="yes"/>
      <point x="427" y="592" type="line"/>
      <point x="268" y="602" type="line"/>
      <point x="268" y="150" type="line" smooth="yes"/>
      <point x="268" y="98"/>
      <point x="282" y="59"/>
      <point x="311" y="34" type="curve" smooth="yes"/>
      <point x="337" y="11"/>
      <point x="374" y="0"/>
    </contour>
  </outline>
</glyph>
<glyph name="sixgujr" format="2">
  <advance width="490"/>
  <unicode hex="0AEC"/>
  <outline>
    <contour>
      <point x="398" y="-190" type="line"/>
      <point x="430" y="-141"/>
      <point x="451" y="-100"/>
      <point x="451" y="-46" type="curve" smooth="yes"/>
      <point x="451" y="23"/>
      <point x="425" y="81"/>
      <point x="339" y="133" type="curve" smooth="yes"/>
      <point x="263" y="179"/>
      <point x="242" y="193"/>
      <point x="242" y="218" type="curve" smooth="yes"/>
      <point x="242" y="240"/>
      <point x="263" y="251"/>
      <point x="310" y="251" type="curve" smooth="yes"/>
      <point x="332" y="251"/>
      <point x="355" y="248"/>
      <point x="378" y="242" type="curve"/>
      <point x="405" y="376" type="line"/>
      <point x="372" y="385"/>
      <point x="339" y="389"/>
      <point x="300" y="389" type="curve" smooth="yes"/>
      <point x="185" y="389"/>
      <point x="83" y="331"/>
      <point x="83" y="225" type="curve" smooth="yes"/>
      <point x="83" y="139"/>
      <point x="133" y="99"/>
      <point x="216" y="41" type="curve" smooth="yes"/>
      <point x="273" y="1"/>
      <point x="285" y="-18"/>
      <point x="285" y="-48" type="curve" smooth="yes"/>
      <point x="285" y="-71"/>
      <point x="276" y="-89"/>
      <point x="262" y="-108" type="curve"/>
    </contour>
    <contour>
      <point x="142" y="264" type="curve"/>
      <point x="255" y="348" type="line"/>
      <point x="230" y="365"/>
      <point x="213" y="387"/>
      <point x="213" y="413" type="curve" smooth="yes"/>
      <point x="213" y="447"/>
      <point x="241" y="464"/>
      <point x="291" y="464" type="curve" smooth="yes"/>
      <point x="315" y="464"/>
      <point x="337" y="461"/>
      <point x="355" y="456" type="curve"/>
      <point x="384" y="589" type="line"/>
      <point x="346" y="598"/>
      <point x="307" y="602"/>
      <point x="267" y="602" type="curve" smooth="yes"/>
      <point x="134" y="602"/>
      <point x="54" y="539"/>
      <point x="54" y="438" type="curve" smooth="yes"/>
      <point x="54" y="378"/>
      <point x="80" y="321"/>
    </contour>
  </outline>
</glyph>
<glyph name="sevengujr" format="2">
  <advance width="490"/>
  <unicode hex="0AED"/>
  <outline>
    <contour>
      <point x="246" y="-10" type="curve" smooth="yes"/>
      <point x="389" y="-10"/>
      <point x="465" y="99"/>
      <point x="465" y="287" type="curve" smooth="yes"/>
      <point x="465" y="479"/>
      <point x="381" y="602"/>
      <point x="245" y="602" type="curve" smooth="yes"/>
      <point x="143" y="602"/>
      <point x="70" y="537"/>
      <point x="70" y="440" type="curve" smooth="yes"/>
      <point x="70" y="335"/>
      <point x="145" y="265"/>
      <point x="262" y="227" type="curve"/>
      <point x="291" y="364" type="line"/>
      <point x="245" y="379"/>
      <point x="222" y="403"/>
      <point x="222" y="431" type="curve" smooth="yes"/>
      <point x="222" y="451"/>
      <point x="235" y="464"/>
      <point x="256" y="464" type="curve" smooth="yes"/>
      <point x="300" y="464"/>
      <point x="306" y="397"/>
      <point x="306" y="294" type="curve" smooth="yes"/>
      <point x="306" y="185"/>
      <point x="283" y="128"/>
      <point x="232" y="128" type="curve" smooth="yes"/>
      <point x="182" y="128"/>
      <point x="154" y="167"/>
      <point x="148" y="264" type="curve"/>
      <point x="6" y="247" type="line"/>
      <point x="17" y="91"/>
      <point x="103" y="-10"/>
    </contour>
  </outline>
</glyph>
<glyph name="eightgujr" format="2">
  <advance width="490"/>
  <unicode hex="0AEE"/>
  <outline>
    <contour>
      <point x="252" y="-10" type="curve" smooth="yes"/>
      <point x="323" y="-10"/>
      <point x="387" y="7"/>
      <point x="451" y="46" type="curve"/>
      <point x="390" y="173" type="line"/>
      <point x="338" y="139"/>
      <point x="307" y="128"/>
      <point x="269" y="128" type="curve" smooth="yes"/>
      <point x="235" y="128"/>
      <point x="211" y="148"/>
      <point x="211" y="179" type="curve" smooth="yes"/>
      <point x="211" y="208"/>
      <point x="228" y="233"/>
      <point x="273" y="289" type="curve" smooth="yes"/>
      <point x="440" y="499" type="line"/>
      <point x="305" y="604" type="line"/>
      <point x="131" y="382" type="line" smooth="yes"/>
      <point x="72" y="306"/>
      <point x="41" y="254"/>
      <point x="41" y="178" type="curve" smooth="yes"/>
      <point x="41" y="66"/>
      <point x="130" y="-10"/>
    </contour>
  </outline>
</glyph>
<glyph name="ninegujr" format="2">
  <advance width="490"/>
  <unicode hex="0AEF"/>
  <outline>
    <contour>
      <point x="347" y="-10" type="curve" smooth="yes"/>
      <point x="388" y="-10"/>
      <point x="420" y="-6"/>
      <point x="453" y="4" type="curve"/>
      <point x="417" y="138" type="line"/>
      <point x="395" y="131"/>
      <point x="372" y="128"/>
      <point x="351" y="128" type="curve" smooth="yes"/>
      <point x="273" y="128"/>
      <point x="225" y="180"/>
      <point x="225" y="267" type="curve" smooth="yes"/>
      <point x="225" y="350"/>
      <point x="266" y="406"/>
      <point x="379" y="463" type="curve"/>
      <point x="305" y="602" type="line"/>
      <point x="134" y="527"/>
      <point x="57" y="413"/>
      <point x="57" y="275" type="curve" smooth="yes"/>
      <point x="57" y="101"/>
      <point x="173" y="-10"/>
    </contour>
    <contour>
      <point x="287" y="180" type="line"/>
      <point x="452" y="221" type="line"/>
      <point x="415" y="375" type="line"/>
      <point x="248" y="333" type="line"/>
    </contour>
  </outline>
</glyph>
<glyph name="uni0AF0" format="2">
  <advance width="372"/>
  <unicode hex="0AF0"/>
  <outline>
    <contour>
      <point x="186" y="168" type="curve" smooth="yes"/>
      <point x="291" y="168"/>
      <point x="344" y="238"/>
      <point x="344" y="338" type="curve" smooth="yes"/>
      <point x="344" y="438"/>
      <point x="291" y="509"/>
      <point x="186" y="509" type="curve" smooth="yes"/>
      <point x="81" y="509"/>
      <point x="28" y="438"/>
      <point x="28" y="338" type="curve" smooth="yes"/>
      <point x="28" y="238"/>
      <point x="81" y="168"/>
    </contour>
    <contour>
      <point x="186" y="277" type="curve" smooth="yes"/>
      <point x="159" y="277"/>
      <point x="144" y="299"/>
      <point x="144" y="338" type="curve" smooth="yes"/>
      <point x="144" y="377"/>
      <point x="159" y="400"/>
      <point x="186" y="400" type="curve" smooth="yes"/>
      <point x="213" y="400"/>
      <point x="228" y="377"/>
      <point x="228" y="338" type="curve" smooth="yes"/>
      <point x="228" y="299"/>
      <point x="213" y="277"/>
    </contour>
  </outline>
</glyph>
<glyph name="zhagujr" format="2">
  <advance width="748"/>
  <unicode hex="0AF9"/>
  <outline>
    <contour>
      <point x="207" y="53" type="curve" smooth="yes"/>
      <point x="243" y="53"/>
      <point x="265" y="82"/>
      <point x="265" y="124" type="curve" smooth="yes"/>
      <point x="265" y="165"/>
      <point x="243" y="195"/>
      <point x="207" y="195" type="curve" smooth="yes"/>
      <point x="170" y="195"/>
      <point x="149" y="165"/>
      <point x="149" y="124" type="curve" smooth="yes"/>
      <point x="149" y="82"/>
      <point x="170" y="53"/>
    </contour>
    <contour>
      <point x="125" y="-88" type="curve" smooth="yes"/>
      <point x="161" y="-88"/>
      <point x="183" y="-59"/>
      <point x="183" y="-17" type="curve" smooth="yes"/>
      <point x="183" y="24"/>
      <point x="161" y="54"/>
      <point x="125" y="54" type="curve" smooth="yes"/>
      <point x="88" y="54"/>
      <point x="67" y="24"/>
      <point x="67" y="-17" type="curve" smooth="yes"/>
      <point x="67" y="-59"/>
      <point x="88" y="-88"/>
    </contour>
    <contour>
      <point x="262" y="-108" type="curve" smooth="yes"/>
      <point x="298" y="-108"/>
      <point x="320" y="-79"/>
      <point x="320" y="-37" type="curve" smooth="yes"/>
      <point x="320" y="4"/>
      <point x="298" y="34"/>
      <point x="262" y="34" type="curve" smooth="yes"/>
      <point x="225" y="34"/>
      <point x="204" y="4"/>
      <point x="204" y="-37" type="curve" smooth="yes"/>
      <point x="204" y="-79"/>
      <point x="225" y="-108"/>
    </contour>
    <component base="jagujr"/>
  </outline>
</glyph>
<glyph name="uni0AFA" format="2">
  <unicode hex="0AFA"/>
  <outline>
    <contour>
      <point x="-170" y="604" type="line"/>
      <point x="-77" y="634"/>
      <point x="-23" y="689"/>
      <point x="-23" y="767" type="curve" smooth="yes"/>
      <point x="-23" y="843"/>
      <point x="-73" y="896"/>
      <point x="-172" y="896" type="curve" smooth="yes"/>
      <point x="-215" y="896"/>
      <point x="-249" y="891"/>
      <point x="-292" y="879" type="curve"/>
      <point x="-270" y="775" type="line"/>
      <point x="-248" y="781"/>
      <point x="-232" y="784"/>
      <point x="-215" y="784" type="curve" smooth="yes"/>
      <point x="-189" y="784"/>
      <point x="-175" y="771"/>
      <point x="-175" y="749" type="curve" smooth="yes"/>
      <point x="-175" y="731"/>
      <point x="-183" y="716"/>
      <point x="-219" y="699" type="curve"/>
    </contour>
  </outline>
</glyph>
<glyph name="uni0AFB" format="2">
  <unicode hex="0AFB"/>
  <outline>
    <contour>
      <point x="-151" y="839" type="curve"/>
      <point x="-226" y="839" type="line"/>
      <point x="-228" y="789"/>
      <point x="-235" y="768"/>
      <point x="-257" y="768" type="curve" smooth="yes"/>
      <point x="-275" y="768"/>
      <point x="-285" y="777"/>
      <point x="-287" y="840" type="curve"/>
      <point x="-377" y="839" type="line"/>
      <point x="-374" y="709"/>
      <point x="-330" y="667"/>
      <point x="-271" y="667" type="curve" smooth="yes"/>
      <point x="-191" y="667"/>
      <point x="-171" y="722"/>
    </contour>
    <contour>
      <point x="-150" y="839" type="curve"/>
      <point x="-225" y="839" type="line"/>
      <point x="-206" y="722"/>
      <point x="-189" y="667"/>
      <point x="-106" y="667" type="curve" smooth="yes"/>
      <point x="-46" y="667"/>
      <point x="0" y="709"/>
      <point x="1" y="839" type="curve"/>
      <point x="-88" y="840" type="line"/>
      <point x="-92" y="777"/>
      <point x="-101" y="768"/>
      <point x="-121" y="768" type="curve" smooth="yes"/>
      <point x="-142" y="768"/>
      <point x="-148" y="789"/>
    </contour>
  </outline>
</glyph>
<glyph name="uni0AFC" format="2">
  <unicode hex="0AFC"/>
  <outline>
    <contour>
      <point x="-57" y="863" type="line"/>
      <point x="-138" y="800"/>
      <point x="-176" y="795"/>
      <point x="-215" y="795" type="curve" smooth="yes"/>
      <point x="-249" y="795"/>
      <point x="-278" y="805"/>
      <point x="-305" y="828" type="curve"/>
      <point x="-362" y="757" type="line"/>
      <point x="-337" y="738"/>
      <point x="-296" y="718"/>
      <point x="-248" y="718" type="curve"/>
      <point x="-244" y="718"/>
      <point x="-241" y="718"/>
      <point x="-237" y="719" type="curve"/>
      <point x="-245" y="727" type="line"/>
      <point x="-264" y="721"/>
      <point x="-276" y="718"/>
      <point x="-296" y="718" type="curve" smooth="yes"/>
      <point x="-338" y="718"/>
      <point x="-367" y="729"/>
      <point x="-403" y="750" type="curve"/>
      <point x="-454" y="662" type="line"/>
      <point x="-418" y="641"/>
      <point x="-364" y="626"/>
      <point x="-308" y="626" type="curve" smooth="yes"/>
      <point x="-223" y="626"/>
      <point x="-132" y="655"/>
      <point x="18" y="769" type="curve"/>
    </contour>
  </outline>
</glyph>
<glyph name="uni0AFD" format="2">
  <unicode hex="0AFD"/>
  <outline>
    <contour>
      <point x="-255" y="764" type="curve" smooth="yes"/>
      <point x="-219" y="764"/>
      <point x="-197" y="791"/>
      <point x="-197" y="831" type="curve" smooth="yes"/>
      <point x="-197" y="870"/>
      <point x="-219" y="896"/>
      <point x="-255" y="896" type="curve" smooth="yes"/>
      <point x="-292" y="896"/>
      <point x="-313" y="870"/>
      <point x="-313" y="831" type="curve" smooth="yes"/>
      <point x="-313" y="791"/>
      <point x="-292" y="764"/>
    </contour>
    <contour>
      <point x="-324" y="634" type="curve" smooth="yes"/>
      <point x="-288" y="634"/>
      <point x="-266" y="660"/>
      <point x="-266" y="700" type="curve" smooth="yes"/>
      <point x="-266" y="739"/>
      <point x="-288" y="766"/>
      <point x="-324" y="766" type="curve" smooth="yes"/>
      <point x="-361" y="766"/>
      <point x="-382" y="739"/>
      <point x="-382" y="700" type="curve" smooth="yes"/>
      <point x="-382" y="660"/>
      <point x="-361" y="634"/>
    </contour>
    <contour>
      <point x="-186" y="634" type="curve" smooth="yes"/>
      <point x="-150" y="634"/>
      <point x="-128" y="660"/>
      <point x="-128" y="700" type="curve" smooth="yes"/>
      <point x="-128" y="739"/>
      <point x="-150" y="766"/>
      <point x="-186" y="766" type="curve" smooth="yes"/>
      <point x="-223" y="766"/>
      <point x="-244" y="739"/>
      <point x="-244" y="700" type="curve" smooth="yes"/>
      <point x="-244" y="660"/>
      <point x="-223" y="634"/>
    </contour>
  </outline>
</glyph>
<glyph name="uni0AFE" format="2">
  <unicode hex="0AFE"/>
  <outline>
    <contour>
      <point x="-370" y="764" type="curve" smooth="yes"/>
      <point x="-370" y="693"/>
      <point x="-322" y="649"/>
      <point x="-253" y="649" type="curve" smooth="yes"/>
      <point x="-187" y="649"/>
      <point x="-140" y="689"/>
      <point x="-140" y="764" type="curve" smooth="yes"/>
      <point x="-140" y="841"/>
      <point x="-187" y="881"/>
      <point x="-255" y="881" type="curve" smooth="yes"/>
      <point x="-324" y="881"/>
      <point x="-370" y="837"/>
    </contour>
    <contour>
      <point x="-287" y="763" type="curve" smooth="yes"/>
      <point x="-287" y="796"/>
      <point x="-272" y="810"/>
      <point x="-255" y="810" type="curve" smooth="yes"/>
      <point x="-235" y="810"/>
      <point x="-223" y="795"/>
      <point x="-223" y="765" type="curve" smooth="yes"/>
      <point x="-223" y="732"/>
      <point x="-235" y="720"/>
      <point x="-254" y="720" type="curve" smooth="yes"/>
      <point x="-274" y="720"/>
      <point x="-287" y="731"/>
    </contour>
  </outline>
</glyph>
<glyph name="uni0AFF" format="2">
  <unicode hex="0AFF"/>
  <outline>
    <contour>
      <point x="-477" y="764" type="curve" smooth="yes"/>
      <point x="-477" y="693"/>
      <point x="-431" y="649"/>
      <point x="-367" y="649" type="curve" smooth="yes"/>
      <point x="-306" y="649"/>
      <point x="-261" y="689"/>
      <point x="-261" y="764" type="curve" smooth="yes"/>
      <point x="-261" y="841"/>
      <point x="-306" y="881"/>
      <point x="-369" y="881" type="curve" smooth="yes"/>
      <point x="-433" y="881"/>
      <point x="-477" y="837"/>
    </contour>
    <contour>
      <point x="-397" y="763" type="curve" smooth="yes"/>
      <point x="-397" y="796"/>
      <point x="-384" y="810"/>
      <point x="-369" y="810" type="curve" smooth="yes"/>
      <point x="-351" y="810"/>
      <point x="-341" y="795"/>
      <point x="-341" y="765" type="curve" smooth="yes"/>
      <point x="-341" y="732"/>
      <point x="-351" y="720"/>
      <point x="-368" y="720" type="curve" smooth="yes"/>
      <point x="-386" y="720"/>
      <point x="-397" y="731"/>
    </contour>
    <contour>
      <point x="-249" y="764" type="curve" smooth="yes"/>
      <point x="-249" y="693"/>
      <point x="-203" y="649"/>
      <point x="-139" y="649" type="curve" smooth="yes"/>
      <point x="-78" y="649"/>
      <point x="-33" y="689"/>
      <point x="-33" y="764" type="curve" smooth="yes"/>
      <point x="-33" y="841"/>
      <point x="-78" y="881"/>
      <point x="-141" y="881" type="curve" smooth="yes"/>
      <point x="-205" y="881"/>
      <point x="-249" y="837"/>
    </contour>
    <contour>
      <point x="-169" y="763" type="curve" smooth="yes"/>
      <point x="-169" y="796"/>
      <point x="-156" y="810"/>
      <point x="-141" y="810" type="curve" smooth="yes"/>
      <point x="-123" y="810"/>
      <point x="-113" y="795"/>
      <point x="-113" y="765" type="curve" smooth="yes"/>
      <point x="-113" y="732"/>
      <point x="-123" y="720"/>
      <point x="-140" y="720" type="curve" smooth="yes"/>
      <point x="-158" y="720"/>
      <point x="-169" y="731"/>
    </contour>
  </outline>
</glyph>
<glyph name="ellipsis.gujr" format="2">
  <advance width="670"/>
  <unicode hex="2026"/>
  <outline>
    <contour>
      <point x="337" y="-12" type="curve" smooth="yes"/>
      <point x="380" y="-12"/>
      <point x="417" y="14"/>
      <point x="417" y="79" type="curve" smooth="yes"/>
      <point x="417" y="146"/>
      <point x="380" y="171"/>
      <point x="337" y="171" type="curve" smooth="yes"/>
      <point x="291" y="171"/>
      <point x="252" y="146"/>
      <point x="252" y="79" type="curve" smooth="yes"/>
      <point x="252" y="14"/>
      <point x="291" y="-12"/>
    </contour>
    <contour>
      <point x="124" y="-12" type="curve" smooth="yes"/>
      <point x="168" y="-12"/>
      <point x="203" y="14"/>
      <point x="203" y="79" type="curve" smooth="yes"/>
      <point x="203" y="146"/>
      <point x="168" y="171"/>
      <point x="124" y="171" type="curve" smooth="yes"/>
      <point x="78" y="171"/>
      <point x="39" y="146"/>
      <point x="39" y="79" type="curve" smooth="yes"/>
      <point x="39" y="14"/>
      <point x="78" y="-12"/>
    </contour>
    <contour>
      <point x="551" y="-12" type="curve" smooth="yes"/>
      <point x="595" y="-12"/>
      <point x="631" y="14"/>
      <point x="631" y="79" type="curve" smooth="yes"/>
      <point x="631" y="146"/>
      <point x="595" y="171"/>
      <point x="551" y="171" type="curve" smooth="yes"/>
      <point x="505" y="171"/>
      <point x="466" y="146"/>
      <point x="466" y="79" type="curve" smooth="yes"/>
      <point x="466" y="14"/>
      <point x="505" y="-12"/>
    </contour>
  </outline>
</glyph>
<glyph name="uniA830" format="2">
  <advance width="291"/>
  <unicode hex="A830"/>
  <outline>
    <contour>
      <point x="68" y="0" type="line"/>
      <point x="223" y="0" type="line"/>
      <point x="223" y="623" type="line"/>
      <point x="68" y="623" type="line"/>
    </contour>
  </outline>
</glyph>
<glyph name="uniA839" format="2">
  <advance width="294"/>
  <unicode hex="A839"/>
  <outline>
    <contour>
      <point x="-89" y="-125" type="curve"/>
      <point x="-89" y="-261" type="line"/>
      <point x="-75" y="-263"/>
      <point x="-52" y="-265"/>
      <point x="-37" y="-265" type="curve" smooth="yes"/>
      <point x="192" y="-265"/>
      <point x="266" y="-119"/>
      <point x="266" y="23" type="curve" smooth="yes"/>
      <point x="266" y="195"/>
      <point x="185" y="305"/>
      <point x="185" y="395" type="curve" smooth="yes"/>
      <point x="185" y="448"/>
      <point x="211" y="473"/>
      <point x="286" y="495" type="curve"/>
      <point x="244" y="632" type="line"/>
      <point x="133" y="601"/>
      <point x="33" y="535"/>
      <point x="33" y="405" type="curve" smooth="yes"/>
      <point x="33" y="263"/>
      <point x="114" y="166"/>
      <point x="114" y="33" type="curve" smooth="yes"/>
      <point x="114" y="-66"/>
      <point x="68" y="-128"/>
      <point x="-49" y="-128" type="curve" smooth="yes"/>
      <point x="-61" y="-128"/>
      <point x="-77" y="-127"/>
    </contour>
  </outline>
</glyph>
<glyph name="aivowelsignanusvaragujr" format="2">
  <outline>
    <contour>
      <point x="-189" y="631" type="curve"/>
      <point x="-65" y="631" type="line"/>
      <point x="-96" y="829"/>
      <point x="-142" y="896"/>
      <point x="-268" y="896" type="curve" smooth="yes"/>
      <point x="-293" y="896"/>
      <point x="-322" y="892"/>
      <point x="-346" y="885" type="curve"/>
      <point x="-317" y="774" type="line"/>
      <point x="-307" y="777"/>
      <point x="-293" y="779"/>
      <point x="-281" y="779" type="curve" smooth="yes"/>
      <point x="-232" y="779"/>
      <point x="-206" y="749"/>
    </contour>
    <contour>
      <point x="-245" y="607" type="curve"/>
      <point x="-187" y="671" type="line"/>
      <point x="-264" y="744"/>
      <point x="-305" y="777"/>
      <point x="-376" y="777" type="curve" smooth="yes"/>
      <point x="-407" y="777"/>
      <point x="-432" y="772"/>
      <point x="-452" y="766" type="curve"/>
      <point x="-417" y="658" type="line"/>
      <point x="-400" y="663"/>
      <point x="-380" y="666"/>
      <point x="-361" y="666" type="curve" smooth="yes"/>
      <point x="-322" y="666"/>
      <point x="-297" y="651"/>
    </contour>
    <contour>
      <point x="-31" y="746" type="curve" smooth="yes"/>
      <point x="13" y="746"/>
      <point x="39" y="776"/>
      <point x="39" y="821" type="curve" smooth="yes"/>
      <point x="39" y="864"/>
      <point x="13" y="896"/>
      <point x="-31" y="896" type="curve" smooth="yes"/>
      <point x="-75" y="896"/>
      <point x="-101" y="864"/>
      <point x="-101" y="821" type="curve" smooth="yes"/>
      <point x="-101" y="776"/>
      <point x="-75" y="746"/>
    </contour>
  </outline>
</glyph>
<glyph name="aivowelsignrephanusvaragujr" format="2">
  <outline>
    <contour>
      <point x="-190" y="631" type="curve"/>
      <point x="-66" y="631" type="line"/>
      <point x="-79" y="713"/>
      <point x="-97" y="769"/>
      <point x="-119" y="811" type="curve"/>
      <point x="-149" y="822" type="line"/>
      <point x="-170" y="879"/>
      <point x="-205" y="896"/>
      <point x="-269" y="896" type="curve" smooth="yes"/>
      <point x="-294" y="896"/>
      <point x="-323" y="892"/>
      <point x="-347" y="885" type="curve"/>
      <point x="-318" y="774" type="line"/>
      <point x="-308" y="777"/>
      <point x="-294" y="779"/>
      <point x="-282" y="779" type="curve" smooth="yes"/>
      <point x="-233" y="779"/>
      <point x="-207" y="749"/>
    </contour>
    <contour>
      <point x="-246" y="607" type="curve"/>
      <point x="-188" y="671" type="line"/>
      <point x="-265" y="744"/>
      <point x="-308" y="777"/>
      <point x="-377" y="777" type="curve" smooth="yes"/>
      <point x="-408" y="777"/>
      <point x="-433" y="772"/>
      <point x="-453" y="766" type="curve"/>
      <point x="-418" y="658" type="line"/>
      <point x="-401" y="663"/>
      <point x="-381" y="666"/>
      <point x="-362" y="666" type="curve" smooth="yes"/>
      <point x="-323" y="666"/>
      <point x="-298" y="651"/>
    </contour>
    <contour>
      <point x="-4" y="648" type="curve" smooth="yes"/>
      <point x="28" y="648"/>
      <point x="44" y="669"/>
      <point x="44" y="702" type="curve" smooth="yes"/>
      <point x="44" y="734"/>
      <point x="28" y="756"/>
      <point x="-4" y="756" type="curve" smooth="yes"/>
      <point x="-35" y="756"/>
      <point x="-52" y="734"/>
      <point x="-52" y="702" type="curve" smooth="yes"/>
      <point x="-52" y="669"/>
      <point x="-35" y="648"/>
    </contour>
    <contour>
      <point x="-73" y="662" type="line"/>
      <point x="-77" y="677"/>
      <point x="-80" y="697"/>
      <point x="-80" y="712" type="curve" smooth="yes"/>
      <point x="-80" y="739"/>
      <point x="-73" y="787"/>
      <point x="-13" y="787" type="curve" smooth="yes"/>
      <point x="-3" y="787"/>
      <point x="7" y="786"/>
      <point x="15" y="784" type="curve"/>
      <point x="36" y="887" type="line"/>
      <point x="11" y="893"/>
      <point x="-18" y="896"/>
      <point x="-44" y="896" type="curve" smooth="yes"/>
      <point x="-127" y="896"/>
      <point x="-175" y="837"/>
      <point x="-175" y="735" type="curve"/>
    </contour>
  </outline>
</glyph>
<glyph name="aivowelsignrephgujr" format="2">
  <guideline x="-444" y="849" angle="0"/>
  <outline>
    <contour>
      <point x="-190" y="631" type="curve"/>
      <point x="-66" y="631" type="line"/>
      <point x="-79" y="713"/>
      <point x="-97" y="769"/>
      <point x="-119" y="811" type="curve"/>
      <point x="-149" y="822" type="line"/>
      <point x="-170" y="879"/>
      <point x="-205" y="896"/>
      <point x="-269" y="896" type="curve" smooth="yes"/>
      <point x="-294" y="896"/>
      <point x="-323" y="892"/>
      <point x="-347" y="885" type="curve"/>
      <point x="-318" y="774" type="line"/>
      <point x="-308" y="777"/>
      <point x="-294" y="779"/>
      <point x="-282" y="779" type="curve" smooth="yes"/>
      <point x="-233" y="779"/>
      <point x="-207" y="749"/>
    </contour>
    <contour>
      <point x="-246" y="607" type="curve"/>
      <point x="-188" y="671" type="line"/>
      <point x="-265" y="744"/>
      <point x="-308" y="777"/>
      <point x="-377" y="777" type="curve" smooth="yes"/>
      <point x="-408" y="777"/>
      <point x="-433" y="772"/>
      <point x="-453" y="766" type="curve"/>
      <point x="-418" y="658" type="line"/>
      <point x="-401" y="663"/>
      <point x="-381" y="666"/>
      <point x="-362" y="666" type="curve" smooth="yes"/>
      <point x="-323" y="666"/>
      <point x="-298" y="651"/>
    </contour>
    <contour>
      <point x="-73" y="662" type="line"/>
      <point x="-77" y="675"/>
      <point x="-80" y="692"/>
      <point x="-80" y="705" type="curve" smooth="yes"/>
      <point x="-80" y="739"/>
      <point x="-60" y="768"/>
      <point x="-17" y="768" type="curve" smooth="yes"/>
      <point x="-7" y="768"/>
      <point x="3" y="767"/>
      <point x="11" y="765" type="curve"/>
      <point x="36" y="887" type="line"/>
      <point x="11" y="893"/>
      <point x="-18" y="896"/>
      <point x="-42" y="896" type="curve" smooth="yes"/>
      <point x="-128" y="896"/>
      <point x="-174" y="837"/>
      <point x="-174" y="735" type="curve"/>
    </contour>
  </outline>
</glyph>
<glyph name="badagujr" format="2">
  <advance width="849"/>
  <outline>
    <contour>
      <point x="217" y="128" type="curve" smooth="yes"/>
      <point x="336" y="128"/>
      <point x="407" y="212"/>
      <point x="407" y="341" type="curve" smooth="yes"/>
      <point x="407" y="414" type="line"/>
      <point x="251" y="424" type="line"/>
      <point x="251" y="337" type="line" smooth="yes"/>
      <point x="251" y="305"/>
      <point x="247" y="285"/>
      <point x="238" y="275" type="curve" smooth="yes"/>
      <point x="233" y="269"/>
      <point x="226" y="266"/>
      <point x="217" y="266" type="curve" smooth="yes"/>
      <point x="195" y="266"/>
      <point x="182" y="291"/>
      <point x="182" y="334" type="curve" smooth="yes"/>
      <point x="182" y="396"/>
      <point x="204" y="452"/>
      <point x="258" y="515" type="curve"/>
      <point x="133" y="602" type="line"/>
      <point x="59" y="526"/>
      <point x="23" y="440"/>
      <point x="23" y="345" type="curve" smooth="yes"/>
      <point x="23" y="212"/>
      <point x="99" y="128"/>
    </contour>
    <contour>
      <point x="424" y="204" type="curve" smooth="yes"/>
      <point x="440" y="204"/>
      <point x="458" y="206"/>
      <point x="473" y="210" type="curve"/>
      <point x="462" y="343" type="line"/>
      <point x="454" y="341"/>
      <point x="443" y="340"/>
      <point x="437" y="340" type="curve" smooth="yes"/>
      <point x="421" y="340"/>
      <point x="413" y="345"/>
      <point x="405" y="353" type="curve"/>
      <point x="335" y="256" type="line"/>
      <point x="356" y="223"/>
      <point x="385" y="204"/>
    </contour>
    <contour>
      <point x="691" y="-10" type="curve" smooth="yes"/>
      <point x="795" y="-10"/>
      <point x="851" y="45"/>
      <point x="851" y="119" type="curve" smooth="yes"/>
      <point x="851" y="168"/>
      <point x="823" y="209"/>
      <point x="770" y="209" type="curve" smooth="yes"/>
      <point x="720" y="209"/>
      <point x="689" y="174"/>
      <point x="689" y="129" type="curve" smooth="yes"/>
      <point x="689" y="100"/>
      <point x="699" y="77"/>
      <point x="718" y="55" type="curve"/>
      <point x="718" y="126" type="line"/>
      <point x="710" y="123"/>
      <point x="705" y="122"/>
      <point x="697" y="122" type="curve" smooth="yes"/>
      <point x="665" y="122"/>
      <point x="639" y="145"/>
      <point x="639" y="189" type="curve" smooth="yes"/>
      <point x="639" y="230"/>
      <point x="664" y="255"/>
      <point x="703" y="255" type="curve" smooth="yes"/>
      <point x="712" y="255"/>
      <point x="721" y="254"/>
      <point x="730" y="252" type="curve"/>
      <point x="751" y="387" type="line"/>
      <point x="733" y="391"/>
      <point x="714" y="393"/>
      <point x="695" y="393" type="curve" smooth="yes"/>
      <point x="572" y="393"/>
      <point x="480" y="310"/>
      <point x="480" y="191" type="curve" smooth="yes"/>
      <point x="480" y="74"/>
      <point x="564" y="-10"/>
    </contour>
    <contour>
      <point x="547" y="271" type="curve"/>
      <point x="671" y="353" type="line"/>
      <point x="629" y="375"/>
      <point x="610" y="397"/>
      <point x="610" y="421" type="curve" smooth="yes"/>
      <point x="610" y="448"/>
      <point x="630" y="464"/>
      <point x="665" y="464" type="curve" smooth="yes"/>
      <point x="681" y="464"/>
      <point x="692" y="463"/>
      <point x="707" y="460" type="curve"/>
      <point x="730" y="592" type="line"/>
      <point x="707" y="598"/>
      <point x="676" y="602"/>
      <point x="644" y="602" type="curve" smooth="yes"/>
      <point x="528" y="602"/>
      <point x="454" y="540"/>
      <point x="454" y="442" type="curve" smooth="yes"/>
      <point x="454" y="380"/>
      <point x="485" y="323"/>
    </contour>
  </outline>
</glyph>
<glyph name="baprehalfgujr" format="2">
  <advance width="472"/>
  <outline>
    <contour>
      <point x="217" y="128" type="curve" smooth="yes"/>
      <point x="336" y="128"/>
      <point x="407" y="212"/>
      <point x="407" y="341" type="curve" smooth="yes"/>
      <point x="407" y="414" type="line"/>
      <point x="251" y="424" type="line"/>
      <point x="251" y="337" type="line" smooth="yes"/>
      <point x="251" y="305"/>
      <point x="247" y="285"/>
      <point x="238" y="275" type="curve" smooth="yes"/>
      <point x="233" y="269"/>
      <point x="226" y="266"/>
      <point x="217" y="266" type="curve" smooth="yes"/>
      <point x="195" y="266"/>
      <point x="182" y="291"/>
      <point x="182" y="334" type="curve" smooth="yes"/>
      <point x="182" y="396"/>
      <point x="204" y="452"/>
      <point x="258" y="515" type="curve"/>
      <point x="133" y="602" type="line"/>
      <point x="59" y="526"/>
      <point x="23" y="440"/>
      <point x="23" y="345" type="curve" smooth="yes"/>
      <point x="23" y="212"/>
      <point x="99" y="128"/>
    </contour>
    <contour>
      <point x="422" y="211" type="curve" smooth="yes"/>
      <point x="448" y="211"/>
      <point x="471" y="219"/>
      <point x="494" y="235" type="curve"/>
      <point x="451" y="355" type="line"/>
      <point x="446" y="351"/>
      <point x="438" y="347"/>
      <point x="429" y="347" type="curve" smooth="yes"/>
      <point x="419" y="347"/>
      <point x="412" y="350"/>
      <point x="404" y="357" type="curve"/>
      <point x="332" y="257" type="line"/>
      <point x="355" y="230"/>
      <point x="387" y="211"/>
    </contour>
  </outline>
</glyph>
<glyph name="baragujr" format="2">
  <advance width="667"/>
  <outline>
    <contour>
      <point x="217" y="148" type="curve" smooth="yes"/>
      <point x="336" y="148"/>
      <point x="407" y="232"/>
      <point x="407" y="364" type="curve" smooth="yes"/>
      <point x="407" y="414" type="line"/>
      <point x="251" y="424" type="line"/>
      <point x="251" y="357" type="line" smooth="yes"/>
      <point x="251" y="325"/>
      <point x="247" y="305"/>
      <point x="238" y="295" type="curve" smooth="yes"/>
      <point x="233" y="289"/>
      <point x="226" y="286"/>
      <point x="217" y="286" type="curve" smooth="yes"/>
      <point x="195" y="286"/>
      <point x="182" y="311"/>
      <point x="182" y="344" type="curve" smooth="yes"/>
      <point x="182" y="409"/>
      <point x="204" y="459"/>
      <point x="258" y="515" type="curve"/>
      <point x="133" y="602" type="line"/>
      <point x="59" y="533"/>
      <point x="23" y="453"/>
      <point x="23" y="360" type="curve" smooth="yes"/>
      <point x="23" y="232"/>
      <point x="99" y="148"/>
    </contour>
    <contour>
      <point x="319" y="-27" type="line"/>
      <point x="534" y="131" type="line"/>
      <point x="484" y="242" type="line"/>
      <point x="456" y="225" type="line"/>
      <point x="232" y="86" type="line"/>
    </contour>
    <contour>
      <point x="420" y="251" type="curve" smooth="yes"/>
      <point x="443" y="251"/>
      <point x="463" y="260"/>
      <point x="482" y="280" type="curve"/>
      <point x="465" y="412" type="line"/>
      <point x="459" y="391"/>
      <point x="446" y="376"/>
      <point x="429" y="376" type="curve" smooth="yes"/>
      <point x="419" y="376"/>
      <point x="413" y="379"/>
      <point x="404" y="386" type="curve"/>
      <point x="332" y="297" type="line"/>
      <point x="354" y="270"/>
      <point x="389" y="251"/>
    </contour>
    <contour>
      <point x="610" y="0" type="curve" smooth="yes"/>
      <point x="651" y="0" type="line"/>
      <point x="657" y="138" type="line"/>
      <point x="643" y="138"/>
      <point x="633" y="140"/>
      <point x="626" y="146" type="curve" smooth="yes"/>
      <point x="618" y="153"/>
      <point x="615" y="163"/>
      <point x="615" y="180" type="curve" smooth="yes"/>
      <point x="615" y="592" type="line"/>
      <point x="456" y="602" type="line"/>
      <point x="456" y="150" type="line" smooth="yes"/>
      <point x="456" y="98"/>
      <point x="470" y="59"/>
      <point x="499" y="34" type="curve" smooth="yes"/>
      <point x="525" y="11"/>
      <point x="562" y="0"/>
    </contour>
  </outline>
</glyph>
<glyph name="baraprehalfgujr" format="2">
  <advance width="472"/>
  <outline>
    <contour>
      <point x="217" y="148" type="curve" smooth="yes"/>
      <point x="336" y="148"/>
      <point x="407" y="232"/>
      <point x="407" y="364" type="curve" smooth="yes"/>
      <point x="407" y="414" type="line"/>
      <point x="251" y="424" type="line"/>
      <point x="251" y="357" type="line" smooth="yes"/>
      <point x="251" y="325"/>
      <point x="247" y="305"/>
      <point x="238" y="295" type="curve" smooth="yes"/>
      <point x="233" y="289"/>
      <point x="226" y="286"/>
      <point x="217" y="286" type="curve" smooth="yes"/>
      <point x="195" y="286"/>
      <point x="182" y="311"/>
      <point x="182" y="344" type="curve" smooth="yes"/>
      <point x="182" y="409"/>
      <point x="204" y="459"/>
      <point x="258" y="515" type="curve"/>
      <point x="133" y="602" type="line"/>
      <point x="59" y="533"/>
      <point x="23" y="453"/>
      <point x="23" y="360" type="curve" smooth="yes"/>
      <point x="23" y="232"/>
      <point x="99" y="148"/>
    </contour>
    <contour>
      <point x="319" y="-27" type="line"/>
      <point x="466" y="76" type="line"/>
      <point x="466" y="230" type="line"/>
      <point x="232" y="86" type="line"/>
    </contour>
    <contour>
      <point x="420" y="253" type="curve" smooth="yes"/>
      <point x="448" y="253"/>
      <point x="471" y="261"/>
      <point x="494" y="277" type="curve"/>
      <point x="449" y="386" type="line"/>
      <point x="444" y="382"/>
      <point x="438" y="378"/>
      <point x="429" y="378" type="curve" smooth="yes"/>
      <point x="419" y="378"/>
      <point x="413" y="381"/>
      <point x="404" y="388" type="curve"/>
      <point x="332" y="299" type="line"/>
      <point x="354" y="272"/>
      <point x="389" y="253"/>
    </contour>
  </outline>
</glyph>
<glyph name="barastemgujr" format="2">
  <advance width="667"/>
  <outline>
    <contour>
      <point x="217" y="148" type="curve" smooth="yes"/>
      <point x="336" y="148"/>
      <point x="407" y="232"/>
      <point x="407" y="364" type="curve" smooth="yes"/>
      <point x="407" y="414" type="line"/>
      <point x="251" y="424" type="line"/>
      <point x="251" y="357" type="line" smooth="yes"/>
      <point x="251" y="325"/>
      <point x="247" y="305"/>
      <point x="238" y="295" type="curve" smooth="yes"/>
      <point x="233" y="289"/>
      <point x="226" y="286"/>
      <point x="217" y="286" type="curve" smooth="yes"/>
      <point x="195" y="286"/>
      <point x="182" y="311"/>
      <point x="182" y="344" type="curve" smooth="yes"/>
      <point x="182" y="409"/>
      <point x="204" y="459"/>
      <point x="258" y="515" type="curve"/>
      <point x="133" y="602" type="line"/>
      <point x="59" y="533"/>
      <point x="23" y="453"/>
      <point x="23" y="360" type="curve" smooth="yes"/>
      <point x="23" y="232"/>
      <point x="99" y="148"/>
    </contour>
    <contour>
      <point x="319" y="-27" type="line"/>
      <point x="534" y="131" type="line"/>
      <point x="484" y="242" type="line"/>
      <point x="452" y="222" type="line"/>
      <point x="232" y="86" type="line"/>
    </contour>
    <contour>
      <point x="420" y="251" type="curve" smooth="yes"/>
      <point x="443" y="251"/>
      <point x="463" y="260"/>
      <point x="482" y="280" type="curve"/>
      <point x="465" y="412" type="line"/>
      <point x="459" y="391"/>
      <point x="446" y="376"/>
      <point x="429" y="376" type="curve" smooth="yes"/>
      <point x="419" y="376"/>
      <point x="413" y="379"/>
      <point x="404" y="386" type="curve"/>
      <point x="332" y="297" type="line"/>
      <point x="354" y="270"/>
      <point x="389" y="251"/>
    </contour>
    <contour>
      <point x="456" y="-43" type="line"/>
      <point x="615" y="-43" type="line"/>
      <point x="615" y="592" type="line"/>
      <point x="456" y="602" type="line"/>
    </contour>
  </outline>
</glyph>
<glyph name="bastemgujr" format="2">
  <advance width="663"/>
  <outline>
    <contour>
      <point x="217" y="128" type="curve" smooth="yes"/>
      <point x="336" y="128"/>
      <point x="407" y="212"/>
      <point x="407" y="341" type="curve" smooth="yes"/>
      <point x="407" y="414" type="line"/>
      <point x="251" y="424" type="line"/>
      <point x="251" y="337" type="line" smooth="yes"/>
      <point x="251" y="305"/>
      <point x="247" y="285"/>
      <point x="238" y="275" type="curve" smooth="yes"/>
      <point x="233" y="269"/>
      <point x="226" y="266"/>
      <point x="217" y="266" type="curve" smooth="yes"/>
      <point x="195" y="266"/>
      <point x="182" y="291"/>
      <point x="182" y="334" type="curve" smooth="yes"/>
      <point x="182" y="396"/>
      <point x="204" y="452"/>
      <point x="258" y="515" type="curve"/>
      <point x="133" y="602" type="line"/>
      <point x="59" y="526"/>
      <point x="23" y="440"/>
      <point x="23" y="345" type="curve" smooth="yes"/>
      <point x="23" y="212"/>
      <point x="99" y="128"/>
    </contour>
    <contour>
      <point x="420" y="212" type="curve" smooth="yes"/>
      <point x="443" y="212"/>
      <point x="463" y="221"/>
      <point x="482" y="241" type="curve"/>
      <point x="465" y="376" type="line"/>
      <point x="459" y="355"/>
      <point x="446" y="345"/>
      <point x="429" y="345" type="curve" smooth="yes"/>
      <point x="419" y="345"/>
      <point x="413" y="348"/>
      <point x="404" y="355" type="curve"/>
      <point x="332" y="258" type="line"/>
      <point x="354" y="231"/>
      <point x="389" y="212"/>
    </contour>
    <contour>
      <point x="452" y="-43" type="line"/>
      <point x="611" y="-43" type="line"/>
      <point x="611" y="592" type="line"/>
      <point x="452" y="602" type="line"/>
    </contour>
  </outline>
</glyph>
<glyph name="bharagujr" format="2">
  <advance width="729"/>
  <outline>
    <contour>
      <point x="168" y="29" type="curve"/>
      <point x="291" y="114" type="line"/>
      <point x="216" y="201"/>
      <point x="183" y="285"/>
      <point x="183" y="366" type="curve" smooth="yes"/>
      <point x="183" y="430"/>
      <point x="205" y="464"/>
      <point x="245" y="464" type="curve" smooth="yes"/>
      <point x="260" y="464"/>
      <point x="272" y="458"/>
      <point x="280" y="446" type="curve" smooth="yes"/>
      <point x="290" y="431"/>
      <point x="294" y="407"/>
      <point x="294" y="373" type="curve" smooth="yes"/>
      <point x="294" y="338" type="line"/>
      <point x="452" y="338" type="line"/>
      <point x="452" y="378" type="line" smooth="yes"/>
      <point x="452" y="446"/>
      <point x="433" y="500"/>
      <point x="399" y="539" type="curve" smooth="yes"/>
      <point x="363" y="580"/>
      <point x="309" y="602"/>
      <point x="242" y="602" type="curve" smooth="yes"/>
      <point x="112" y="602"/>
      <point x="24" y="511"/>
      <point x="24" y="370" type="curve" smooth="yes"/>
      <point x="24" y="246"/>
      <point x="82" y="132"/>
    </contour>
    <contour>
      <point x="385" y="-32" type="line"/>
      <point x="600" y="126" type="line"/>
      <point x="550" y="237" type="line"/>
      <point x="518" y="217" type="line"/>
      <point x="298" y="81" type="line"/>
    </contour>
    <contour>
      <point x="390" y="175" type="curve" smooth="yes"/>
      <point x="431" y="175"/>
      <point x="451" y="202"/>
      <point x="451" y="251" type="curve" smooth="yes"/>
      <point x="451" y="261" type="line"/>
      <point x="558" y="261" type="line"/>
      <point x="558" y="399" type="line"/>
      <point x="317" y="399" type="line" smooth="yes"/>
      <point x="271" y="399"/>
      <point x="233" y="378"/>
      <point x="233" y="335" type="curve" smooth="yes"/>
      <point x="233" y="261"/>
      <point x="323" y="175"/>
    </contour>
    <contour>
      <point x="672" y="0" type="curve" smooth="yes"/>
      <point x="713" y="0" type="line"/>
      <point x="719" y="138" type="line"/>
      <point x="705" y="138"/>
      <point x="695" y="140"/>
      <point x="688" y="146" type="curve" smooth="yes"/>
      <point x="680" y="153"/>
      <point x="677" y="163"/>
      <point x="677" y="180" type="curve" smooth="yes"/>
      <point x="677" y="592" type="line"/>
      <point x="518" y="602" type="line"/>
      <point x="518" y="150" type="line" smooth="yes"/>
      <point x="518" y="98"/>
      <point x="532" y="59"/>
      <point x="561" y="34" type="curve" smooth="yes"/>
      <point x="587" y="11"/>
      <point x="624" y="0"/>
    </contour>
  </outline>
</glyph>
<glyph name="bharaprehalfgujr" format="2">
  <advance width="527"/>
  <outline>
    <contour>
      <point x="168" y="29" type="curve"/>
      <point x="291" y="114" type="line"/>
      <point x="216" y="201"/>
      <point x="183" y="285"/>
      <point x="183" y="366" type="curve" smooth="yes"/>
      <point x="183" y="430"/>
      <point x="205" y="464"/>
      <point x="245" y="464" type="curve" smooth="yes"/>
      <point x="260" y="464"/>
      <point x="272" y="458"/>
      <point x="280" y="446" type="curve" smooth="yes"/>
      <point x="290" y="431"/>
      <point x="294" y="407"/>
      <point x="294" y="373" type="curve" smooth="yes"/>
      <point x="294" y="338" type="line"/>
      <point x="452" y="338" type="line"/>
      <point x="452" y="378" type="line" smooth="yes"/>
      <point x="452" y="446"/>
      <point x="433" y="500"/>
      <point x="399" y="539" type="curve" smooth="yes"/>
      <point x="363" y="580"/>
      <point x="309" y="602"/>
      <point x="242" y="602" type="curve" smooth="yes"/>
      <point x="112" y="602"/>
      <point x="24" y="511"/>
      <point x="24" y="370" type="curve" smooth="yes"/>
      <point x="24" y="246"/>
      <point x="82" y="132"/>
    </contour>
    <contour>
      <point x="386" y="-31" type="line"/>
      <point x="518" y="63" type="line"/>
      <point x="518" y="218" type="line"/>
      <point x="299" y="82" type="line"/>
    </contour>
    <contour>
      <point x="390" y="175" type="curve" smooth="yes"/>
      <point x="431" y="175"/>
      <point x="451" y="202"/>
      <point x="451" y="251" type="curve" smooth="yes"/>
      <point x="451" y="261" type="line"/>
      <point x="529" y="261" type="line"/>
      <point x="529" y="399" type="line"/>
      <point x="317" y="399" type="line" smooth="yes"/>
      <point x="272" y="399"/>
      <point x="233" y="378"/>
      <point x="233" y="335" type="curve" smooth="yes"/>
      <point x="233" y="261"/>
      <point x="323" y="175"/>
    </contour>
  </outline>
</glyph>
<glyph name="bharastemgujr" format="2">
  <advance width="729"/>
  <outline>
    <contour>
      <point x="168" y="29" type="curve"/>
      <point x="291" y="114" type="line"/>
      <point x="216" y="201"/>
      <point x="183" y="285"/>
      <point x="183" y="366" type="curve" smooth="yes"/>
      <point x="183" y="430"/>
      <point x="205" y="464"/>
      <point x="245" y="464" type="curve" smooth="yes"/>
      <point x="260" y="464"/>
      <point x="272" y="458"/>
      <point x="280" y="446" type="curve" smooth="yes"/>
      <point x="290" y="431"/>
      <point x="294" y="407"/>
      <point x="294" y="373" type="curve" smooth="yes"/>
      <point x="294" y="338" type="line"/>
      <point x="452" y="338" type="line"/>
      <point x="452" y="378" type="line" smooth="yes"/>
      <point x="452" y="446"/>
      <point x="433" y="500"/>
      <point x="399" y="539" type="curve" smooth="yes"/>
      <point x="363" y="580"/>
      <point x="309" y="602"/>
      <point x="242" y="602" type="curve" smooth="yes"/>
      <point x="112" y="602"/>
      <point x="24" y="511"/>
      <point x="24" y="370" type="curve" smooth="yes"/>
      <point x="24" y="246"/>
      <point x="82" y="132"/>
    </contour>
    <contour>
      <point x="385" y="-32" type="line"/>
      <point x="600" y="126" type="line"/>
      <point x="550" y="237" type="line"/>
      <point x="518" y="217" type="line"/>
      <point x="298" y="81" type="line"/>
    </contour>
    <contour>
      <point x="390" y="175" type="curve" smooth="yes"/>
      <point x="431" y="175"/>
      <point x="451" y="202"/>
      <point x="451" y="251" type="curve" smooth="yes"/>
      <point x="451" y="261" type="line"/>
      <point x="558" y="261" type="line"/>
      <point x="558" y="399" type="line"/>
      <point x="317" y="399" type="line" smooth="yes"/>
      <point x="271" y="399"/>
      <point x="233" y="378"/>
      <point x="233" y="335" type="curve" smooth="yes"/>
      <point x="233" y="261"/>
      <point x="323" y="175"/>
    </contour>
    <contour>
      <point x="518" y="-43" type="line"/>
      <point x="677" y="-43" type="line"/>
      <point x="677" y="593" type="line"/>
      <point x="518" y="603" type="line"/>
    </contour>
  </outline>
</glyph>
<glyph name="bhastemgujr" format="2">
  <advance width="728"/>
  <outline>
    <contour>
      <point x="168" y="29" type="curve"/>
      <point x="291" y="114" type="line"/>
      <point x="216" y="201"/>
      <point x="183" y="285"/>
      <point x="183" y="366" type="curve" smooth="yes"/>
      <point x="183" y="430"/>
      <point x="205" y="464"/>
      <point x="245" y="464" type="curve" smooth="yes"/>
      <point x="260" y="464"/>
      <point x="272" y="458"/>
      <point x="280" y="446" type="curve" smooth="yes"/>
      <point x="290" y="431"/>
      <point x="294" y="407"/>
      <point x="294" y="373" type="curve" smooth="yes"/>
      <point x="294" y="338" type="line"/>
      <point x="452" y="338" type="line"/>
      <point x="452" y="378" type="line" smooth="yes"/>
      <point x="452" y="446"/>
      <point x="433" y="500"/>
      <point x="399" y="539" type="curve" smooth="yes"/>
      <point x="363" y="580"/>
      <point x="309" y="602"/>
      <point x="242" y="602" type="curve" smooth="yes"/>
      <point x="112" y="602"/>
      <point x="24" y="511"/>
      <point x="24" y="370" type="curve" smooth="yes"/>
      <point x="24" y="246"/>
      <point x="82" y="132"/>
    </contour>
    <contour>
      <point x="393" y="155" type="curve" smooth="yes"/>
      <point x="433" y="155"/>
      <point x="452" y="176"/>
      <point x="452" y="221" type="curve" smooth="yes"/>
      <point x="452" y="250" type="line"/>
      <point x="558" y="250" type="line"/>
      <point x="558" y="388" type="line"/>
      <point x="317" y="388" type="line" smooth="yes"/>
      <point x="268" y="388"/>
      <point x="234" y="360"/>
      <point x="234" y="319" type="curve" smooth="yes"/>
      <point x="234" y="243"/>
      <point x="319" y="155"/>
    </contour>
    <contour>
      <point x="517" y="-43" type="line"/>
      <point x="676" y="-43" type="line"/>
      <point x="676" y="592" type="line"/>
      <point x="517" y="602" type="line"/>
    </contour>
  </outline>
</glyph>
<glyph name="caprehalfgujr" format="2">
  <advance width="392"/>
  <outline>
    <contour>
      <point x="292" y="101" type="curve" smooth="yes"/>
      <point x="351" y="101"/>
      <point x="390" y="116"/>
      <point x="442" y="159" type="curve"/>
      <point x="371" y="275" type="line"/>
      <point x="350" y="252"/>
      <point x="327" y="239"/>
      <point x="294" y="239" type="curve" smooth="yes"/>
      <point x="269" y="239"/>
      <point x="260" y="243"/>
      <point x="244" y="251" type="curve"/>
      <point x="208" y="304" type="line"/>
      <point x="170" y="343"/>
      <point x="138" y="373"/>
      <point x="96" y="373" type="curve" smooth="yes"/>
      <point x="37" y="373"/>
      <point x="15" y="334"/>
      <point x="15" y="293" type="curve" smooth="yes"/>
      <point x="15" y="232"/>
      <point x="68" y="202"/>
      <point x="120" y="202" type="curve" smooth="yes"/>
      <point x="236" y="202"/>
      <point x="333" y="286"/>
      <point x="333" y="414" type="curve" smooth="yes"/>
      <point x="333" y="522"/>
      <point x="262" y="602"/>
      <point x="150" y="602" type="curve" smooth="yes"/>
      <point x="98" y="602"/>
      <point x="59" y="593"/>
      <point x="18" y="576" type="curve"/>
      <point x="60" y="453" type="line"/>
      <point x="78" y="460"/>
      <point x="101" y="464"/>
      <point x="116" y="464" type="curve" smooth="yes"/>
      <point x="152" y="464"/>
      <point x="174" y="440"/>
      <point x="174" y="407" type="curve" smooth="yes"/>
      <point x="174" y="362"/>
      <point x="147" y="345"/>
      <point x="108" y="327" type="curve"/>
      <point x="64" y="274" type="line"/>
      <point x="91" y="224" type="line"/>
      <point x="123" y="170"/>
      <point x="179" y="101"/>
    </contour>
  </outline>
</glyph>
<glyph name="caragujr" format="2">
  <advance width="593"/>
  <outline>
    <contour>
      <point x="292" y="121" type="curve" smooth="yes"/>
      <point x="331" y="121"/>
      <point x="365" y="131"/>
      <point x="392" y="148" type="curve"/>
      <point x="392" y="316" type="line"/>
      <point x="368" y="274"/>
      <point x="342" y="246"/>
      <point x="294" y="246" type="curve" smooth="yes"/>
      <point x="278" y="246"/>
      <point x="257" y="248"/>
      <point x="243" y="257" type="curve"/>
      <point x="208" y="304" type="line"/>
      <point x="170" y="343"/>
      <point x="138" y="373"/>
      <point x="96" y="373" type="curve" smooth="yes"/>
      <point x="37" y="373"/>
      <point x="15" y="334"/>
      <point x="15" y="293" type="curve" smooth="yes"/>
      <point x="15" y="232"/>
      <point x="68" y="202"/>
      <point x="120" y="202" type="curve" smooth="yes"/>
      <point x="236" y="202"/>
      <point x="333" y="291"/>
      <point x="333" y="416" type="curve" smooth="yes"/>
      <point x="333" y="522"/>
      <point x="262" y="602"/>
      <point x="150" y="602" type="curve" smooth="yes"/>
      <point x="98" y="602"/>
      <point x="59" y="593"/>
      <point x="18" y="576" type="curve"/>
      <point x="60" y="453" type="line"/>
      <point x="78" y="460"/>
      <point x="101" y="464"/>
      <point x="116" y="464" type="curve" smooth="yes"/>
      <point x="152" y="464"/>
      <point x="174" y="440"/>
      <point x="174" y="407" type="curve" smooth="yes"/>
      <point x="174" y="362"/>
      <point x="147" y="345"/>
      <point x="108" y="327" type="curve"/>
      <point x="64" y="274" type="line"/>
      <point x="91" y="227" type="line"/>
      <point x="127" y="163"/>
      <point x="197" y="121"/>
    </contour>
    <contour>
      <point x="165" y="-42" type="line"/>
      <point x="396" y="139" type="line"/>
      <point x="321" y="206" type="line"/>
      <point x="277" y="192" type="line"/>
      <point x="71" y="67" type="line"/>
    </contour>
    <contour>
      <point x="536" y="0" type="curve" smooth="yes"/>
      <point x="577" y="0" type="line"/>
      <point x="583" y="138" type="line"/>
      <point x="569" y="138"/>
      <point x="559" y="140"/>
      <point x="552" y="146" type="curve" smooth="yes"/>
      <point x="544" y="153"/>
      <point x="541" y="163"/>
      <point x="541" y="180" type="curve" smooth="yes"/>
      <point x="541" y="592" type="line"/>
      <point x="382" y="602" type="line"/>
      <point x="382" y="150" type="line" smooth="yes"/>
      <point x="382" y="98"/>
      <point x="396" y="59"/>
      <point x="425" y="34" type="curve" smooth="yes"/>
      <point x="451" y="11"/>
      <point x="488" y="0"/>
    </contour>
  </outline>
</glyph>
<glyph name="caraprehalfgujr" format="2">
  <advance width="392"/>
  <outline>
    <contour>
      <point x="292" y="121" type="curve" smooth="yes"/>
      <point x="331" y="121"/>
      <point x="365" y="131"/>
      <point x="392" y="148" type="curve"/>
      <point x="369" y="281" type="line"/>
      <point x="350" y="260"/>
      <point x="327" y="246"/>
      <point x="294" y="246" type="curve" smooth="yes"/>
      <point x="278" y="246"/>
      <point x="257" y="248"/>
      <point x="243" y="257" type="curve"/>
      <point x="208" y="304" type="line"/>
      <point x="170" y="343"/>
      <point x="138" y="373"/>
      <point x="98" y="373" type="curve" smooth="yes"/>
      <point x="37" y="373"/>
      <point x="15" y="334"/>
      <point x="15" y="293" type="curve" smooth="yes"/>
      <point x="15" y="232"/>
      <point x="68" y="202"/>
      <point x="120" y="202" type="curve" smooth="yes"/>
      <point x="236" y="202"/>
      <point x="333" y="291"/>
      <point x="333" y="414" type="curve" smooth="yes"/>
      <point x="333" y="522"/>
      <point x="262" y="602"/>
      <point x="150" y="602" type="curve" smooth="yes"/>
      <point x="98" y="602"/>
      <point x="59" y="593"/>
      <point x="18" y="576" type="curve"/>
      <point x="60" y="453" type="line"/>
      <point x="78" y="460"/>
      <point x="101" y="464"/>
      <point x="116" y="464" type="curve" smooth="yes"/>
      <point x="152" y="464"/>
      <point x="174" y="440"/>
      <point x="174" y="406" type="curve" smooth="yes"/>
      <point x="174" y="362"/>
      <point x="147" y="345"/>
      <point x="108" y="327" type="curve"/>
      <point x="64" y="281" type="line"/>
      <point x="91" y="227" type="line"/>
      <point x="127" y="163"/>
      <point x="197" y="121"/>
    </contour>
    <contour>
      <point x="165" y="-42" type="line"/>
      <point x="435" y="159" type="line"/>
      <point x="369" y="281" type="line"/>
      <point x="347" y="217" type="line"/>
      <point x="277" y="192" type="line"/>
      <point x="71" y="67" type="line"/>
    </contour>
  </outline>
</glyph>
<glyph name="castemgujr" format="2">
  <advance width="593"/>
  <outline>
    <contour>
      <point x="292" y="101" type="curve" smooth="yes"/>
      <point x="331" y="101"/>
      <point x="365" y="111"/>
      <point x="392" y="128" type="curve"/>
      <point x="392" y="305" type="line"/>
      <point x="368" y="263"/>
      <point x="339" y="239"/>
      <point x="294" y="239" type="curve" smooth="yes"/>
      <point x="269" y="239"/>
      <point x="260" y="243"/>
      <point x="244" y="251" type="curve"/>
      <point x="208" y="304" type="line"/>
      <point x="170" y="343"/>
      <point x="138" y="373"/>
      <point x="96" y="373" type="curve" smooth="yes"/>
      <point x="37" y="373"/>
      <point x="15" y="334"/>
      <point x="15" y="293" type="curve" smooth="yes"/>
      <point x="15" y="232"/>
      <point x="68" y="202"/>
      <point x="120" y="202" type="curve" smooth="yes"/>
      <point x="237" y="202"/>
      <point x="333" y="285"/>
      <point x="333" y="414" type="curve" smooth="yes"/>
      <point x="333" y="522"/>
      <point x="262" y="602"/>
      <point x="150" y="602" type="curve" smooth="yes"/>
      <point x="98" y="602"/>
      <point x="59" y="593"/>
      <point x="18" y="576" type="curve"/>
      <point x="60" y="453" type="line"/>
      <point x="78" y="460"/>
      <point x="101" y="464"/>
      <point x="116" y="464" type="curve" smooth="yes"/>
      <point x="152" y="464"/>
      <point x="174" y="440"/>
      <point x="174" y="407" type="curve" smooth="yes"/>
      <point x="174" y="362"/>
      <point x="147" y="345"/>
      <point x="108" y="327" type="curve"/>
      <point x="64" y="274" type="line"/>
      <point x="91" y="224" type="line"/>
      <point x="123" y="170"/>
      <point x="179" y="101"/>
    </contour>
    <contour>
      <point x="382" y="-43" type="line"/>
      <point x="541" y="-43" type="line"/>
      <point x="541" y="592" type="line"/>
      <point x="382" y="602" type="line"/>
    </contour>
  </outline>
</glyph>
<glyph name="chasquishgujr" format="2">
  <advance width="659"/>
  <outline>
    <contour>
      <point x="283" y="105" type="curve" smooth="yes"/>
      <point x="501" y="105"/>
      <point x="638" y="235"/>
      <point x="638" y="418" type="curve" smooth="yes"/>
      <point x="638" y="528"/>
      <point x="574" y="603"/>
      <point x="448" y="603" type="curve" smooth="yes"/>
      <point x="351" y="603"/>
      <point x="286" y="550"/>
      <point x="286" y="465" type="curve" smooth="yes"/>
      <point x="286" y="392"/>
      <point x="334" y="340"/>
      <point x="422" y="305" type="curve"/>
      <point x="477" y="408" type="line"/>
      <point x="446" y="421"/>
      <point x="423" y="434"/>
      <point x="423" y="455" type="curve" smooth="yes"/>
      <point x="423" y="471"/>
      <point x="433" y="481"/>
      <point x="450" y="481" type="curve" smooth="yes"/>
      <point x="474" y="481"/>
      <point x="487" y="460"/>
      <point x="487" y="421" type="curve" smooth="yes"/>
      <point x="487" y="322"/>
      <point x="411" y="237"/>
      <point x="283" y="237" type="curve" smooth="yes"/>
      <point x="235" y="237"/>
      <point x="198" y="242"/>
      <point x="198" y="272" type="curve" smooth="yes"/>
      <point x="198" y="292"/>
      <point x="216" y="301"/>
      <point x="244" y="301" type="curve" smooth="yes"/>
      <point x="254" y="301"/>
      <point x="262" y="300"/>
      <point x="269" y="299" type="curve"/>
      <point x="286" y="421" type="line"/>
      <point x="276" y="423"/>
      <point x="262" y="424"/>
      <point x="245" y="424" type="curve" smooth="yes"/>
      <point x="134" y="424"/>
      <point x="44" y="377"/>
      <point x="44" y="268" type="curve" smooth="yes"/>
      <point x="44" y="176"/>
      <point x="123" y="105"/>
    </contour>
    <contour>
      <point x="126" y="313" type="curve"/>
      <point x="233" y="384" type="line"/>
      <point x="200" y="399"/>
      <point x="174" y="419"/>
      <point x="174" y="446" type="curve" smooth="yes"/>
      <point x="174" y="470"/>
      <point x="192" y="480"/>
      <point x="223" y="480" type="curve" smooth="yes"/>
      <point x="234" y="480"/>
      <point x="243" y="480"/>
      <point x="251" y="478" type="curve"/>
      <point x="273" y="596" type="line"/>
      <point x="250" y="601"/>
      <point x="218" y="603"/>
      <point x="187" y="603" type="curve" smooth="yes"/>
      <point x="82" y="603"/>
      <point x="20" y="553"/>
      <point x="20" y="472" type="curve" smooth="yes"/>
      <point x="20" y="412"/>
      <point x="55" y="361"/>
    </contour>
  </outline>
</glyph>
<glyph name="chavagujr" format="2">
  <advance width="659"/>
  <outline>
    <contour>
      <point x="284" y="52" type="curve" smooth="yes"/>
      <point x="531" y="52"/>
      <point x="639" y="207"/>
      <point x="639" y="390" type="curve" smooth="yes"/>
      <point x="639" y="515"/>
      <point x="574" y="602"/>
      <point x="444" y="602" type="curve" smooth="yes"/>
      <point x="342" y="602"/>
      <point x="282" y="543"/>
      <point x="282" y="457" type="curve" smooth="yes"/>
      <point x="282" y="382"/>
      <point x="333" y="307"/>
      <point x="424" y="275" type="curve"/>
      <point x="469" y="393" type="line"/>
      <point x="445" y="405"/>
      <point x="422" y="418"/>
      <point x="422" y="448" type="curve" smooth="yes"/>
      <point x="422" y="462"/>
      <point x="430" y="475"/>
      <point x="446" y="475" type="curve" smooth="yes"/>
      <point x="468" y="475"/>
      <point x="481" y="451"/>
      <point x="481" y="402" type="curve" smooth="yes"/>
      <point x="481" y="280"/>
      <point x="405" y="190"/>
      <point x="283" y="190" type="curve" smooth="yes"/>
      <point x="230" y="190"/>
      <point x="201" y="207"/>
      <point x="201" y="236" type="curve" smooth="yes"/>
      <point x="201" y="259"/>
      <point x="216" y="272"/>
      <point x="247" y="272" type="curve" smooth="yes"/>
      <point x="254" y="272"/>
      <point x="265" y="271"/>
      <point x="271" y="270" type="curve"/>
      <point x="286" y="402" type="line"/>
      <point x="278" y="404"/>
      <point x="264" y="406"/>
      <point x="240" y="406" type="curve" smooth="yes"/>
      <point x="127" y="406"/>
      <point x="44" y="333"/>
      <point x="44" y="238" type="curve" smooth="yes"/>
      <point x="44" y="132"/>
      <point x="118" y="52"/>
    </contour>
    <contour>
      <point x="108" y="293" type="curve"/>
      <point x="217" y="371" type="line"/>
      <point x="187" y="393"/>
      <point x="174" y="412"/>
      <point x="174" y="432" type="curve" smooth="yes"/>
      <point x="174" y="457"/>
      <point x="195" y="468"/>
      <point x="222" y="468" type="curve" smooth="yes"/>
      <point x="237" y="468"/>
      <point x="249" y="467"/>
      <point x="256" y="465" type="curve"/>
      <point x="277" y="597" type="line"/>
      <point x="260" y="599"/>
      <point x="229" y="602"/>
      <point x="198" y="602" type="curve" smooth="yes"/>
      <point x="80" y="602"/>
      <point x="20" y="543"/>
      <point x="20" y="459" type="curve" smooth="yes"/>
      <point x="20" y="402"/>
      <point x="48" y="347"/>
    </contour>
    <contour>
      <point x="335" y="-245" type="curve" smooth="yes"/>
      <point x="383" y="-245"/>
      <point x="422" y="-231"/>
      <point x="455" y="-208" type="curve"/>
      <point x="420" y="-103" type="line"/>
      <point x="397" y="-123"/>
      <point x="379" y="-136"/>
      <point x="343" y="-136" type="curve" smooth="yes"/>
      <point x="317" y="-136"/>
      <point x="304" y="-126"/>
      <point x="304" y="-107" type="curve" smooth="yes"/>
      <point x="304" y="-88"/>
      <point x="314" y="-77"/>
      <point x="338" y="-77" type="curve" smooth="yes"/>
      <point x="345" y="-77"/>
      <point x="353" y="-77"/>
      <point x="363" y="-79" type="curve"/>
      <point x="372" y="26" type="line"/>
      <point x="356" y="29"/>
      <point x="345" y="30"/>
      <point x="321" y="30" type="curve" smooth="yes"/>
      <point x="244" y="30"/>
      <point x="181" y="-19"/>
      <point x="181" y="-103" type="curve" smooth="yes"/>
      <point x="181" y="-197"/>
      <point x="252" y="-245"/>
    </contour>
    <contour>
      <point x="538" y="-270" type="curve" smooth="yes"/>
      <point x="558" y="-270" type="line"/>
      <point x="568" y="-168" type="line"/>
      <point x="552" y="-167"/>
      <point x="541" y="-165"/>
      <point x="535" y="-159" type="curve" smooth="yes"/>
      <point x="528" y="-152"/>
      <point x="526" y="-143"/>
      <point x="526" y="-126" type="curve" smooth="yes"/>
      <point x="526" y="176" type="line"/>
      <point x="403" y="139" type="line"/>
      <point x="403" y="-149" type="line" smooth="yes"/>
      <point x="403" y="-192"/>
      <point x="414" y="-223"/>
      <point x="438" y="-243" type="curve" smooth="yes"/>
      <point x="460" y="-261"/>
      <point x="493" y="-270"/>
    </contour>
  </outline>
</glyph>
